Tajawal-Regular.ufo
<glyph name="exclam" format="1">
 <advance width="216" />
 <unicode hex="0021" />
 <outline>
  <contour>
   <point x="73" y="149" type="line" smooth="no" name="13" />
   <point x="140" y="149" type="line" smooth="no" name="13" />
   <point x="140" y="633" type="line" smooth="no" name="13" />
   <point x="73" y="633" type="line" smooth="no" name="13" />
  </contour>
  <contour>
   <point x="150" y="36" type="curve" smooth="yes" name="15" />
   <point x="150" y="60" type="offcurve" name="14" />
   <point x="136" y="76" type="offcurve" name="14" />
   <point x="109" y="76" type="curve" smooth="yes" name="15" />
   <point x="81" y="76" type="offcurve" name="14" />
   <point x="67" y="60" type="offcurve" name="14" />
   <point x="66" y="35" type="curve" smooth="yes" name="15" />
   <point x="66" y="9" type="offcurve" name="14" />
   <point x="80" y="-9" type="offcurve" name="14" />
   <point x="109" y="-9" type="curve" smooth="yes" name="15" />
   <point x="137" y="-9" type="offcurve" name="14" />
   <point x="150" y="8" type="offcurve" name="14" />
   <point x="150" y="34" type="curve" smooth="yes" name="15" />
   <point x="150" y="35" type="offcurve" name="14" />
   <point x="150" y="36" type="offcurve" name="14" />
  </contour>
 </outline>
</glyph>
<glyph name="quotedbl" format="1">
 <advance width="276" />
 <unicode hex="0022" />
 <outline>
  <contour>
   <point x="70" y="485" type="line" smooth="no" name="13" />
   <point x="120" y="512" type="line" smooth="no" name="13" />
   <point x="120" y="645" type="line" smooth="no" name="13" />
   <point x="70" y="618" type="line" smooth="no" name="13" />
  </contour>
  <contour>
   <point x="155" y="485" type="line" smooth="no" name="13" />
   <point x="206" y="512" type="line" smooth="no" name="13" />
   <point x="206" y="645" type="line" smooth="no" name="13" />
   <point x="155" y="618" type="line" smooth="no" name="13" />
  </contour>
 </outline>
</glyph>
<glyph name="numbersign" format="1">
 <advance width="497" />
 <unicode hex="0023" />
 <outline>
  <contour>
   <point x="343" y="147" type="line" smooth="no" name="13" />
   <point x="449" y="147" type="line" smooth="no" name="13" />
   <point x="449" y="202" type="line" smooth="no" name="13" />
   <point x="355" y="202" type="line" smooth="no" name="13" />
   <point x="395" y="399" type="line" smooth="no" name="13" />
   <point x="482" y="399" type="line" smooth="no" name="13" />
   <point x="482" y="454" type="line" smooth="no" name="13" />
   <point x="407" y="454" type="line" smooth="no" name="13" />
   <point x="439" y="609" type="line" smooth="no" name="13" />
   <point x="386" y="609" type="line" smooth="no" name="13" />
   <point x="354" y="454" type="line" smooth="no" name="13" />
   <point x="208" y="454" type="line" smooth="no" name="13" />
   <point x="241" y="609" type="line" smooth="no" name="13" />
   <point x="188" y="609" type="line" smooth="no" name="13" />
   <point x="155" y="454" type="line" smooth="no" name="13" />
   <point x="49" y="454" type="line" smooth="no" name="13" />
   <point x="49" y="399" type="line" smooth="no" name="13" />
   <point x="144" y="399" type="line" smooth="no" name="13" />
   <point x="103" y="202" type="line" smooth="no" name="13" />
   <point x="15" y="202" type="line" smooth="no" name="13" />
   <point x="15" y="147" type="line" smooth="no" name="13" />
   <point x="92" y="147" type="line" smooth="no" name="13" />
   <point x="61" y="0" type="line" smooth="no" name="13" />
   <point x="114" y="0" type="line" smooth="no" name="13" />
   <point x="145" y="147" type="line" smooth="no" name="13" />
   <point x="290" y="147" type="line" smooth="no" name="13" />
   <point x="260" y="0" type="line" smooth="no" name="13" />
   <point x="313" y="0" type="line" smooth="no" name="13" />
  </contour>
  <contour>
   <point x="197" y="399" type="line" smooth="no" name="13" />
   <point x="342" y="399" type="line" smooth="no" name="13" />
   <point x="302" y="202" type="line" smooth="no" name="13" />
   <point x="156" y="202" type="line" smooth="no" name="13" />
  </contour>
 </outline>
</glyph>
<glyph name="dollar" format="1">
 <advance width="532" />
 <unicode hex="0024" />
 <outline>
  <contour>
   <point x="287" y="700" type="line" smooth="no" name="13" />
   <point x="252" y="700" type="line" smooth="no" name="13" />
   <point x="252" y="645" type="line" smooth="no" name="13" />
   <point x="136" y="639" type="offcurve" name="14" />
   <point x="72" y="569" type="offcurve" name="14" />
   <point x="72" y="485" type="curve" smooth="yes" name="15" />
   <point x="72" y="391" type="offcurve" name="14" />
   <point x="149" y="345" type="offcurve" name="14" />
   <point x="252" y="308" type="curve" smooth="no" name="13" />
   <point x="252" y="55" type="line" smooth="no" name="13" />
   <point x="248" y="55" type="line" smooth="yes" name="15" />
   <point x="197" y="56" type="offcurve" name="14" />
   <point x="138" y="74" type="offcurve" name="14" />
   <point x="100" y="96" type="curve" smooth="no" name="13" />
   <point x="68" y="51" type="line" smooth="no" name="13" />
   <point x="110" y="24" type="offcurve" name="14" />
   <point x="168" y="-8" type="offcurve" name="14" />
   <point x="252" y="-11" type="curve" smooth="no" name="13" />
   <point x="252" y="-74" type="line" smooth="no" name="13" />
   <point x="287" y="-74" type="line" smooth="no" name="13" />
   <point x="287" y="-11" type="line" smooth="no" name="13" />
   <point x="387" y="-2" type="offcurve" name="14" />
   <point x="464" y="62" type="offcurve" name="14" />
   <point x="464" y="166" type="curve" smooth="yes" name="15" />
   <point x="464" y="266" type="offcurve" name="14" />
   <point x="409" y="320" type="offcurve" name="14" />
   <point x="287" y="368" type="curve" smooth="no" name="13" />
   <point x="287" y="581" type="line" smooth="no" name="13" />
   <point x="330" y="579" type="offcurve" name="14" />
   <point x="373" y="566" type="offcurve" name="14" />
   <point x="407" y="548" type="curve" smooth="no" name="13" />
   <point x="440" y="593" type="line" smooth="no" name="13" />
   <point x="404" y="617" type="offcurve" name="14" />
   <point x="356" y="641" type="offcurve" name="14" />
   <point x="287" y="644" type="curve" smooth="no" name="13" />
  </contour>
  <contour>
   <point x="287" y="294" type="line" smooth="no" name="13" />
   <point x="368" y="258" type="offcurve" name="14" />
   <point x="387" y="217" type="offcurve" name="14" />
   <point x="387" y="168" type="curve" smooth="yes" name="15" />
   <point x="387" y="110" type="offcurve" name="14" />
   <point x="354" y="66" type="offcurve" name="14" />
   <point x="287" y="56" type="curve" smooth="no" name="13" />
  </contour>
  <contour>
   <point x="252" y="383" type="line" smooth="no" name="13" />
   <point x="170" y="417" type="offcurve" name="14" />
   <point x="151" y="449" type="offcurve" name="14" />
   <point x="151" y="488" type="curve" smooth="yes" name="15" />
   <point x="151" y="542" type="offcurve" name="14" />
   <point x="191" y="574" type="offcurve" name="14" />
   <point x="252" y="580" type="curve" smooth="no" name="13" />
  </contour>
 </outline>
</glyph>
<glyph name="percent" format="1">
 <advance width="700" />
 <unicode hex="0025" />
 <outline>
  <contour>
   <point x="178" y="0" type="line" smooth="no" name="13" />
   <point x="236" y="0" type="line" smooth="no" name="13" />
   <point x="527" y="565" type="line" smooth="no" name="13" />
   <point x="469" y="565" type="line" smooth="no" name="13" />
  </contour>
  <contour>
   <point x="278" y="412" type="curve" smooth="yes" name="15" />
   <point x="278" y="485" type="offcurve" name="14" />
   <point x="240" y="557" type="offcurve" name="14" />
   <point x="166" y="557" type="curve" smooth="yes" name="15" />
   <point x="84" y="557" type="offcurve" name="14" />
   <point x="50" y="487" type="offcurve" name="14" />
   <point x="50" y="411" type="curve" smooth="yes" name="15" />
   <point x="50" y="327" type="offcurve" name="14" />
   <point x="86" y="258" type="offcurve" name="14" />
   <point x="166" y="258" type="curve" smooth="yes" name="15" />
   <point x="243" y="258" type="offcurve" name="14" />
   <point x="278" y="332" type="offcurve" name="14" />
  </contour>
  <contour>
   <point x="230" y="410" type="curve" smooth="yes" name="15" />
   <point x="230" y="355" type="offcurve" name="14" />
   <point x="208" y="300" type="offcurve" name="14" />
   <point x="164" y="300" type="curve" smooth="yes" name="15" />
   <point x="118" y="300" type="offcurve" name="14" />
   <point x="97" y="356" type="offcurve" name="14" />
   <point x="97" y="410" type="curve" smooth="yes" name="15" />
   <point x="97" y="461" type="offcurve" name="14" />
   <point x="119" y="515" type="offcurve" name="14" />
   <point x="164" y="515" type="curve" smooth="yes" name="15" />
   <point x="209" y="515" type="offcurve" name="14" />
   <point x="230" y="457" type="offcurve" name="14" />
  </contour>
  <contour>
   <point x="650" y="156" type="curve" smooth="yes" name="15" />
   <point x="650" y="229" type="offcurve" name="14" />
   <point x="612" y="301" type="offcurve" name="14" />
   <point x="537" y="301" type="curve" smooth="yes" name="15" />
   <point x="456" y="301" type="offcurve" name="14" />
   <point x="422" y="231" type="offcurve" name="14" />
   <point x="422" y="155" type="curve" smooth="yes" name="15" />
   <point x="422" y="71" type="offcurve" name="14" />
   <point x="457" y="2" type="offcurve" name="14" />
   <point x="537" y="2" type="curve" smooth="yes" name="15" />
   <point x="614" y="2" type="offcurve" name="14" />
   <point x="650" y="76" type="offcurve" name="14" />
  </contour>
  <contour>
   <point x="601" y="154" type="curve" smooth="yes" name="15" />
   <point x="601" y="99" type="offcurve" name="14" />
   <point x="580" y="44" type="offcurve" name="14" />
   <point x="535" y="44" type="curve" smooth="yes" name="15" />
   <point x="489" y="44" type="offcurve" name="14" />
   <point x="469" y="100" type="offcurve" name="14" />
   <point x="469" y="154" type="curve" smooth="yes" name="15" />
   <point x="469" y="205" type="offcurve" name="14" />
   <point x="490" y="259" type="offcurve" name="14" />
   <point x="535" y="259" type="curve" smooth="yes" name="15" />
   <point x="581" y="259" type="offcurve" name="14" />
   <point x="601" y="201" type="offcurve" name="14" />
  </contour>
 </outline>
</glyph>
<glyph name="ampersand" format="1">
 <advance width="561" />
 <unicode hex="0026" />
 <outline>
  <contour>
   <point x="417" y="329" type="line" smooth="no" name="13" />
   <point x="417" y="275" type="line" smooth="yes" name="15" />
   <point x="417" y="218" type="offcurve" name="14" />
   <point x="411" y="180" type="offcurve" name="14" />
   <point x="403" y="163" type="curve" smooth="no" name="13" />
   <point x="219" y="373" type="line" smooth="yes" name="15" />
   <point x="171" y="429" type="offcurve" name="14" />
   <point x="148" y="466" type="offcurve" name="14" />
   <point x="148" y="506" type="curve" smooth="yes" name="15" />
   <point x="148" y="551" type="offcurve" name="14" />
   <point x="183" y="581" type="offcurve" name="14" />
   <point x="234" y="581" type="curve" smooth="yes" name="15" />
   <point x="270" y="581" type="offcurve" name="14" />
   <point x="308" y="570" type="offcurve" name="14" />
   <point x="340" y="553" type="curve" smooth="no" name="13" />
   <point x="369" y="599" type="line" smooth="no" name="13" />
   <point x="328" y="627" type="offcurve" name="14" />
   <point x="285" y="645" type="offcurve" name="14" />
   <point x="235" y="645" type="curve" smooth="yes" name="15" />
   <point x="148" y="645" type="offcurve" name="14" />
   <point x="76" y="594" type="offcurve" name="14" />
   <point x="76" y="503" type="curve" smooth="yes" name="15" />
   <point x="76" y="454" type="offcurve" name="14" />
   <point x="104" y="409" type="offcurve" name="14" />
   <point x="148" y="359" type="curve" smooth="yes" name="15" />
   <point x="161" y="344" type="line" smooth="no" name="13" />
   <point x="118" y="317" type="offcurve" name="14" />
   <point x="60" y="256" type="offcurve" name="14" />
   <point x="60" y="167" type="curve" smooth="yes" name="15" />
   <point x="60" y="64" type="offcurve" name="14" />
   <point x="144" y="-12" type="offcurve" name="14" />
   <point x="256" y="-12" type="curve" smooth="yes" name="15" />
   <point x="343" y="-12" type="offcurve" name="14" />
   <point x="398" y="35" type="offcurve" name="14" />
   <point x="415" y="54" type="curve" smooth="no" name="13" />
   <point x="463" y="0" type="line" smooth="no" name="13" />
   <point x="546" y="0" type="line" smooth="no" name="13" />
   <point x="451" y="108" type="line" smooth="no" name="13" />
   <point x="473" y="141" type="offcurve" name="14" />
   <point x="489" y="203" type="offcurve" name="14" />
   <point x="489" y="290" type="curve" smooth="yes" name="15" />
   <point x="489" y="329" type="line" smooth="no" name="13" />
  </contour>
  <contour>
   <point x="199" y="303" type="curve" smooth="no" name="13" />
   <point x="369" y="105" type="line" smooth="no" name="13" />
   <point x="354" y="85" type="offcurve" name="14" />
   <point x="314" y="53" type="offcurve" name="14" />
   <point x="262" y="53" type="curve" smooth="yes" name="15" />
   <point x="197" y="53" type="offcurve" name="14" />
   <point x="137" y="94" type="offcurve" name="14" />
   <point x="137" y="181" type="curve" smooth="yes" name="15" />
   <point x="137" y="222" type="offcurve" name="14" />
   <point x="161" y="277" type="offcurve" name="14" />
  </contour>
 </outline>
</glyph>
<glyph name="quotesingle" format="1">
 <advance width="190" />
 <unicode hex="0027" />
 <outline>
  <contour>
   <point x="70" y="485" type="line" smooth="no" name="13" />
   <point x="120" y="512" type="line" smooth="no" name="13" />
   <point x="120" y="645" type="line" smooth="no" name="13" />
   <point x="70" y="618" type="line" smooth="no" name="13" />
  </contour>
 </outline>
</glyph>
<glyph name="parenleft" format="1">
 <advance width="368" />
 <unicode hex="0028" />
 <outline>
  <contour>
   <point x="232" y="645" type="line" smooth="no" name="13" />
   <point x="166" y="576" type="offcurve" name="14" />
   <point x="91" y="417" type="offcurve" name="14" />
   <point x="91" y="254" type="curve" smooth="yes" name="15" />
   <point x="91" y="63" type="offcurve" name="14" />
   <point x="184" y="-92" type="offcurve" name="14" />
   <point x="232" y="-140" type="curve" smooth="no" name="13" />
   <point x="292" y="-140" type="line" smooth="no" name="13" />
   <point x="242" y="-73" type="offcurve" name="14" />
   <point x="161" y="69" type="offcurve" name="14" />
   <point x="161" y="254" type="curve" smooth="yes" name="15" />
   <point x="161" y="422" type="offcurve" name="14" />
   <point x="230" y="557" type="offcurve" name="14" />
   <point x="292" y="645" type="curve" smooth="no" name="13" />
  </contour>
 </outline>
</glyph>
<glyph name="parenright" format="1">
 <advance width="368" />
 <unicode hex="0029" />
 <outline>
  <contour>
   <point x="74" y="645" type="line" smooth="no" name="13" />
   <point x="136" y="557" type="offcurve" name="14" />
   <point x="205" y="422" type="offcurve" name="14" />
   <point x="205" y="254" type="curve" smooth="yes" name="15" />
   <point x="205" y="69" type="offcurve" name="14" />
   <point x="124" y="-73" type="offcurve" name="14" />
   <point x="74" y="-140" type="curve" smooth="no" name="13" />
   <point x="134" y="-140" type="line" smooth="no" name="13" />
   <point x="182" y="-92" type="offcurve" name="14" />
   <point x="275" y="63" type="offcurve" name="14" />
   <point x="275" y="254" type="curve" smooth="yes" name="15" />
   <point x="275" y="417" type="offcurve" name="14" />
   <point x="200" y="576" type="offcurve" name="14" />
   <point x="134" y="645" type="curve" smooth="no" name="13" />
  </contour>
 </outline>
</glyph>
<glyph name="asterisk" format="1">
 <advance width="332" />
 <unicode hex="002a" />
 <outline>
  <contour>
   <point x="164" y="646" type="line" smooth="no" name="13" />
   <point x="155" y="527" type="line" smooth="no" name="13" />
   <point x="71" y="608" type="line" smooth="no" name="13" />
   <point x="29" y="546" type="line" smooth="no" name="13" />
   <point x="140" y="502" type="line" smooth="no" name="13" />
   <point x="36" y="446" type="line" smooth="no" name="13" />
   <point x="83" y="387" type="line" smooth="no" name="13" />
   <point x="159" y="477" type="line" smooth="no" name="13" />
   <point x="181" y="364" type="line" smooth="no" name="13" />
   <point x="249" y="390" type="line" smooth="no" name="13" />
   <point x="187" y="490" type="line" smooth="no" name="13" />
   <point x="304" y="476" type="line" smooth="no" name="13" />
   <point x="298" y="548" type="line" smooth="no" name="13" />
   <point x="186" y="520" type="line" smooth="no" name="13" />
   <point x="237" y="625" type="line" smooth="no" name="13" />
  </contour>
 </outline>
</glyph>
<glyph name="plus" format="1">
 <advance width="518" />
 <unicode hex="002b" />
 <outline>
  <contour>
   <point x="228" y="200" type="line" smooth="no" name="13" />
   <point x="228" y="0" type="line" smooth="no" name="13" />
   <point x="290" y="0" type="line" smooth="no" name="13" />
   <point x="290" y="200" type="line" smooth="no" name="13" />
   <point x="476" y="200" type="line" smooth="no" name="13" />
   <point x="476" y="255" type="line" smooth="no" name="13" />
   <point x="290" y="255" type="line" smooth="no" name="13" />
   <point x="290" y="454" type="line" smooth="no" name="13" />
   <point x="228" y="454" type="line" smooth="no" name="13" />
   <point x="228" y="255" type="line" smooth="no" name="13" />
   <point x="42" y="255" type="line" smooth="no" name="13" />
   <point x="42" y="200" type="line" smooth="no" name="13" />
  </contour>
 </outline>
</glyph>
<glyph name="comma" format="1">
 <advance width="196" />
 <unicode hex="002c" />
 <outline>
  <contour>
   <point x="65" y="-74" type="curve" smooth="no" name="13" />
   <point x="76" y="-98" type="line" smooth="no" name="13" />
   <point x="119" y="-75" type="offcurve" name="14" />
   <point x="142" y="-38" type="offcurve" name="14" />
   <point x="142" y="9" type="curve" smooth="yes" name="15" />
   <point x="142" y="53" type="offcurve" name="14" />
   <point x="121" y="81" type="offcurve" name="14" />
   <point x="89" y="81" type="curve" smooth="yes" name="15" />
   <point x="64" y="81" type="offcurve" name="14" />
   <point x="45" y="62" type="offcurve" name="14" />
   <point x="45" y="37" type="curve" smooth="yes" name="15" />
   <point x="45" y="14" type="offcurve" name="14" />
   <point x="62" y="-6" type="offcurve" name="14" />
   <point x="83" y="-6" type="curve" smooth="yes" name="15" />
   <point x="90" y="-6" type="offcurve" name="14" />
   <point x="92" y="-5" type="offcurve" name="14" />
   <point x="101" y="1" type="curve" smooth="no" name="13" />
   <point x="103" y="-7" type="offcurve" name="14" />
   <point x="103" y="-7" type="offcurve" name="14" />
   <point x="103" y="-11" type="curve" smooth="yes" name="15" />
   <point x="103" y="-31" type="offcurve" name="14" />
   <point x="88" y="-55" type="offcurve" name="14" />
  </contour>
 </outline>
</glyph>
<glyph name="hyphen" format="1">
 <advance width="276" />
 <unicode hex="002d" />
 <outline>
  <contour>
   <point x="251" y="212" type="line" smooth="no" name="13" />
   <point x="251" y="267" type="line" smooth="no" name="13" />
   <point x="25" y="267" type="line" smooth="no" name="13" />
   <point x="25" y="212" type="line" smooth="no" name="13" />
  </contour>
 </outline>
</glyph>
<glyph name="period" format="1">
 <advance width="264" />
 <unicode hex="002e" />
 <outline>
  <contour>
   <point x="174" y="40" type="curve" smooth="yes" name="15" />
   <point x="174" y="64" type="offcurve" name="14" />
   <point x="160" y="80" type="offcurve" name="14" />
   <point x="133" y="80" type="curve" smooth="yes" name="15" />
   <point x="105" y="80" type="offcurve" name="14" />
   <point x="91" y="64" type="offcurve" name="14" />
   <point x="90" y="39" type="curve" smooth="yes" name="15" />
   <point x="90" y="13" type="offcurve" name="14" />
   <point x="104" y="-5" type="offcurve" name="14" />
   <point x="133" y="-5" type="curve" smooth="yes" name="15" />
   <point x="161" y="-5" type="offcurve" name="14" />
   <point x="174" y="12" type="offcurve" name="14" />
   <point x="174" y="38" type="curve" smooth="yes" name="15" />
   <point x="174" y="39" type="offcurve" name="14" />
   <point x="174" y="40" type="offcurve" name="14" />
  </contour>
 </outline>
</glyph>
<glyph name="slash" format="1">
 <advance width="327" />
 <unicode hex="002f" />
 <outline>
  <contour>
   <point x="354" y="633" type="line" smooth="no" name="13" />
   <point x="292" y="633" type="line" smooth="no" name="13" />
   <point x="-25" y="-30" type="line" smooth="no" name="13" />
   <point x="38" y="-30" type="line" smooth="no" name="13" />
  </contour>
 </outline>
</glyph>
<glyph name="zero" format="1">
 <advance width="552" />
 <unicode hex="0030" />
 <outline>
  <contour>
   <point x="502" y="315" type="curve" smooth="yes" name="15" />
   <point x="502" y="499" type="offcurve" name="14" />
   <point x="414" y="645" type="offcurve" name="14" />
   <point x="275" y="645" type="curve" smooth="yes" name="15" />
   <point x="135" y="645" type="offcurve" name="14" />
   <point x="48" y="499" type="offcurve" name="14" />
   <point x="48" y="315" type="curve" smooth="yes" name="15" />
   <point x="48" y="123" type="offcurve" name="14" />
   <point x="132" y="-12" type="offcurve" name="14" />
   <point x="275" y="-12" type="curve" smooth="yes" name="15" />
   <point x="417" y="-12" type="offcurve" name="14" />
   <point x="502" y="123" type="offcurve" name="14" />
  </contour>
  <contour>
   <point x="274" y="581" type="curve" smooth="yes" name="15" />
   <point x="371" y="581" type="offcurve" name="14" />
   <point x="423" y="478" type="offcurve" name="14" />
   <point x="423" y="321" type="curve" smooth="yes" name="15" />
   <point x="423" y="164" type="offcurve" name="14" />
   <point x="372" y="53" type="offcurve" name="14" />
   <point x="274" y="53" type="curve" smooth="yes" name="15" />
   <point x="177" y="53" type="offcurve" name="14" />
   <point x="127" y="164" type="offcurve" name="14" />
   <point x="127" y="321" type="curve" smooth="yes" name="15" />
   <point x="127" y="478" type="offcurve" name="14" />
   <point x="179" y="581" type="offcurve" name="14" />
  </contour>
 </outline>
</glyph>
<glyph name="one" format="1">
 <advance width="375" />
 <unicode hex="0031" />
 <outline>
  <contour>
   <point x="268" y="633" type="line" smooth="no" name="13" />
   <point x="194" y="633" type="line" smooth="no" name="13" />
   <point x="30" y="535" type="line" smooth="no" name="13" />
   <point x="67" y="482" type="line" smooth="no" name="13" />
   <point x="194" y="554" type="line" smooth="no" name="13" />
   <point x="194" y="0" type="line" smooth="no" name="13" />
   <point x="268" y="0" type="line" smooth="no" name="13" />
  </contour>
 </outline>
</glyph>
<glyph name="two" format="1">
 <advance width="480" />
 <unicode hex="0032" />
 <outline>
  <contour>
   <point x="50" y="0" type="line" smooth="no" name="13" />
   <point x="411" y="0" type="line" smooth="no" name="13" />
   <point x="411" y="63" type="line" smooth="no" name="13" />
   <point x="137" y="63" type="line" smooth="no" name="13" />
   <point x="288" y="231" type="line" smooth="yes" name="15" />
   <point x="367" y="319" type="offcurve" name="14" />
   <point x="423" y="387" type="offcurve" name="14" />
   <point x="423" y="472" type="curve" smooth="yes" name="15" />
   <point x="423" y="580" type="offcurve" name="14" />
   <point x="340" y="646" type="offcurve" name="14" />
   <point x="239" y="646" type="curve" smooth="yes" name="15" />
   <point x="176" y="646" type="offcurve" name="14" />
   <point x="122" y="629" type="offcurve" name="14" />
   <point x="61" y="583" type="curve" smooth="no" name="13" />
   <point x="92" y="539" type="line" smooth="no" name="13" />
   <point x="137" y="568" type="offcurve" name="14" />
   <point x="183" y="581" type="offcurve" name="14" />
   <point x="222" y="581" type="curve" smooth="yes" name="15" />
   <point x="301" y="581" type="offcurve" name="14" />
   <point x="344" y="533" type="offcurve" name="14" />
   <point x="344" y="472" type="curve" smooth="yes" name="15" />
   <point x="344" y="423" type="offcurve" name="14" />
   <point x="331" y="374" type="offcurve" name="14" />
   <point x="227" y="260" type="curve" smooth="yes" name="15" />
   <point x="50" y="66" type="line" smooth="no" name="13" />
  </contour>
 </outline>
</glyph>
<glyph name="three" format="1">
 <advance width="496" />
 <unicode hex="0033" />
 <outline>
  <contour>
   <point x="85" y="538" type="line" smooth="no" name="13" />
   <point x="127" y="566" type="offcurve" name="14" />
   <point x="170" y="582" type="offcurve" name="14" />
   <point x="212" y="582" type="curve" smooth="yes" name="15" />
   <point x="287" y="582" type="offcurve" name="14" />
   <point x="329" y="543" type="offcurve" name="14" />
   <point x="329" y="477" type="curve" smooth="yes" name="15" />
   <point x="329" y="393" type="offcurve" name="14" />
   <point x="262" y="368" type="offcurve" name="14" />
   <point x="208" y="368" type="curve" smooth="yes" name="15" />
   <point x="126" y="368" type="line" smooth="no" name="13" />
   <point x="126" y="305" type="line" smooth="no" name="13" />
   <point x="208" y="305" type="line" smooth="yes" name="15" />
   <point x="297" y="305" type="offcurve" name="14" />
   <point x="355" y="273" type="offcurve" name="14" />
   <point x="355" y="182" type="curve" smooth="yes" name="15" />
   <point x="355" y="97" type="offcurve" name="14" />
   <point x="290" y="54" type="offcurve" name="14" />
   <point x="217" y="54" type="curve" smooth="yes" name="15" />
   <point x="154" y="54" type="offcurve" name="14" />
   <point x="107" y="78" type="offcurve" name="14" />
   <point x="79" y="98" type="curve" smooth="no" name="13" />
   <point x="47" y="55" type="line" smooth="no" name="13" />
   <point x="84" y="26" type="offcurve" name="14" />
   <point x="141" y="-11" type="offcurve" name="14" />
   <point x="226" y="-11" type="curve" smooth="yes" name="15" />
   <point x="323" y="-11" type="offcurve" name="14" />
   <point x="434" y="44" type="offcurve" name="14" />
   <point x="434" y="181" type="curve" smooth="yes" name="15" />
   <point x="434" y="270" type="offcurve" name="14" />
   <point x="375" y="326" type="offcurve" name="14" />
   <point x="299" y="343" type="curve" smooth="no" name="13" />
   <point x="353" y="356" type="offcurve" name="14" />
   <point x="408" y="405" type="offcurve" name="14" />
   <point x="408" y="482" type="curve" smooth="yes" name="15" />
   <point x="408" y="587" type="offcurve" name="14" />
   <point x="320" y="645" type="offcurve" name="14" />
   <point x="225" y="645" type="curve" smooth="yes" name="15" />
   <point x="156" y="645" type="offcurve" name="14" />
   <point x="97" y="620" type="offcurve" name="14" />
   <point x="55" y="582" type="curve" smooth="no" name="13" />
  </contour>
 </outline>
</glyph>
<glyph name="four" format="1">
 <advance width="553" />
 <unicode hex="0034" />
 <outline>
  <contour>
   <point x="35" y="198" type="line" smooth="no" name="13" />
   <point x="35" y="135" type="line" smooth="no" name="13" />
   <point x="324" y="135" type="line" smooth="no" name="13" />
   <point x="324" y="0" type="line" smooth="no" name="13" />
   <point x="397" y="0" type="line" smooth="no" name="13" />
   <point x="397" y="135" type="line" smooth="no" name="13" />
   <point x="513" y="135" type="line" smooth="no" name="13" />
   <point x="513" y="198" type="line" smooth="no" name="13" />
   <point x="397" y="198" type="line" smooth="no" name="13" />
   <point x="397" y="633" type="line" smooth="no" name="13" />
   <point x="319" y="633" type="line" smooth="no" name="13" />
  </contour>
  <contour>
   <point x="109" y="198" type="line" smooth="no" name="13" />
   <point x="324" y="531" type="line" smooth="no" name="13" />
   <point x="324" y="198" type="line" smooth="no" name="13" />
  </contour>
 </outline>
</glyph>
<glyph name="five" format="1">
 <advance width="515" />
 <unicode hex="0035" />
 <outline>
  <contour>
   <point x="410" y="570" type="line" smooth="no" name="13" />
   <point x="410" y="633" type="line" smooth="no" name="13" />
   <point x="94" y="633" type="line" smooth="no" name="13" />
   <point x="94" y="325" type="line" smooth="no" name="13" />
   <point x="137" y="333" type="offcurve" name="14" />
   <point x="179" y="338" type="offcurve" name="14" />
   <point x="216" y="338" type="curve" smooth="yes" name="15" />
   <point x="312" y="338" type="offcurve" name="14" />
   <point x="375" y="291" type="offcurve" name="14" />
   <point x="375" y="197" type="curve" smooth="yes" name="15" />
   <point x="375" y="101" type="offcurve" name="14" />
   <point x="315" y="54" type="offcurve" name="14" />
   <point x="228" y="54" type="curve" smooth="yes" name="15" />
   <point x="181" y="54" type="offcurve" name="14" />
   <point x="135" y="67" type="offcurve" name="14" />
   <point x="91" y="97" type="curve" smooth="no" name="13" />
   <point x="62" y="54" type="line" smooth="no" name="13" />
   <point x="118" y="6" type="offcurve" name="14" />
   <point x="183" y="-12" type="offcurve" name="14" />
   <point x="244" y="-12" type="curve" smooth="yes" name="15" />
   <point x="355" y="-12" type="offcurve" name="14" />
   <point x="453" y="71" type="offcurve" name="14" />
   <point x="453" y="198" type="curve" smooth="yes" name="15" />
   <point x="453" y="333" type="offcurve" name="14" />
   <point x="358" y="397" type="offcurve" name="14" />
   <point x="238" y="397" type="curve" smooth="yes" name="15" />
   <point x="219" y="397" type="offcurve" name="14" />
   <point x="186" y="395" type="offcurve" name="14" />
   <point x="168" y="392" type="curve" smooth="no" name="13" />
   <point x="168" y="570" type="line" smooth="no" name="13" />
  </contour>
 </outline>
</glyph>
<glyph name="six" format="1">
 <advance width="523" />
 <unicode hex="0036" />
 <outline>
  <contour>
   <point x="438" y="595" type="line" smooth="no" name="13" />
   <point x="407" y="620" type="offcurve" name="14" />
   <point x="354" y="645" type="offcurve" name="14" />
   <point x="293" y="645" type="curve" smooth="yes" name="15" />
   <point x="150" y="645" type="offcurve" name="14" />
   <point x="62" y="504" type="offcurve" name="14" />
   <point x="62" y="294" type="curve" smooth="yes" name="15" />
   <point x="62" y="136" type="offcurve" name="14" />
   <point x="122" y="-12" type="offcurve" name="14" />
   <point x="268" y="-12" type="curve" smooth="yes" name="15" />
   <point x="392" y="-12" type="offcurve" name="14" />
   <point x="462" y="101" type="offcurve" name="14" />
   <point x="462" y="203" type="curve" smooth="yes" name="15" />
   <point x="462" y="362" type="offcurve" name="14" />
   <point x="352" y="412" type="offcurve" name="14" />
   <point x="271" y="412" type="curve" smooth="yes" name="15" />
   <point x="210" y="412" type="offcurve" name="14" />
   <point x="169" y="384" type="offcurve" name="14" />
   <point x="142" y="356" type="curve" smooth="no" name="13" />
   <point x="149" y="514" type="offcurve" name="14" />
   <point x="222" y="581" type="offcurve" name="14" />
   <point x="297" y="581" type="curve" smooth="yes" name="15" />
   <point x="339" y="581" type="offcurve" name="14" />
   <point x="381" y="569" type="offcurve" name="14" />
   <point x="412" y="553" type="curve" smooth="no" name="13" />
  </contour>
  <contour>
   <point x="138" y="287" type="curve" smooth="no" name="13" />
   <point x="159" y="317" type="offcurve" name="14" />
   <point x="201" y="353" type="offcurve" name="14" />
   <point x="258" y="353" type="curve" smooth="yes" name="15" />
   <point x="323" y="353" type="offcurve" name="14" />
   <point x="383" y="314" type="offcurve" name="14" />
   <point x="383" y="203" type="curve" smooth="yes" name="15" />
   <point x="383" y="114" type="offcurve" name="14" />
   <point x="339" y="51" type="offcurve" name="14" />
   <point x="267" y="51" type="curve" smooth="yes" name="15" />
   <point x="184" y="51" type="offcurve" name="14" />
   <point x="140" y="148" type="offcurve" name="14" />
  </contour>
 </outline>
</glyph>
<glyph name="seven" format="1">
 <advance width="423" />
 <unicode hex="0037" />
 <outline>
  <contour>
   <point x="42" y="570" type="line" smooth="no" name="13" />
   <point x="314" y="570" type="line" smooth="no" name="13" />
   <point x="66" y="0" type="line" smooth="no" name="13" />
   <point x="144" y="0" type="line" smooth="no" name="13" />
   <point x="388" y="565" type="line" smooth="no" name="13" />
   <point x="388" y="633" type="line" smooth="no" name="13" />
   <point x="42" y="633" type="line" smooth="no" name="13" />
  </contour>
 </outline>
</glyph>
<glyph name="eight" format="1">
 <advance width="536" />
 <unicode hex="0038" />
 <outline>
  <contour>
   <point x="196" y="339" type="curve" smooth="no" name="13" />
   <point x="138" y="325" type="offcurve" name="14" />
   <point x="62" y="271" type="offcurve" name="14" />
   <point x="62" y="171" type="curve" smooth="yes" name="15" />
   <point x="62" y="65" type="offcurve" name="14" />
   <point x="152" y="-12" type="offcurve" name="14" />
   <point x="266" y="-12" type="curve" smooth="yes" name="15" />
   <point x="382" y="-12" type="offcurve" name="14" />
   <point x="472" y="65" type="offcurve" name="14" />
   <point x="472" y="172" type="curve" smooth="yes" name="15" />
   <point x="472" y="271" type="offcurve" name="14" />
   <point x="401" y="320" type="offcurve" name="14" />
   <point x="341" y="338" type="curve" smooth="no" name="13" />
   <point x="401" y="359" type="offcurve" name="14" />
   <point x="455" y="408" type="offcurve" name="14" />
   <point x="455" y="479" type="curve" smooth="yes" name="15" />
   <point x="455" y="576" type="offcurve" name="14" />
   <point x="376" y="647" type="offcurve" name="14" />
   <point x="269" y="647" type="curve" smooth="yes" name="15" />
   <point x="156" y="647" type="offcurve" name="14" />
   <point x="83" y="575" type="offcurve" name="14" />
   <point x="83" y="481" type="curve" smooth="yes" name="15" />
   <point x="83" y="397" type="offcurve" name="14" />
   <point x="156" y="355" type="offcurve" name="14" />
  </contour>
  <contour>
   <point x="268" y="363" type="curve" smooth="no" name="13" />
   <point x="218" y="378" type="offcurve" name="14" />
   <point x="160" y="412" type="offcurve" name="14" />
   <point x="160" y="485" type="curve" smooth="yes" name="15" />
   <point x="160" y="545" type="offcurve" name="14" />
   <point x="203" y="583" type="offcurve" name="14" />
   <point x="269" y="583" type="curve" smooth="yes" name="15" />
   <point x="330" y="583" type="offcurve" name="14" />
   <point x="378" y="547" type="offcurve" name="14" />
   <point x="378" y="482" type="curve" smooth="yes" name="15" />
   <point x="378" y="420" type="offcurve" name="14" />
   <point x="330" y="378" type="offcurve" name="14" />
  </contour>
  <contour>
   <point x="266" y="314" type="curve" smooth="no" name="13" />
   <point x="328" y="307" type="offcurve" name="14" />
   <point x="393" y="257" type="offcurve" name="14" />
   <point x="393" y="173" type="curve" smooth="yes" name="15" />
   <point x="393" y="106" type="offcurve" name="14" />
   <point x="346" y="51" type="offcurve" name="14" />
   <point x="266" y="51" type="curve" smooth="yes" name="15" />
   <point x="189" y="51" type="offcurve" name="14" />
   <point x="141" y="106" type="offcurve" name="14" />
   <point x="141" y="174" type="curve" smooth="yes" name="15" />
   <point x="141" y="257" type="offcurve" name="14" />
   <point x="208" y="308" type="offcurve" name="14" />
  </contour>
 </outline>
</glyph>
<glyph name="nine" format="1">
 <advance width="523" />
 <unicode hex="0039" />
 <outline>
  <contour>
   <point x="91" y="39" type="line" smooth="no" name="13" />
   <point x="122" y="14" type="offcurve" name="14" />
   <point x="175" y="-12" type="offcurve" name="14" />
   <point x="236" y="-12" type="curve" smooth="yes" name="15" />
   <point x="379" y="-12" type="offcurve" name="14" />
   <point x="467" y="130" type="offcurve" name="14" />
   <point x="467" y="339" type="curve" smooth="yes" name="15" />
   <point x="467" y="497" type="offcurve" name="14" />
   <point x="407" y="645" type="offcurve" name="14" />
   <point x="261" y="645" type="curve" smooth="yes" name="15" />
   <point x="137" y="645" type="offcurve" name="14" />
   <point x="67" y="532" type="offcurve" name="14" />
   <point x="67" y="430" type="curve" smooth="yes" name="15" />
   <point x="67" y="271" type="offcurve" name="14" />
   <point x="177" y="221" type="offcurve" name="14" />
   <point x="258" y="221" type="curve" smooth="yes" name="15" />
   <point x="319" y="221" type="offcurve" name="14" />
   <point x="360" y="249" type="offcurve" name="14" />
   <point x="387" y="277" type="curve" smooth="no" name="13" />
   <point x="380" y="120" type="offcurve" name="14" />
   <point x="307" y="53" type="offcurve" name="14" />
   <point x="232" y="53" type="curve" smooth="yes" name="15" />
   <point x="190" y="53" type="offcurve" name="14" />
   <point x="148" y="64" type="offcurve" name="14" />
   <point x="117" y="81" type="curve" smooth="no" name="13" />
  </contour>
  <contour>
   <point x="391" y="347" type="curve" smooth="no" name="13" />
   <point x="370" y="316" type="offcurve" name="14" />
   <point x="328" y="280" type="offcurve" name="14" />
   <point x="271" y="280" type="curve" smooth="yes" name="15" />
   <point x="206" y="280" type="offcurve" name="14" />
   <point x="146" y="319" type="offcurve" name="14" />
   <point x="146" y="430" type="curve" smooth="yes" name="15" />
   <point x="146" y="520" type="offcurve" name="14" />
   <point x="190" y="583" type="offcurve" name="14" />
   <point x="262" y="583" type="curve" smooth="yes" name="15" />
   <point x="345" y="583" type="offcurve" name="14" />
   <point x="389" y="485" type="offcurve" name="14" />
  </contour>
 </outline>
</glyph>
<glyph name="colon" format="1">
 <advance width="224" />
 <unicode hex="003a" />
 <outline>
  <contour>
   <point x="174" y="280" type="curve" smooth="yes" name="15" />
   <point x="174" y="304" type="offcurve" name="14" />
   <point x="160" y="320" type="offcurve" name="14" />
   <point x="133" y="320" type="curve" smooth="yes" name="15" />
   <point x="105" y="320" type="offcurve" name="14" />
   <point x="91" y="304" type="offcurve" name="14" />
   <point x="90" y="279" type="curve" smooth="yes" name="15" />
   <point x="90" y="253" type="offcurve" name="14" />
   <point x="104" y="235" type="offcurve" name="14" />
   <point x="133" y="235" type="curve" smooth="yes" name="15" />
   <point x="161" y="235" type="offcurve" name="14" />
   <point x="174" y="252" type="offcurve" name="14" />
   <point x="174" y="278" type="curve" smooth="yes" name="15" />
   <point x="174" y="279" type="offcurve" name="14" />
   <point x="174" y="280" type="offcurve" name="14" />
  </contour>
  <contour>
   <point x="174" y="40" type="curve" smooth="yes" name="15" />
   <point x="174" y="64" type="offcurve" name="14" />
   <point x="160" y="80" type="offcurve" name="14" />
   <point x="133" y="80" type="curve" smooth="yes" name="15" />
   <point x="105" y="80" type="offcurve" name="14" />
   <point x="91" y="64" type="offcurve" name="14" />
   <point x="90" y="39" type="curve" smooth="yes" name="15" />
   <point x="90" y="13" type="offcurve" name="14" />
   <point x="104" y="-5" type="offcurve" name="14" />
   <point x="133" y="-5" type="curve" smooth="yes" name="15" />
   <point x="161" y="-5" type="offcurve" name="14" />
   <point x="174" y="12" type="offcurve" name="14" />
   <point x="174" y="38" type="curve" smooth="yes" name="15" />
   <point x="174" y="39" type="offcurve" name="14" />
   <point x="174" y="40" type="offcurve" name="14" />
  </contour>
 </outline>
</glyph>
<glyph name="semicolon" format="1">
 <advance width="186" />
 <unicode hex="003b" />
 <outline>
  <contour>
   <point x="65" y="-74" type="curve" smooth="no" name="13" />
   <point x="76" y="-98" type="line" smooth="no" name="13" />
   <point x="119" y="-75" type="offcurve" name="14" />
   <point x="142" y="-38" type="offcurve" name="14" />
   <point x="142" y="9" type="curve" smooth="yes" name="15" />
   <point x="142" y="53" type="offcurve" name="14" />
   <point x="121" y="81" type="offcurve" name="14" />
   <point x="89" y="81" type="curve" smooth="yes" name="15" />
   <point x="64" y="81" type="offcurve" name="14" />
   <point x="45" y="62" type="offcurve" name="14" />
   <point x="45" y="37" type="curve" smooth="yes" name="15" />
   <point x="45" y="14" type="offcurve" name="14" />
   <point x="62" y="-6" type="offcurve" name="14" />
   <point x="83" y="-6" type="curve" smooth="yes" name="15" />
   <point x="90" y="-6" type="offcurve" name="14" />
   <point x="92" y="-5" type="offcurve" name="14" />
   <point x="101" y="1" type="curve" smooth="no" name="13" />
   <point x="102" y="-7" type="offcurve" name="14" />
   <point x="102" y="-7" type="offcurve" name="14" />
   <point x="102" y="-11" type="curve" smooth="yes" name="15" />
   <point x="102" y="-31" type="offcurve" name="14" />
   <point x="88" y="-55" type="offcurve" name="14" />
  </contour>
  <contour>
   <point x="86" y="230" type="curve" smooth="no" name="13" />
   <point x="115" y="231" type="offcurve" name="14" />
   <point x="132" y="249" type="offcurve" name="14" />
   <point x="132" y="276" type="curve" smooth="yes" name="15" />
   <point x="132" y="301" type="offcurve" name="14" />
   <point x="112" y="320" type="offcurve" name="14" />
   <point x="86" y="320" type="curve" smooth="yes" name="15" />
   <point x="62" y="320" type="offcurve" name="14" />
   <point x="42" y="300" type="offcurve" name="14" />
   <point x="42" y="276" type="curve" smooth="yes" name="15" />
   <point x="42" y="250" type="offcurve" name="14" />
   <point x="59" y="232" type="offcurve" name="14" />
  </contour>
 </outline>
</glyph>
<glyph name="less" format="1">
 <advance width="517" />
 <unicode hex="003c" />
 <outline>
  <contour>
   <point x="466" y="416" type="line" smooth="no" name="13" />
   <point x="466" y="477" type="line" smooth="no" name="13" />
   <point x="42" y="279" type="line" smooth="no" name="13" />
   <point x="42" y="202" type="line" smooth="no" name="13" />
   <point x="466" y="-12" type="line" smooth="no" name="13" />
   <point x="466" y="48" type="line" smooth="no" name="13" />
   <point x="88" y="240" type="line" smooth="no" name="13" />
  </contour>
 </outline>
</glyph>
<glyph name="equal" format="1">
 <advance width="509" />
 <unicode hex="003d" />
 <outline>
  <contour>
   <point x="467" y="272" type="line" smooth="no" name="13" />
   <point x="467" y="327" type="line" smooth="no" name="13" />
   <point x="42" y="327" type="line" smooth="no" name="13" />
   <point x="42" y="272" type="line" smooth="no" name="13" />
  </contour>
  <contour>
   <point x="467" y="127" type="line" smooth="no" name="13" />
   <point x="467" y="182" type="line" smooth="no" name="13" />
   <point x="42" y="182" type="line" smooth="no" name="13" />
   <point x="42" y="127" type="line" smooth="no" name="13" />
  </contour>
 </outline>
</glyph>
<glyph name="greater" format="1">
 <advance width="517" />
 <unicode hex="003e" />
 <outline>
  <contour>
   <point x="430" y="240" type="line" smooth="no" name="13" />
   <point x="52" y="48" type="line" smooth="no" name="13" />
   <point x="52" y="-13" type="line" smooth="no" name="13" />
   <point x="476" y="201" type="line" smooth="no" name="13" />
   <point x="476" y="278" type="line" smooth="no" name="13" />
   <point x="52" y="477" type="line" smooth="no" name="13" />
   <point x="52" y="416" type="line" smooth="no" name="13" />
  </contour>
 </outline>
</glyph>
<glyph name="question" format="1">
 <advance width="386" />
 <unicode hex="003f" />
 <outline>
  <contour>
   <point x="186" y="145" type="line" smooth="no" name="13" />
   <point x="186" y="219" type="line" smooth="yes" name="15" />
   <point x="186" y="272" type="offcurve" name="14" />
   <point x="200" y="284" type="offcurve" name="14" />
   <point x="239" y="316" type="curve" smooth="yes" name="15" />
   <point x="244" y="320" type="offcurve" name="14" />
   <point x="250" y="325" type="offcurve" name="14" />
   <point x="256" y="330" type="curve" smooth="yes" name="15" />
   <point x="301" y="368" type="offcurve" name="14" />
   <point x="339" y="427" type="offcurve" name="14" />
   <point x="339" y="494" type="curve" smooth="yes" name="15" />
   <point x="339" y="577" type="offcurve" name="14" />
   <point x="284" y="645" type="offcurve" name="14" />
   <point x="187" y="645" type="curve" smooth="yes" name="15" />
   <point x="134" y="645" type="offcurve" name="14" />
   <point x="87" y="629" type="offcurve" name="14" />
   <point x="42" y="596" type="curve" smooth="no" name="13" />
   <point x="65" y="556" type="line" smooth="no" name="13" />
   <point x="98" y="574" type="offcurve" name="14" />
   <point x="137" y="585" type="offcurve" name="14" />
   <point x="168" y="585" type="curve" smooth="yes" name="15" />
   <point x="224" y="585" type="offcurve" name="14" />
   <point x="269" y="553" type="offcurve" name="14" />
   <point x="269" y="485" type="curve" smooth="yes" name="15" />
   <point x="269" y="438" type="offcurve" name="14" />
   <point x="246" y="396" type="offcurve" name="14" />
   <point x="180" y="343" type="curve" smooth="yes" name="15" />
   <point x="128" y="301" type="offcurve" name="14" />
   <point x="118" y="286" type="offcurve" name="14" />
   <point x="118" y="231" type="curve" smooth="yes" name="15" />
   <point x="118" y="145" type="line" smooth="no" name="13" />
  </contour>
  <contour>
   <point x="152" y="-12" type="curve" smooth="yes" name="15" />
   <point x="180" y="-12" type="offcurve" name="14" />
   <point x="201" y="9" type="offcurve" name="14" />
   <point x="201" y="38" type="curve" smooth="yes" name="15" />
   <point x="201" y="63" type="offcurve" name="14" />
   <point x="180" y="85" type="offcurve" name="14" />
   <point x="152" y="85" type="curve" smooth="yes" name="15" />
   <point x="126" y="85" type="offcurve" name="14" />
   <point x="105" y="63" type="offcurve" name="14" />
   <point x="105" y="38" type="curve" smooth="yes" name="15" />
   <point x="105" y="9" type="offcurve" name="14" />
   <point x="126" y="-12" type="offcurve" name="14" />
  </contour>
 </outline>
</glyph>
<glyph name="at" format="1">
 <advance width="698" />
 <unicode hex="0040" />
 <outline>
  <contour>
   <point x="430" y="49" type="curve" smooth="no" name="13" />
   <point x="439" y="14" type="offcurve" name="14" />
   <point x="474" y="-12" type="offcurve" name="14" />
   <point x="515" y="-12" type="curve" smooth="yes" name="15" />
   <point x="622" y="-12" type="offcurve" name="14" />
   <point x="650" y="107" type="offcurve" name="14" />
   <point x="650" y="175" type="curve" smooth="yes" name="15" />
   <point x="650" y="361" type="offcurve" name="14" />
   <point x="509" y="466" type="offcurve" name="14" />
   <point x="359" y="466" type="curve" smooth="yes" name="15" />
   <point x="189" y="466" type="offcurve" name="14" />
   <point x="48" y="345" type="offcurve" name="14" />
   <point x="48" y="142" type="curve" smooth="yes" name="15" />
   <point x="48" y="-73" type="offcurve" name="14" />
   <point x="215" y="-174" type="offcurve" name="14" />
   <point x="370" y="-174" type="curve" smooth="yes" name="15" />
   <point x="379" y="-174" type="offcurve" name="14" />
   <point x="388" y="-174" type="offcurve" name="14" />
   <point x="397" y="-173" type="curve" smooth="yes" name="15" />
   <point x="410" y="-172" type="line" smooth="no" name="13" />
   <point x="410" y="-124" type="line" smooth="no" name="13" />
   <point x="396" y="-126" type="line" smooth="yes" name="15" />
   <point x="387" y="-127" type="offcurve" name="14" />
   <point x="378" y="-127" type="offcurve" name="14" />
   <point x="369" y="-127" type="curve" smooth="yes" name="15" />
   <point x="250" y="-127" type="offcurve" name="14" />
   <point x="106" y="-55" type="offcurve" name="14" />
   <point x="106" y="145" type="curve" smooth="yes" name="15" />
   <point x="106" y="322" type="offcurve" name="14" />
   <point x="223" y="416" type="offcurve" name="14" />
   <point x="359" y="416" type="curve" smooth="yes" name="15" />
   <point x="467" y="416" type="offcurve" name="14" />
   <point x="594" y="344" type="offcurve" name="14" />
   <point x="594" y="175" type="curve" smooth="yes" name="15" />
   <point x="594" y="87" type="offcurve" name="14" />
   <point x="566" y="35" type="offcurve" name="14" />
   <point x="523" y="35" type="curve" smooth="yes" name="15" />
   <point x="493" y="35" type="offcurve" name="14" />
   <point x="474" y="51" type="offcurve" name="14" />
   <point x="474" y="107" type="curve" smooth="yes" name="15" />
   <point x="474" y="292" type="line" smooth="no" name="13" />
   <point x="430" y="292" type="line" smooth="no" name="13" />
   <point x="420" y="265" type="line" smooth="no" name="13" />
   <point x="398" y="281" type="offcurve" name="14" />
   <point x="368" y="291" type="offcurve" name="14" />
   <point x="340" y="291" type="curve" smooth="yes" name="15" />
   <point x="268" y="291" type="offcurve" name="14" />
   <point x="204" y="233" type="offcurve" name="14" />
   <point x="204" y="130" type="curve" smooth="yes" name="15" />
   <point x="204" y="53" type="offcurve" name="14" />
   <point x="250" y="-12" type="offcurve" name="14" />
   <point x="328" y="-12" type="curve" smooth="yes" name="15" />
   <point x="373" y="-12" type="offcurve" name="14" />
   <point x="413" y="13" type="offcurve" name="14" />
  </contour>
  <contour>
   <point x="416" y="218" type="curve" smooth="no" name="13" />
   <point x="416" y="142" type="line" smooth="yes" name="15" />
   <point x="416" y="72" type="offcurve" name="14" />
   <point x="389" y="38" type="offcurve" name="14" />
   <point x="341" y="38" type="curve" smooth="yes" name="15" />
   <point x="291" y="38" type="offcurve" name="14" />
   <point x="266" y="75" type="offcurve" name="14" />
   <point x="266" y="139" type="curve" smooth="yes" name="15" />
   <point x="266" y="213" type="offcurve" name="14" />
   <point x="301" y="243" type="offcurve" name="14" />
   <point x="345" y="243" type="curve" smooth="yes" name="15" />
   <point x="360" y="243" type="offcurve" name="14" />
   <point x="394" y="238" type="offcurve" name="14" />
  </contour>
 </outline>
</glyph>
<glyph name="A" format="1">
 <advance width="561" />
 <unicode hex="0041" />
 <outline>
  <contour>
   <point x="242" y="633" type="line" smooth="no" name="13" />
   <point x="15" y="0" type="line" smooth="no" name="13" />
   <point x="92" y="0" type="line" smooth="no" name="13" />
   <point x="144" y="148" type="line" smooth="no" name="13" />
   <point x="419" y="148" type="line" smooth="no" name="13" />
   <point x="470" y="0" type="line" smooth="no" name="13" />
   <point x="546" y="0" type="line" smooth="no" name="13" />
   <point x="319" y="633" type="line" smooth="no" name="13" />
  </contour>
  <contour>
   <point x="280" y="550" type="line" smooth="no" name="13" />
   <point x="397" y="210" type="line" smooth="no" name="13" />
   <point x="164" y="210" type="line" smooth="no" name="13" />
  </contour>
 </outline>
</glyph>
<glyph name="B" format="1">
 <advance width="536" />
 <unicode hex="0042" />
 <outline>
  <contour>
   <point x="90" y="1" type="line" smooth="no" name="13" />
   <point x="126" y="-4" type="offcurve" name="14" />
   <point x="202" y="-12" type="offcurve" name="14" />
   <point x="253" y="-12" type="curve" smooth="yes" name="15" />
   <point x="397" y="-12" type="offcurve" name="14" />
   <point x="486" y="53" type="offcurve" name="14" />
   <point x="486" y="167" type="curve" smooth="yes" name="15" />
   <point x="486" y="263" type="offcurve" name="14" />
   <point x="433" y="325" type="offcurve" name="14" />
   <point x="355" y="337" type="curve" smooth="no" name="13" />
   <point x="355" y="338" type="line" smooth="no" name="13" />
   <point x="405" y="350" type="offcurve" name="14" />
   <point x="466" y="392" type="offcurve" name="14" />
   <point x="466" y="474" type="curve" smooth="yes" name="15" />
   <point x="466" y="572" type="offcurve" name="14" />
   <point x="405" y="645" type="offcurve" name="14" />
   <point x="253" y="645" type="curve" smooth="yes" name="15" />
   <point x="197" y="645" type="offcurve" name="14" />
   <point x="119" y="637" type="offcurve" name="14" />
   <point x="90" y="633" type="curve" smooth="no" name="13" />
  </contour>
  <contour>
   <point x="164" y="579" type="line" smooth="no" name="13" />
   <point x="180" y="582" type="offcurve" name="14" />
   <point x="218" y="586" type="offcurve" name="14" />
   <point x="251" y="586" type="curve" smooth="yes" name="15" />
   <point x="356" y="586" type="offcurve" name="14" />
   <point x="389" y="534" type="offcurve" name="14" />
   <point x="389" y="467" type="curve" smooth="yes" name="15" />
   <point x="389" y="406" type="offcurve" name="14" />
   <point x="341" y="366" type="offcurve" name="14" />
   <point x="268" y="366" type="curve" smooth="yes" name="15" />
   <point x="164" y="366" type="line" smooth="no" name="13" />
  </contour>
  <contour>
   <point x="164" y="304" type="line" smooth="no" name="13" />
   <point x="268" y="304" type="line" smooth="yes" name="15" />
   <point x="358" y="304" type="offcurve" name="14" />
   <point x="407" y="252" type="offcurve" name="14" />
   <point x="407" y="168" type="curve" smooth="yes" name="15" />
   <point x="407" y="89" type="offcurve" name="14" />
   <point x="357" y="48" type="offcurve" name="14" />
   <point x="262" y="48" type="curve" smooth="yes" name="15" />
   <point x="228" y="48" type="offcurve" name="14" />
   <point x="197" y="49" type="offcurve" name="14" />
   <point x="164" y="54" type="curve" smooth="no" name="13" />
  </contour>
 </outline>
</glyph>
<glyph name="C" format="1">
 <advance width="556" />
 <unicode hex="0043" />
 <outline>
  <contour>
   <point x="498" y="582" type="line" smooth="no" name="13" />
   <point x="443" y="626" type="offcurve" name="14" />
   <point x="387" y="645" type="offcurve" name="14" />
   <point x="317" y="645" type="curve" smooth="yes" name="15" />
   <point x="144" y="645" type="offcurve" name="14" />
   <point x="50" y="475" type="offcurve" name="14" />
   <point x="50" y="310" type="curve" smooth="yes" name="15" />
   <point x="50" y="131" type="offcurve" name="14" />
   <point x="154" y="-12" type="offcurve" name="14" />
   <point x="329" y="-12" type="curve" smooth="yes" name="15" />
   <point x="398" y="-12" type="offcurve" name="14" />
   <point x="461" y="17" type="offcurve" name="14" />
   <point x="506" y="56" type="curve" smooth="no" name="13" />
   <point x="476" y="101" type="line" smooth="no" name="13" />
   <point x="443" y="77" type="offcurve" name="14" />
   <point x="394" y="54" type="offcurve" name="14" />
   <point x="339" y="54" type="curve" smooth="yes" name="15" />
   <point x="214" y="54" type="offcurve" name="14" />
   <point x="129" y="154" type="offcurve" name="14" />
   <point x="129" y="310" type="curve" smooth="yes" name="15" />
   <point x="129" y="487" type="offcurve" name="14" />
   <point x="216" y="581" type="offcurve" name="14" />
   <point x="331" y="581" type="curve" smooth="yes" name="15" />
   <point x="389" y="581" type="offcurve" name="14" />
   <point x="431" y="562" type="offcurve" name="14" />
   <point x="468" y="539" type="curve" smooth="no" name="13" />
  </contour>
 </outline>
</glyph>
<glyph name="D" format="1">
 <advance width="615" />
 <unicode hex="0044" />
 <outline>
  <contour>
   <point x="90" y="1" type="line" smooth="no" name="13" />
   <point x="121" y="-4" type="offcurve" name="14" />
   <point x="204" y="-12" type="offcurve" name="14" />
   <point x="247" y="-12" type="curve" smooth="yes" name="15" />
   <point x="453" y="-12" type="offcurve" name="14" />
   <point x="565" y="114" type="offcurve" name="14" />
   <point x="565" y="323" type="curve" smooth="yes" name="15" />
   <point x="565" y="521" type="offcurve" name="14" />
   <point x="446" y="645" type="offcurve" name="14" />
   <point x="242" y="645" type="curve" smooth="yes" name="15" />
   <point x="193" y="645" type="offcurve" name="14" />
   <point x="117" y="637" type="offcurve" name="14" />
   <point x="90" y="633" type="curve" smooth="no" name="13" />
  </contour>
  <contour>
   <point x="164" y="579" type="line" smooth="no" name="13" />
   <point x="182" y="583" type="offcurve" name="14" />
   <point x="220" y="586" type="offcurve" name="14" />
   <point x="244" y="586" type="curve" smooth="yes" name="15" />
   <point x="381" y="586" type="offcurve" name="14" />
   <point x="486" y="494" type="offcurve" name="14" />
   <point x="486" y="319" type="curve" smooth="yes" name="15" />
   <point x="486" y="137" type="offcurve" name="14" />
   <point x="392" y="48" type="offcurve" name="14" />
   <point x="247" y="48" type="curve" smooth="yes" name="15" />
   <point x="220" y="48" type="offcurve" name="14" />
   <point x="181" y="51" type="offcurve" name="14" />
   <point x="164" y="54" type="curve" smooth="no" name="13" />
  </contour>
 </outline>
</glyph>
<glyph name="E" format="1">
 <advance width="526" />
 <unicode hex="0045" />
 <outline>
  <contour>
   <point x="86" y="633" type="line" smooth="no" name="13" />
   <point x="86" y="0" type="line" smooth="no" name="13" />
   <point x="471" y="0" type="line" smooth="no" name="13" />
   <point x="471" y="63" type="line" smooth="no" name="13" />
   <point x="160" y="63" type="line" smooth="no" name="13" />
   <point x="160" y="298" type="line" smooth="no" name="13" />
   <point x="411" y="298" type="line" smooth="no" name="13" />
   <point x="411" y="361" type="line" smooth="no" name="13" />
   <point x="160" y="361" type="line" smooth="no" name="13" />
   <point x="160" y="570" type="line" smooth="no" name="13" />
   <point x="458" y="570" type="line" smooth="no" name="13" />
   <point x="458" y="633" type="line" smooth="no" name="13" />
  </contour>
 </outline>
</glyph>
<glyph name="F" format="1">
 <advance width="513" />
 <unicode hex="0046" />
 <outline>
  <contour>
   <point x="86" y="0" type="line" smooth="no" name="13" />
   <point x="160" y="0" type="line" smooth="no" name="13" />
   <point x="160" y="297" type="line" smooth="no" name="13" />
   <point x="411" y="297" type="line" smooth="no" name="13" />
   <point x="411" y="360" type="line" smooth="no" name="13" />
   <point x="160" y="360" type="line" smooth="no" name="13" />
   <point x="160" y="570" type="line" smooth="no" name="13" />
   <point x="458" y="570" type="line" smooth="no" name="13" />
   <point x="458" y="633" type="line" smooth="no" name="13" />
   <point x="86" y="633" type="line" smooth="no" name="13" />
  </contour>
 </outline>
</glyph>
<glyph name="G" format="1">
 <advance width="594" />
 <unicode hex="0047" />
 <outline>
  <contour>
   <point x="498" y="582" type="line" smooth="no" name="13" />
   <point x="438" y="631" type="offcurve" name="14" />
   <point x="376" y="645" type="offcurve" name="14" />
   <point x="320" y="645" type="curve" smooth="yes" name="15" />
   <point x="142" y="645" type="offcurve" name="14" />
   <point x="50" y="474" type="offcurve" name="14" />
   <point x="50" y="315" type="curve" smooth="yes" name="15" />
   <point x="50" y="150" type="offcurve" name="14" />
   <point x="134" y="-12" type="offcurve" name="14" />
   <point x="323" y="-12" type="curve" smooth="yes" name="15" />
   <point x="399" y="-12" type="offcurve" name="14" />
   <point x="475" y="15" type="offcurve" name="14" />
   <point x="525" y="45" type="curve" smooth="no" name="13" />
   <point x="525" y="336" type="line" smooth="no" name="13" />
   <point x="339" y="336" type="line" smooth="no" name="13" />
   <point x="339" y="271" type="line" smooth="no" name="13" />
   <point x="452" y="271" type="line" smooth="no" name="13" />
   <point x="452" y="77" type="line" smooth="no" name="13" />
   <point x="419" y="63" type="offcurve" name="14" />
   <point x="374" y="53" type="offcurve" name="14" />
   <point x="332" y="53" type="curve" smooth="yes" name="15" />
   <point x="210" y="53" type="offcurve" name="14" />
   <point x="129" y="151" type="offcurve" name="14" />
   <point x="129" y="311" type="curve" smooth="yes" name="15" />
   <point x="129" y="489" type="offcurve" name="14" />
   <point x="221" y="581" type="offcurve" name="14" />
   <point x="328" y="581" type="curve" smooth="yes" name="15" />
   <point x="390" y="581" type="offcurve" name="14" />
   <point x="431" y="562" type="offcurve" name="14" />
   <point x="468" y="539" type="curve" smooth="no" name="13" />
  </contour>
 </outline>
</glyph>
<glyph name="H" format="1">
 <advance width="649" />
 <unicode hex="0048" />
 <outline>
  <contour>
   <point x="164" y="0" type="line" smooth="no" name="13" />
   <point x="164" y="298" type="line" smooth="no" name="13" />
   <point x="485" y="298" type="line" smooth="no" name="13" />
   <point x="485" y="0" type="line" smooth="no" name="13" />
   <point x="559" y="0" type="line" smooth="no" name="13" />
   <point x="559" y="633" type="line" smooth="no" name="13" />
   <point x="485" y="633" type="line" smooth="no" name="13" />
   <point x="485" y="361" type="line" smooth="no" name="13" />
   <point x="164" y="361" type="line" smooth="no" name="13" />
   <point x="164" y="633" type="line" smooth="no" name="13" />
   <point x="90" y="633" type="line" smooth="no" name="13" />
   <point x="90" y="0" type="line" smooth="no" name="13" />
  </contour>
 </outline>
</glyph>
<glyph name="J" format="1">
 <advance width="238" />
 <unicode hex="004a" />
 <outline>
  <contour>
   <point x="148" y="633" type="line" smooth="no" name="13" />
   <point x="74" y="633" type="line" smooth="no" name="13" />
   <point x="74" y="-30" type="line" smooth="yes" name="15" />
   <point x="74" y="-95" type="offcurve" name="14" />
   <point x="43" y="-110" type="offcurve" name="14" />
   <point x="12" y="-110" type="curve" smooth="yes" name="15" />
   <point x="-8" y="-110" type="offcurve" name="14" />
   <point x="-37" y="-102" type="offcurve" name="14" />
   <point x="-59" y="-90" type="curve" smooth="no" name="13" />
   <point x="-85" y="-129" type="line" smooth="no" name="13" />
   <point x="-56" y="-148" type="offcurve" name="14" />
   <point x="-12" y="-168" type="offcurve" name="14" />
   <point x="32" y="-168" type="curve" smooth="yes" name="15" />
   <point x="112" y="-168" type="offcurve" name="14" />
   <point x="148" y="-114" type="offcurve" name="14" />
   <point x="148" y="-37" type="curve" smooth="yes" name="15" />
  </contour>
 </outline>
</glyph>
<glyph name="K" format="1">
 <advance width="517" />
 <unicode hex="004b" />
 <outline>
  <contour>
   <point x="90" y="0" type="line" smooth="no" name="13" />
   <point x="163" y="0" type="line" smooth="no" name="13" />
   <point x="163" y="314" type="line" smooth="no" name="13" />
   <point x="163" y="313" type="line" smooth="no" name="13" />
   <point x="401" y="0" type="line" smooth="no" name="13" />
   <point x="496" y="0" type="line" smooth="no" name="13" />
   <point x="234" y="335" type="line" smooth="no" name="13" />
   <point x="486" y="633" type="line" smooth="no" name="13" />
   <point x="397" y="633" type="line" smooth="no" name="13" />
   <point x="163" y="354" type="line" smooth="no" name="13" />
   <point x="163" y="354" type="line" smooth="no" name="13" />
   <point x="163" y="633" type="line" smooth="no" name="13" />
   <point x="90" y="633" type="line" smooth="no" name="13" />
  </contour>
 </outline>
</glyph>
<glyph name="L" format="1">
 <advance width="468" />
 <unicode hex="004c" />
 <outline>
  <contour>
   <point x="90" y="0" type="line" smooth="no" name="13" />
   <point x="413" y="0" type="line" smooth="no" name="13" />
   <point x="413" y="63" type="line" smooth="no" name="13" />
   <point x="164" y="63" type="line" smooth="no" name="13" />
   <point x="164" y="633" type="line" smooth="no" name="13" />
   <point x="90" y="633" type="line" smooth="no" name="13" />
  </contour>
 </outline>
</glyph>
<glyph name="M" format="1">
 <advance width="772" />
 <unicode hex="004d" />
 <outline>
  <contour>
   <point x="164" y="526" type="line" smooth="no" name="13" />
   <point x="198" y="411" type="offcurve" name="14" />
   <point x="296" y="140" type="offcurve" name="14" />
   <point x="353" y="0" type="curve" smooth="no" name="13" />
   <point x="420" y="0" type="line" smooth="no" name="13" />
   <point x="473" y="140" type="offcurve" name="14" />
   <point x="570" y="404" type="offcurve" name="14" />
   <point x="608" y="527" type="curve" smooth="no" name="13" />
   <point x="608" y="0" type="line" smooth="no" name="13" />
   <point x="682" y="0" type="line" smooth="no" name="13" />
   <point x="682" y="633" type="line" smooth="no" name="13" />
   <point x="592" y="633" type="line" smooth="no" name="13" />
   <point x="519" y="465" type="offcurve" name="14" />
   <point x="455" y="279" type="offcurve" name="14" />
   <point x="407" y="137" type="curve" smooth="yes" name="15" />
   <point x="399" y="115" type="offcurve" name="14" />
   <point x="392" y="95" type="offcurve" name="14" />
   <point x="386" y="75" type="curve" smooth="no" name="13" />
   <point x="375" y="104" type="offcurve" name="14" />
   <point x="364" y="137" type="offcurve" name="14" />
   <point x="353" y="171" type="curve" smooth="yes" name="15" />
   <point x="307" y="307" type="offcurve" name="14" />
   <point x="250" y="476" type="offcurve" name="14" />
   <point x="182" y="633" type="curve" smooth="no" name="13" />
   <point x="90" y="633" type="line" smooth="no" name="13" />
   <point x="90" y="0" type="line" smooth="no" name="13" />
   <point x="164" y="0" type="line" smooth="no" name="13" />
  </contour>
 </outline>
</glyph>
<glyph name="N" format="1">
 <advance width="638" />
 <unicode hex="004e" />
 <outline>
  <contour>
   <point x="164" y="0" type="line" smooth="no" name="13" />
   <point x="164" y="506" type="line" smooth="no" name="13" />
   <point x="191" y="462" type="offcurve" name="14" />
   <point x="224" y="408" type="offcurve" name="14" />
   <point x="259" y="350" type="curve" smooth="yes" name="15" />
   <point x="336" y="224" type="offcurve" name="14" />
   <point x="424" y="82" type="offcurve" name="14" />
   <point x="479" y="0" type="curve" smooth="no" name="13" />
   <point x="548" y="0" type="line" smooth="no" name="13" />
   <point x="548" y="633" type="line" smooth="no" name="13" />
   <point x="474" y="633" type="line" smooth="no" name="13" />
   <point x="474" y="117" type="line" smooth="no" name="13" />
   <point x="400" y="242" type="offcurve" name="14" />
   <point x="236" y="515" type="offcurve" name="14" />
   <point x="157" y="633" type="curve" smooth="no" name="13" />
   <point x="90" y="633" type="line" smooth="no" name="13" />
   <point x="90" y="0" type="line" smooth="no" name="13" />
  </contour>
 </outline>
</glyph>
<glyph name="O" format="1">
 <advance width="644" />
 <unicode hex="004f" />
 <outline>
  <contour>
   <point x="322" y="-12" type="curve" smooth="yes" name="15" />
   <point x="503" y="-12" type="offcurve" name="14" />
   <point x="594" y="146" type="offcurve" name="14" />
   <point x="594" y="315" type="curve" smooth="yes" name="15" />
   <point x="594" y="484" type="offcurve" name="14" />
   <point x="503" y="645" type="offcurve" name="14" />
   <point x="322" y="645" type="curve" smooth="yes" name="15" />
   <point x="141" y="645" type="offcurve" name="14" />
   <point x="50" y="484" type="offcurve" name="14" />
   <point x="50" y="315" type="curve" smooth="yes" name="15" />
   <point x="50" y="146" type="offcurve" name="14" />
   <point x="141" y="-12" type="offcurve" name="14" />
  </contour>
  <contour>
   <point x="129" y="315" type="curve" smooth="yes" name="15" />
   <point x="129" y="466" type="offcurve" name="14" />
   <point x="194" y="581" type="offcurve" name="14" />
   <point x="322" y="581" type="curve" smooth="yes" name="15" />
   <point x="451" y="581" type="offcurve" name="14" />
   <point x="515" y="466" type="offcurve" name="14" />
   <point x="515" y="315" type="curve" smooth="yes" name="15" />
   <point x="515" y="164" type="offcurve" name="14" />
   <point x="451" y="53" type="offcurve" name="14" />
   <point x="322" y="53" type="curve" smooth="yes" name="15" />
   <point x="194" y="53" type="offcurve" name="14" />
   <point x="129" y="164" type="offcurve" name="14" />
  </contour>
 </outline>
</glyph>
<glyph name="Q" format="1">
 <advance width="644" />
 <unicode hex="0051" />
 <outline>
  <contour>
   <point x="450" y="20" type="line" smooth="no" name="13" />
   <point x="546" y="74" type="offcurve" name="14" />
   <point x="594" y="192" type="offcurve" name="14" />
   <point x="594" y="315" type="curve" smooth="yes" name="15" />
   <point x="594" y="483" type="offcurve" name="14" />
   <point x="503" y="645" type="offcurve" name="14" />
   <point x="322" y="645" type="curve" smooth="yes" name="15" />
   <point x="143" y="645" type="offcurve" name="14" />
   <point x="50" y="486" type="offcurve" name="14" />
   <point x="50" y="315" type="curve" smooth="yes" name="15" />
   <point x="50" y="146" type="offcurve" name="14" />
   <point x="141" y="-12" type="offcurve" name="14" />
   <point x="322" y="-12" type="curve" smooth="yes" name="15" />
   <point x="346" y="-12" type="offcurve" name="14" />
   <point x="368" y="-8" type="offcurve" name="14" />
   <point x="388" y="-3" type="curve" smooth="no" name="13" />
   <point x="487" y="-109" type="line" smooth="no" name="13" />
   <point x="573" y="-109" type="line" smooth="no" name="13" />
  </contour>
  <contour>
   <point x="129" y="315" type="curve" smooth="yes" name="15" />
   <point x="129" y="465" type="offcurve" name="14" />
   <point x="194" y="581" type="offcurve" name="14" />
   <point x="322" y="581" type="curve" smooth="yes" name="15" />
   <point x="451" y="581" type="offcurve" name="14" />
   <point x="515" y="465" type="offcurve" name="14" />
   <point x="515" y="315" type="curve" smooth="yes" name="15" />
   <point x="515" y="164" type="offcurve" name="14" />
   <point x="451" y="53" type="offcurve" name="14" />
   <point x="322" y="53" type="curve" smooth="yes" name="15" />
   <point x="194" y="53" type="offcurve" name="14" />
   <point x="129" y="164" type="offcurve" name="14" />
  </contour>
 </outline>
</glyph>
<glyph name="R" format="1">
 <advance width="521" />
 <unicode hex="0052" />
 <outline>
  <contour>
   <point x="90" y="0" type="line" smooth="no" name="13" />
   <point x="164" y="0" type="line" smooth="no" name="13" />
   <point x="164" y="264" type="line" smooth="no" name="13" />
   <point x="187" y="261" type="offcurve" name="14" />
   <point x="221" y="258" type="offcurve" name="14" />
   <point x="248" y="258" type="curve" smooth="yes" name="15" />
   <point x="263" y="258" type="offcurve" name="14" />
   <point x="276" y="258" type="offcurve" name="14" />
   <point x="290" y="260" type="curve" smooth="no" name="13" />
   <point x="291" y="259" type="line" smooth="no" name="13" />
   <point x="408" y="0" type="line" smooth="no" name="13" />
   <point x="483" y="0" type="line" smooth="no" name="13" />
   <point x="356" y="277" type="line" smooth="no" name="13" />
   <point x="430" y="307" type="offcurve" name="14" />
   <point x="468" y="371" type="offcurve" name="14" />
   <point x="468" y="453" type="curve" smooth="yes" name="15" />
   <point x="468" y="554" type="offcurve" name="14" />
   <point x="415" y="645" type="offcurve" name="14" />
   <point x="244" y="645" type="curve" smooth="yes" name="15" />
   <point x="199" y="645" type="offcurve" name="14" />
   <point x="122" y="637" type="offcurve" name="14" />
   <point x="90" y="633" type="curve" smooth="no" name="13" />
  </contour>
  <contour>
   <point x="164" y="579" type="line" smooth="no" name="13" />
   <point x="185" y="583" type="offcurve" name="14" />
   <point x="218" y="586" type="offcurve" name="14" />
   <point x="244" y="586" type="curve" smooth="yes" name="15" />
   <point x="343" y="586" type="offcurve" name="14" />
   <point x="390" y="537" type="offcurve" name="14" />
   <point x="390" y="453" type="curve" smooth="yes" name="15" />
   <point x="390" y="358" type="offcurve" name="14" />
   <point x="334" y="318" type="offcurve" name="14" />
   <point x="244" y="318" type="curve" smooth="yes" name="15" />
   <point x="214" y="318" type="offcurve" name="14" />
   <point x="184" y="321" type="offcurve" name="14" />
   <point x="164" y="324" type="curve" smooth="no" name="13" />
  </contour>
 </outline>
</glyph>
<glyph name="S" format="1">
 <advance width="506" />
 <unicode hex="0053" />
 <outline>
  <contour>
   <point x="51" y="52" type="line" smooth="no" name="13" />
   <point x="95" y="24" type="offcurve" name="14" />
   <point x="158" y="-12" type="offcurve" name="14" />
   <point x="249" y="-12" type="curve" smooth="yes" name="15" />
   <point x="360" y="-12" type="offcurve" name="14" />
   <point x="450" y="55" type="offcurve" name="14" />
   <point x="450" y="166" type="curve" smooth="yes" name="15" />
   <point x="450" y="270" type="offcurve" name="14" />
   <point x="390" y="325" type="offcurve" name="14" />
   <point x="237" y="382" type="curve" smooth="yes" name="15" />
   <point x="158" y="412" type="offcurve" name="14" />
   <point x="133" y="445" type="offcurve" name="14" />
   <point x="133" y="488" type="curve" smooth="yes" name="15" />
   <point x="133" y="549" type="offcurve" name="14" />
   <point x="186" y="581" type="offcurve" name="14" />
   <point x="259" y="581" type="curve" smooth="yes" name="15" />
   <point x="307" y="581" type="offcurve" name="14" />
   <point x="355" y="568" type="offcurve" name="14" />
   <point x="392" y="548" type="curve" smooth="no" name="13" />
   <point x="425" y="593" type="line" smooth="no" name="13" />
   <point x="386" y="620" type="offcurve" name="14" />
   <point x="332" y="645" type="offcurve" name="14" />
   <point x="254" y="645" type="curve" smooth="yes" name="15" />
   <point x="128" y="645" type="offcurve" name="14" />
   <point x="57" y="573" type="offcurve" name="14" />
   <point x="57" y="485" type="curve" smooth="yes" name="15" />
   <point x="57" y="392" type="offcurve" name="14" />
   <point x="134" y="342" type="offcurve" name="14" />
   <point x="252" y="302" type="curve" smooth="yes" name="15" />
   <point x="348" y="269" type="offcurve" name="14" />
   <point x="373" y="224" type="offcurve" name="14" />
   <point x="373" y="168" type="curve" smooth="yes" name="15" />
   <point x="373" y="101" type="offcurve" name="14" />
   <point x="328" y="55" type="offcurve" name="14" />
   <point x="238" y="55" type="curve" smooth="yes" name="15" />
   <point x="183" y="55" type="offcurve" name="14" />
   <point x="129" y="71" type="offcurve" name="14" />
   <point x="83" y="97" type="curve" smooth="no" name="13" />
  </contour>
 </outline>
</glyph>
<glyph name="T" format="1">
 <advance width="526" />
 <unicode hex="0054" />
 <outline>
  <contour>
   <point x="25" y="570" type="line" smooth="no" name="13" />
   <point x="218" y="570" type="line" smooth="no" name="13" />
   <point x="218" y="0" type="line" smooth="no" name="13" />
   <point x="292" y="0" type="line" smooth="no" name="13" />
   <point x="292" y="570" type="line" smooth="no" name="13" />
   <point x="501" y="570" type="line" smooth="no" name="13" />
   <point x="501" y="633" type="line" smooth="no" name="13" />
   <point x="25" y="633" type="line" smooth="no" name="13" />
  </contour>
 </outline>
</glyph>
<glyph name="V" format="1">
 <advance width="547" />
 <unicode hex="0056" />
 <outline>
  <contour>
   <point x="95" y="633" type="line" smooth="no" name="13" />
   <point x="15" y="633" type="line" smooth="no" name="13" />
   <point x="243" y="0" type="line" smooth="no" name="13" />
   <point x="303" y="0" type="line" smooth="no" name="13" />
   <point x="531" y="633" type="line" smooth="no" name="13" />
   <point x="451" y="633" type="line" smooth="no" name="13" />
   <point x="274" y="108" type="line" smooth="no" name="13" />
  </contour>
 </outline>
</glyph>
<glyph name="W" format="1">
 <advance width="872" />
 <unicode hex="0057" />
 <outline>
  <contour>
   <point x="395" y="633" type="line" smooth="no" name="13" />
   <point x="250" y="108" type="line" smooth="no" name="13" />
   <point x="95" y="633" type="line" smooth="no" name="13" />
   <point x="15" y="633" type="line" smooth="no" name="13" />
   <point x="216" y="0" type="line" smooth="no" name="13" />
   <point x="283" y="0" type="line" smooth="no" name="13" />
   <point x="337" y="178" type="offcurve" name="14" />
   <point x="389" y="357" type="offcurve" name="14" />
   <point x="436" y="527" type="curve" smooth="no" name="13" />
   <point x="483" y="357" type="offcurve" name="14" />
   <point x="535" y="178" type="offcurve" name="14" />
   <point x="590" y="0" type="curve" smooth="no" name="13" />
   <point x="658" y="0" type="line" smooth="no" name="13" />
   <point x="857" y="633" type="line" smooth="no" name="13" />
   <point x="777" y="633" type="line" smooth="no" name="13" />
   <point x="623" y="108" type="line" smooth="no" name="13" />
   <point x="477" y="633" type="line" smooth="no" name="13" />
  </contour>
 </outline>
</glyph>
<glyph name="X" format="1">
 <advance width="564" />
 <unicode hex="0058" />
 <outline>
  <contour>
   <point x="541" y="633" type="line" smooth="no" name="13" />
   <point x="456" y="633" type="line" smooth="no" name="13" />
   <point x="293" y="386" type="line" smooth="no" name="13" />
   <point x="134" y="633" type="line" smooth="no" name="13" />
   <point x="49" y="633" type="line" smooth="no" name="13" />
   <point x="247" y="328" type="line" smooth="no" name="13" />
   <point x="15" y="0" type="line" smooth="no" name="13" />
   <point x="100" y="0" type="line" smooth="no" name="13" />
   <point x="288" y="278" type="line" smooth="no" name="13" />
   <point x="463" y="0" type="line" smooth="no" name="13" />
   <point x="549" y="0" type="line" smooth="no" name="13" />
   <point x="333" y="329" type="line" smooth="no" name="13" />
  </contour>
 </outline>
</glyph>
<glyph name="Y" format="1">
 <advance width="530" />
 <unicode hex="0059" />
 <outline>
  <contour>
   <point x="15" y="633" type="line" smooth="no" name="13" />
   <point x="229" y="248" type="line" smooth="no" name="13" />
   <point x="229" y="0" type="line" smooth="no" name="13" />
   <point x="302" y="0" type="line" smooth="no" name="13" />
   <point x="302" y="248" type="line" smooth="no" name="13" />
   <point x="515" y="633" type="line" smooth="no" name="13" />
   <point x="437" y="633" type="line" smooth="no" name="13" />
   <point x="265" y="313" type="line" smooth="no" name="13" />
   <point x="93" y="633" type="line" smooth="no" name="13" />
  </contour>
 </outline>
</glyph>
<glyph name="Z" format="1">
 <advance width="465" />
 <unicode hex="005a" />
 <outline>
  <contour>
   <point x="433" y="566" type="line" smooth="no" name="13" />
   <point x="433" y="633" type="line" smooth="no" name="13" />
   <point x="34" y="633" type="line" smooth="no" name="13" />
   <point x="34" y="570" type="line" smooth="no" name="13" />
   <point x="354" y="570" type="line" smooth="no" name="13" />
   <point x="25" y="60" type="line" smooth="no" name="13" />
   <point x="25" y="0" type="line" smooth="no" name="13" />
   <point x="440" y="0" type="line" smooth="no" name="13" />
   <point x="440" y="63" type="line" smooth="no" name="13" />
   <point x="111" y="63" type="line" smooth="no" name="13" />
  </contour>
 </outline>
</glyph>
<glyph name="bracketleft" format="1">
 <advance width="349" />
 <unicode hex="005b" />
 <outline>
  <contour>
   <point x="277" y="-140" type="line" smooth="no" name="13" />
   <point x="277" y="-82" type="line" smooth="no" name="13" />
   <point x="157" y="-82" type="line" smooth="no" name="13" />
   <point x="157" y="588" type="line" smooth="no" name="13" />
   <point x="277" y="588" type="line" smooth="no" name="13" />
   <point x="277" y="645" type="line" smooth="no" name="13" />
   <point x="91" y="645" type="line" smooth="no" name="13" />
   <point x="91" y="-140" type="line" smooth="no" name="13" />
  </contour>
 </outline>
</glyph>
<glyph name="bracketright" format="1">
 <advance width="349" />
 <unicode hex="005d" />
 <outline>
  <contour>
   <point x="72" y="645" type="line" smooth="no" name="13" />
   <point x="72" y="588" type="line" smooth="no" name="13" />
   <point x="193" y="588" type="line" smooth="no" name="13" />
   <point x="193" y="-82" type="line" smooth="no" name="13" />
   <point x="72" y="-82" type="line" smooth="no" name="13" />
   <point x="72" y="-140" type="line" smooth="no" name="13" />
   <point x="258" y="-140" type="line" smooth="no" name="13" />
   <point x="258" y="645" type="line" smooth="no" name="13" />
  </contour>
 </outline>
</glyph>
<glyph name="asciicircum" format="1">
 <advance width="407" />
 <unicode hex="005e" />
 <outline>
  <contour>
   <point x="175" y="609" type="line" smooth="no" name="13" />
   <point x="35" y="318" type="line" smooth="no" name="13" />
   <point x="99" y="318" type="line" smooth="no" name="13" />
   <point x="202" y="544" type="line" smooth="no" name="13" />
   <point x="203" y="545" type="line" smooth="no" name="13" />
   <point x="311" y="318" type="line" smooth="no" name="13" />
   <point x="372" y="318" type="line" smooth="no" name="13" />
   <point x="232" y="609" type="line" smooth="no" name="13" />
  </contour>
 </outline>
</glyph>
<glyph name="underscore" format="1">
 <advance width="394" />
 <unicode hex="005f" />
 <outline>
  <contour>
   <point x="389" y="-85" type="line" smooth="no" name="13" />
   <point x="389" y="-30" type="line" smooth="no" name="13" />
   <point x="5" y="-30" type="line" smooth="no" name="13" />
   <point x="5" y="-85" type="line" smooth="no" name="13" />
  </contour>
 </outline>
</glyph>
<glyph name="grave" format="1">
 <advance width="177" />
 <unicode hex="0060" />
 <outline>
  <contour>
   <point x="110" y="543" type="line" smooth="no" name="13" />
   <point x="152" y="543" type="line" smooth="no" name="13" />
   <point x="98" y="655" type="line" smooth="no" name="13" />
   <point x="25" y="655" type="line" smooth="no" name="13" />
  </contour>
 </outline>
</glyph>
<glyph name="b" format="1">
 <advance width="533" />
 <unicode hex="0062" />
 <outline>
  <contour>
   <point x="129" y="0" type="line" smooth="no" name="13" />
   <point x="138" y="48" type="line" smooth="no" name="13" />
   <point x="158" y="23" type="offcurve" name="14" />
   <point x="205" y="-12" type="offcurve" name="14" />
   <point x="273" y="-12" type="curve" smooth="yes" name="15" />
   <point x="389" y="-12" type="offcurve" name="14" />
   <point x="485" y="75" type="offcurve" name="14" />
   <point x="485" y="236" type="curve" smooth="yes" name="15" />
   <point x="485" y="368" type="offcurve" name="14" />
   <point x="407" y="466" type="offcurve" name="14" />
   <point x="276" y="466" type="curve" smooth="yes" name="15" />
   <point x="207" y="466" type="offcurve" name="14" />
   <point x="163" y="430" type="offcurve" name="14" />
   <point x="145" y="407" type="curve" smooth="no" name="13" />
   <point x="145" y="645" type="line" smooth="no" name="13" />
   <point x="78" y="609" type="line" smooth="no" name="13" />
   <point x="78" y="0" type="line" smooth="no" name="13" />
  </contour>
  <contour>
   <point x="145" y="332" type="line" smooth="no" name="13" />
   <point x="159" y="365" type="offcurve" name="14" />
   <point x="202" y="411" type="offcurve" name="14" />
   <point x="267" y="411" type="curve" smooth="yes" name="15" />
   <point x="354" y="411" type="offcurve" name="14" />
   <point x="413" y="343" type="offcurve" name="14" />
   <point x="413" y="226" type="curve" smooth="yes" name="15" />
   <point x="413" y="106" type="offcurve" name="14" />
   <point x="343" y="43" type="offcurve" name="14" />
   <point x="265" y="43" type="curve" smooth="yes" name="15" />
   <point x="201" y="43" type="offcurve" name="14" />
   <point x="159" y="81" type="offcurve" name="14" />
   <point x="145" y="115" type="curve" smooth="no" name="13" />
  </contour>
 </outline>
</glyph>
<glyph name="c" format="1">
 <advance width="471" />
 <unicode hex="0063" />
 <outline>
  <contour>
   <point x="421" y="418" type="line" smooth="no" name="13" />
   <point x="382" y="449" type="offcurve" name="14" />
   <point x="334" y="466" type="offcurve" name="14" />
   <point x="273" y="466" type="curve" smooth="yes" name="15" />
   <point x="145" y="466" type="offcurve" name="14" />
   <point x="48" y="361" type="offcurve" name="14" />
   <point x="48" y="225" type="curve" smooth="yes" name="15" />
   <point x="48" y="84" type="offcurve" name="14" />
   <point x="143" y="-12" type="offcurve" name="14" />
   <point x="279" y="-12" type="curve" smooth="yes" name="15" />
   <point x="345" y="-12" type="offcurve" name="14" />
   <point x="396" y="9" type="offcurve" name="14" />
   <point x="429" y="40" type="curve" smooth="no" name="13" />
   <point x="407" y="80" type="line" smooth="no" name="13" />
   <point x="380" y="60" type="offcurve" name="14" />
   <point x="342" y="43" type="offcurve" name="14" />
   <point x="294" y="43" type="curve" smooth="yes" name="15" />
   <point x="182" y="43" type="offcurve" name="14" />
   <point x="120" y="123" type="offcurve" name="14" />
   <point x="120" y="222" type="curve" smooth="yes" name="15" />
   <point x="120" y="333" type="offcurve" name="14" />
   <point x="186" y="412" type="offcurve" name="14" />
   <point x="288" y="412" type="curve" smooth="yes" name="15" />
   <point x="335" y="412" type="offcurve" name="14" />
   <point x="372" y="397" type="offcurve" name="14" />
   <point x="399" y="380" type="curve" smooth="no" name="13" />
  </contour>
 </outline>
</glyph>
<glyph name="d" format="1">
 <advance width="533" />
 <unicode hex="0064" />
 <outline>
  <contour>
   <point x="405" y="0" type="line" smooth="no" name="13" />
   <point x="455" y="0" type="line" smooth="no" name="13" />
   <point x="455" y="644" type="line" smooth="no" name="13" />
   <point x="389" y="607" type="line" smooth="no" name="13" />
   <point x="389" y="413" type="line" smooth="no" name="13" />
   <point x="370" y="434" type="offcurve" name="14" />
   <point x="325" y="466" type="offcurve" name="14" />
   <point x="261" y="466" type="curve" smooth="yes" name="15" />
   <point x="142" y="466" type="offcurve" name="14" />
   <point x="48" y="375" type="offcurve" name="14" />
   <point x="48" y="221" type="curve" smooth="yes" name="15" />
   <point x="48" y="86" type="offcurve" name="14" />
   <point x="131" y="-12" type="offcurve" name="14" />
   <point x="255" y="-12" type="curve" smooth="yes" name="15" />
   <point x="329" y="-12" type="offcurve" name="14" />
   <point x="375" y="24" type="offcurve" name="14" />
   <point x="394" y="48" type="curve" smooth="no" name="13" />
  </contour>
  <contour>
   <point x="389" y="121" type="line" smooth="no" name="13" />
   <point x="376" y="91" type="offcurve" name="14" />
   <point x="335" y="43" type="offcurve" name="14" />
   <point x="266" y="43" type="curve" smooth="yes" name="15" />
   <point x="181" y="43" type="offcurve" name="14" />
   <point x="120" y="111" type="offcurve" name="14" />
   <point x="120" y="228" type="curve" smooth="yes" name="15" />
   <point x="120" y="347" type="offcurve" name="14" />
   <point x="192" y="412" type="offcurve" name="14" />
   <point x="270" y="412" type="curve" smooth="yes" name="15" />
   <point x="331" y="412" type="offcurve" name="14" />
   <point x="376" y="371" type="offcurve" name="14" />
   <point x="389" y="338" type="curve" smooth="no" name="13" />
  </contour>
 </outline>
</glyph>
<glyph name="f" format="1">
 <advance width="336" />
 <unicode hex="0066" />
 <outline>
  <contour>
   <point x="42" y="454" type="line" smooth="no" name="13" />
   <point x="42" y="400" type="line" smooth="no" name="13" />
   <point x="107" y="400" type="line" smooth="no" name="13" />
   <point x="107" y="0" type="line" smooth="no" name="13" />
   <point x="173" y="0" type="line" smooth="no" name="13" />
   <point x="173" y="400" type="line" smooth="no" name="13" />
   <point x="287" y="400" type="line" smooth="no" name="13" />
   <point x="287" y="454" type="line" smooth="no" name="13" />
   <point x="173" y="454" type="line" smooth="no" name="13" />
   <point x="173" y="517" type="line" smooth="yes" name="15" />
   <point x="173" y="573" type="offcurve" name="14" />
   <point x="197" y="591" type="offcurve" name="14" />
   <point x="232" y="591" type="curve" smooth="yes" name="15" />
   <point x="254" y="591" type="offcurve" name="14" />
   <point x="281" y="582" type="offcurve" name="14" />
   <point x="297" y="574" type="curve" smooth="no" name="13" />
   <point x="321" y="611" type="line" smooth="no" name="13" />
   <point x="296" y="628" type="offcurve" name="14" />
   <point x="257" y="645" type="offcurve" name="14" />
   <point x="218" y="645" type="curve" smooth="yes" name="15" />
   <point x="142" y="645" type="offcurve" name="14" />
   <point x="107" y="591" type="offcurve" name="14" />
   <point x="107" y="520" type="curve" smooth="yes" name="15" />
   <point x="107" y="454" type="line" smooth="no" name="13" />
  </contour>
 </outline>
</glyph>
<glyph name="g" format="1">
 <advance width="538" />
 <unicode hex="0067" />
 <outline>
  <contour>
   <point x="398" y="408" type="line" smooth="no" name="13" />
   <point x="384" y="427" type="offcurve" name="14" />
   <point x="337" y="466" type="offcurve" name="14" />
   <point x="266" y="466" type="curve" smooth="yes" name="15" />
   <point x="147" y="466" type="offcurve" name="14" />
   <point x="53" y="375" type="offcurve" name="14" />
   <point x="53" y="221" type="curve" smooth="yes" name="15" />
   <point x="53" y="86" type="offcurve" name="14" />
   <point x="136" y="-12" type="offcurve" name="14" />
   <point x="260" y="-12" type="curve" smooth="yes" name="15" />
   <point x="332" y="-12" type="offcurve" name="14" />
   <point x="374" y="22" type="offcurve" name="14" />
   <point x="394" y="46" type="curve" smooth="no" name="13" />
   <point x="394" y="37" type="line" smooth="yes" name="15" />
   <point x="394" y="-88" type="offcurve" name="14" />
   <point x="344" y="-134" type="offcurve" name="14" />
   <point x="250" y="-134" type="curve" smooth="yes" name="15" />
   <point x="207" y="-134" type="offcurve" name="14" />
   <point x="159" y="-120" type="offcurve" name="14" />
   <point x="118" y="-91" type="curve" smooth="no" name="13" />
   <point x="95" y="-128" type="line" smooth="no" name="13" />
   <point x="141" y="-168" type="offcurve" name="14" />
   <point x="203" y="-191" type="offcurve" name="14" />
   <point x="261" y="-191" type="curve" smooth="yes" name="15" />
   <point x="390" y="-191" type="offcurve" name="14" />
   <point x="460" y="-114" type="offcurve" name="14" />
   <point x="460" y="37" type="curve" smooth="yes" name="15" />
   <point x="460" y="454" type="line" smooth="no" name="13" />
   <point x="408" y="454" type="line" smooth="no" name="13" />
  </contour>
  <contour>
   <point x="394" y="121" type="line" smooth="no" name="13" />
   <point x="381" y="91" type="offcurve" name="14" />
   <point x="340" y="43" type="offcurve" name="14" />
   <point x="271" y="43" type="curve" smooth="yes" name="15" />
   <point x="186" y="43" type="offcurve" name="14" />
   <point x="125" y="111" type="offcurve" name="14" />
   <point x="125" y="228" type="curve" smooth="yes" name="15" />
   <point x="125" y="347" type="offcurve" name="14" />
   <point x="197" y="412" type="offcurve" name="14" />
   <point x="275" y="412" type="curve" smooth="yes" name="15" />
   <point x="336" y="412" type="offcurve" name="14" />
   <point x="381" y="371" type="offcurve" name="14" />
   <point x="394" y="338" type="curve" smooth="no" name="13" />
  </contour>
 </outline>
</glyph>
<glyph name="h" format="1">
 <advance width="533" />
 <unicode hex="0068" />
 <outline>
  <contour>
   <point x="460" y="0" type="line" smooth="no" name="13" />
   <point x="460" y="271" type="line" smooth="yes" name="15" />
   <point x="460" y="410" type="offcurve" name="14" />
   <point x="392" y="466" type="offcurve" name="14" />
   <point x="289" y="466" type="curve" smooth="yes" name="15" />
   <point x="232" y="466" type="offcurve" name="14" />
   <point x="179" y="439" type="offcurve" name="14" />
   <point x="145" y="406" type="curve" smooth="no" name="13" />
   <point x="145" y="645" type="line" smooth="no" name="13" />
   <point x="78" y="610" type="line" smooth="no" name="13" />
   <point x="78" y="0" type="line" smooth="no" name="13" />
   <point x="145" y="0" type="line" smooth="no" name="13" />
   <point x="145" y="348" type="line" smooth="no" name="13" />
   <point x="161" y="371" type="offcurve" name="14" />
   <point x="210" y="408" type="offcurve" name="14" />
   <point x="268" y="408" type="curve" smooth="yes" name="15" />
   <point x="350" y="408" type="offcurve" name="14" />
   <point x="394" y="363" type="offcurve" name="14" />
   <point x="394" y="266" type="curve" smooth="yes" name="15" />
   <point x="394" y="0" type="line" smooth="no" name="13" />
  </contour>
 </outline>
</glyph>
<glyph name="i" format="1">
 <advance width="232" />
 <unicode hex="0069" />
 <outline>
  <contour>
   <point x="149" y="454" type="line" smooth="no" name="13" />
   <point x="83" y="454" type="line" smooth="no" name="13" />
   <point x="83" y="0" type="line" smooth="no" name="13" />
   <point x="149" y="0" type="line" smooth="no" name="13" />
  </contour>
  <contour>
   <point x="73" y="602" type="curve" smooth="yes" name="15" />
   <point x="73" y="577" type="offcurve" name="14" />
   <point x="93" y="558" type="offcurve" name="14" />
   <point x="117" y="558" type="curve" smooth="yes" name="15" />
   <point x="141" y="558" type="offcurve" name="14" />
   <point x="161" y="577" type="offcurve" name="14" />
   <point x="161" y="602" type="curve" smooth="yes" name="15" />
   <point x="161" y="625" type="offcurve" name="14" />
   <point x="141" y="645" type="offcurve" name="14" />
   <point x="117" y="645" type="curve" smooth="yes" name="15" />
   <point x="93" y="645" type="offcurve" name="14" />
   <point x="73" y="625" type="offcurve" name="14" />
  </contour>
 </outline>
</glyph>
<glyph name="j" format="1">
 <advance width="235" />
 <unicode hex="006a" />
 <outline>
  <contour>
   <point x="150" y="454" type="line" smooth="no" name="13" />
   <point x="84" y="454" type="line" smooth="no" name="13" />
   <point x="84" y="-63" type="line" smooth="yes" name="15" />
   <point x="84" y="-118" type="offcurve" name="14" />
   <point x="60" y="-137" type="offcurve" name="14" />
   <point x="25" y="-137" type="curve" smooth="yes" name="15" />
   <point x="3" y="-137" type="offcurve" name="14" />
   <point x="-25" y="-128" type="offcurve" name="14" />
   <point x="-40" y="-119" type="curve" smooth="no" name="13" />
   <point x="-64" y="-156" type="line" smooth="no" name="13" />
   <point x="-39" y="-174" type="offcurve" name="14" />
   <point x="0" y="-191" type="offcurve" name="14" />
   <point x="39" y="-191" type="curve" smooth="yes" name="15" />
   <point x="115" y="-191" type="offcurve" name="14" />
   <point x="150" y="-137" type="offcurve" name="14" />
   <point x="150" y="-66" type="curve" smooth="yes" name="15" />
  </contour>
  <contour>
   <point x="72" y="602" type="curve" smooth="yes" name="15" />
   <point x="72" y="577" type="offcurve" name="14" />
   <point x="92" y="558" type="offcurve" name="14" />
   <point x="116" y="558" type="curve" smooth="yes" name="15" />
   <point x="140" y="558" type="offcurve" name="14" />
   <point x="160" y="577" type="offcurve" name="14" />
   <point x="160" y="602" type="curve" smooth="yes" name="15" />
   <point x="160" y="625" type="offcurve" name="14" />
   <point x="140" y="645" type="offcurve" name="14" />
   <point x="116" y="645" type="curve" smooth="yes" name="15" />
   <point x="92" y="645" type="offcurve" name="14" />
   <point x="72" y="625" type="offcurve" name="14" />
  </contour>
 </outline>
</glyph>
<glyph name="k" format="1">
 <advance width="446" />
 <unicode hex="006b" />
 <outline>
  <contour>
   <point x="402" y="454" type="line" smooth="no" name="13" />
   <point x="309" y="454" type="line" smooth="no" name="13" />
   <point x="145" y="302" type="line" smooth="no" name="13" />
   <point x="145" y="645" type="line" smooth="no" name="13" />
   <point x="78" y="609" type="line" smooth="no" name="13" />
   <point x="78" y="0" type="line" smooth="no" name="13" />
   <point x="145" y="0" type="line" smooth="no" name="13" />
   <point x="145" y="252" type="line" smooth="no" name="13" />
   <point x="345" y="0" type="line" smooth="no" name="13" />
   <point x="426" y="0" type="line" smooth="no" name="13" />
   <point x="201" y="277" type="line" smooth="no" name="13" />
  </contour>
 </outline>
</glyph>
<glyph name="l" format="1">
 <advance width="223" />
 <unicode hex="006c" />
 <outline>
  <contour>
   <point x="145" y="645" type="line" smooth="no" name="13" />
   <point x="78" y="609" type="line" smooth="no" name="13" />
   <point x="78" y="0" type="line" smooth="no" name="13" />
   <point x="145" y="0" type="line" smooth="no" name="13" />
  </contour>
 </outline>
</glyph>
<glyph name="m" format="1">
 <advance width="830" />
 <unicode hex="006d" />
 <outline>
  <contour>
   <point x="757" y="0" type="line" smooth="no" name="13" />
   <point x="757" y="272" type="line" smooth="yes" name="15" />
   <point x="757" y="407" type="offcurve" name="14" />
   <point x="688" y="466" type="offcurve" name="14" />
   <point x="590" y="466" type="curve" smooth="yes" name="15" />
   <point x="520" y="466" type="offcurve" name="14" />
   <point x="465" y="438" type="offcurve" name="14" />
   <point x="425" y="393" type="curve" smooth="no" name="13" />
   <point x="398" y="443" type="offcurve" name="14" />
   <point x="346" y="466" type="offcurve" name="14" />
   <point x="288" y="466" type="curve" smooth="yes" name="15" />
   <point x="226" y="466" type="offcurve" name="14" />
   <point x="176" y="438" type="offcurve" name="14" />
   <point x="143" y="407" type="curve" smooth="no" name="13" />
   <point x="140" y="407" type="line" smooth="no" name="13" />
   <point x="134" y="454" type="line" smooth="no" name="13" />
   <point x="78" y="454" type="line" smooth="no" name="13" />
   <point x="78" y="0" type="line" smooth="no" name="13" />
   <point x="145" y="0" type="line" smooth="no" name="13" />
   <point x="145" y="347" type="line" smooth="no" name="13" />
   <point x="162" y="370" type="offcurve" name="14" />
   <point x="209" y="408" type="offcurve" name="14" />
   <point x="265" y="408" type="curve" smooth="yes" name="15" />
   <point x="349" y="408" type="offcurve" name="14" />
   <point x="386" y="360" type="offcurve" name="14" />
   <point x="386" y="264" type="curve" smooth="yes" name="15" />
   <point x="386" y="0" type="line" smooth="no" name="13" />
   <point x="452" y="0" type="line" smooth="no" name="13" />
   <point x="452" y="272" type="line" smooth="yes" name="15" />
   <point x="452" y="302" type="offcurve" name="14" />
   <point x="448" y="329" type="offcurve" name="14" />
   <point x="442" y="350" type="curve" smooth="no" name="13" />
   <point x="470" y="378" type="offcurve" name="14" />
   <point x="512" y="408" type="offcurve" name="14" />
   <point x="566" y="408" type="curve" smooth="yes" name="15" />
   <point x="649" y="408" type="offcurve" name="14" />
   <point x="690" y="364" type="offcurve" name="14" />
   <point x="690" y="260" type="curve" smooth="yes" name="15" />
   <point x="690" y="0" type="line" smooth="no" name="13" />
  </contour>
 </outline>
</glyph>
<glyph name="n" format="1">
 <advance width="533" />
 <unicode hex="006e" />
 <outline>
  <contour>
   <point x="460" y="0" type="line" smooth="no" name="13" />
   <point x="460" y="271" type="line" smooth="yes" name="15" />
   <point x="460" y="409" type="offcurve" name="14" />
   <point x="391" y="466" type="offcurve" name="14" />
   <point x="291" y="466" type="curve" smooth="yes" name="15" />
   <point x="226" y="466" type="offcurve" name="14" />
   <point x="175" y="439" type="offcurve" name="14" />
   <point x="143" y="406" type="curve" smooth="no" name="13" />
   <point x="140" y="406" type="line" smooth="no" name="13" />
   <point x="134" y="454" type="line" smooth="no" name="13" />
   <point x="78" y="454" type="line" smooth="no" name="13" />
   <point x="78" y="0" type="line" smooth="no" name="13" />
   <point x="145" y="0" type="line" smooth="no" name="13" />
   <point x="145" y="348" type="line" smooth="no" name="13" />
   <point x="162" y="372" type="offcurve" name="14" />
   <point x="209" y="408" type="offcurve" name="14" />
   <point x="270" y="408" type="curve" smooth="yes" name="15" />
   <point x="350" y="408" type="offcurve" name="14" />
   <point x="394" y="363" type="offcurve" name="14" />
   <point x="394" y="266" type="curve" smooth="yes" name="15" />
   <point x="394" y="0" type="line" smooth="no" name="13" />
  </contour>
 </outline>
</glyph>
<glyph name="o" format="1">
 <advance width="533" />
 <unicode hex="006f" />
 <outline>
  <contour>
   <point x="485" y="226" type="curve" smooth="yes" name="15" />
   <point x="485" y="358" type="offcurve" name="14" />
   <point x="402" y="466" type="offcurve" name="14" />
   <point x="267" y="466" type="curve" smooth="yes" name="15" />
   <point x="131" y="466" type="offcurve" name="14" />
   <point x="48" y="358" type="offcurve" name="14" />
   <point x="48" y="226" type="curve" smooth="yes" name="15" />
   <point x="48" y="94" type="offcurve" name="14" />
   <point x="136" y="-12" type="offcurve" name="14" />
   <point x="267" y="-12" type="curve" smooth="yes" name="15" />
   <point x="397" y="-12" type="offcurve" name="14" />
   <point x="485" y="94" type="offcurve" name="14" />
  </contour>
  <contour>
   <point x="120" y="226" type="curve" smooth="yes" name="15" />
   <point x="120" y="329" type="offcurve" name="14" />
   <point x="174" y="412" type="offcurve" name="14" />
   <point x="267" y="412" type="curve" smooth="yes" name="15" />
   <point x="359" y="412" type="offcurve" name="14" />
   <point x="413" y="329" type="offcurve" name="14" />
   <point x="413" y="226" type="curve" smooth="yes" name="15" />
   <point x="413" y="119" type="offcurve" name="14" />
   <point x="355" y="43" type="offcurve" name="14" />
   <point x="266" y="43" type="curve" smooth="yes" name="15" />
   <point x="178" y="43" type="offcurve" name="14" />
   <point x="120" y="119" type="offcurve" name="14" />
  </contour>
 </outline>
</glyph>
<glyph name="p" format="1">
 <advance width="539" />
 <unicode hex="0070" />
 <outline>
  <contour>
   <point x="78" y="454" type="line" smooth="no" name="13" />
   <point x="78" y="-182" type="line" smooth="no" name="13" />
   <point x="145" y="-182" type="line" smooth="no" name="13" />
   <point x="145" y="42" type="line" smooth="no" name="13" />
   <point x="169" y="17" type="offcurve" name="14" />
   <point x="215" y="-12" type="offcurve" name="14" />
   <point x="283" y="-12" type="curve" smooth="yes" name="15" />
   <point x="395" y="-12" type="offcurve" name="14" />
   <point x="491" y="77" type="offcurve" name="14" />
   <point x="491" y="236" type="curve" smooth="yes" name="15" />
   <point x="491" y="367" type="offcurve" name="14" />
   <point x="413" y="466" type="offcurve" name="14" />
   <point x="288" y="466" type="curve" smooth="yes" name="15" />
   <point x="203" y="466" type="offcurve" name="14" />
   <point x="155" y="421" type="offcurve" name="14" />
   <point x="140" y="405" type="curve" smooth="no" name="13" />
   <point x="131" y="454" type="line" smooth="no" name="13" />
  </contour>
  <contour>
   <point x="145" y="331" type="line" smooth="no" name="13" />
   <point x="156" y="356" type="offcurve" name="14" />
   <point x="201" y="411" type="offcurve" name="14" />
   <point x="273" y="411" type="curve" smooth="yes" name="15" />
   <point x="361" y="411" type="offcurve" name="14" />
   <point x="419" y="344" type="offcurve" name="14" />
   <point x="419" y="226" type="curve" smooth="yes" name="15" />
   <point x="419" y="104" type="offcurve" name="14" />
   <point x="347" y="43" type="offcurve" name="14" />
   <point x="266" y="43" type="curve" smooth="yes" name="15" />
   <point x="199" y="43" type="offcurve" name="14" />
   <point x="156" y="89" type="offcurve" name="14" />
   <point x="145" y="116" type="curve" smooth="no" name="13" />
  </contour>
 </outline>
</glyph>
<glyph name="q" format="1">
 <advance width="538" />
 <unicode hex="0071" />
 <outline>
  <contour>
   <point x="409" y="454" type="line" smooth="no" name="13" />
   <point x="398" y="408" type="line" smooth="no" name="13" />
   <point x="379" y="432" type="offcurve" name="14" />
   <point x="332" y="466" type="offcurve" name="14" />
   <point x="260" y="466" type="curve" smooth="yes" name="15" />
   <point x="145" y="466" type="offcurve" name="14" />
   <point x="48" y="379" type="offcurve" name="14" />
   <point x="48" y="220" type="curve" smooth="yes" name="15" />
   <point x="48" y="85" type="offcurve" name="14" />
   <point x="133" y="-12" type="offcurve" name="14" />
   <point x="252" y="-12" type="curve" smooth="yes" name="15" />
   <point x="317" y="-12" type="offcurve" name="14" />
   <point x="365" y="16" type="offcurve" name="14" />
   <point x="394" y="48" type="curve" smooth="no" name="13" />
   <point x="394" y="-185" type="line" smooth="no" name="13" />
   <point x="460" y="-185" type="line" smooth="no" name="13" />
   <point x="460" y="454" type="line" smooth="no" name="13" />
  </contour>
  <contour>
   <point x="394" y="123" type="line" smooth="no" name="13" />
   <point x="383" y="96" type="offcurve" name="14" />
   <point x="340" y="43" type="offcurve" name="14" />
   <point x="264" y="43" type="curve" smooth="yes" name="15" />
   <point x="182" y="43" type="offcurve" name="14" />
   <point x="121" y="110" type="offcurve" name="14" />
   <point x="121" y="228" type="curve" smooth="yes" name="15" />
   <point x="121" y="349" type="offcurve" name="14" />
   <point x="194" y="412" type="offcurve" name="14" />
   <point x="271" y="412" type="curve" smooth="yes" name="15" />
   <point x="338" y="412" type="offcurve" name="14" />
   <point x="382" y="366" type="offcurve" name="14" />
   <point x="394" y="337" type="curve" smooth="no" name="13" />
  </contour>
 </outline>
</glyph>
<glyph name="r" format="1">
 <advance width="392" />
 <unicode hex="0072" />
 <outline>
  <contour>
   <point x="374" y="415" type="line" smooth="no" name="13" />
   <point x="349" y="451" type="offcurve" name="14" />
   <point x="308" y="466" type="offcurve" name="14" />
   <point x="264" y="466" type="curve" smooth="yes" name="15" />
   <point x="219" y="466" type="offcurve" name="14" />
   <point x="182" y="446" type="offcurve" name="14" />
   <point x="143" y="406" type="curve" smooth="no" name="13" />
   <point x="141" y="406" type="line" smooth="no" name="13" />
   <point x="135" y="454" type="line" smooth="no" name="13" />
   <point x="78" y="454" type="line" smooth="no" name="13" />
   <point x="78" y="0" type="line" smooth="no" name="13" />
   <point x="145" y="0" type="line" smooth="no" name="13" />
   <point x="145" y="348" type="line" smooth="no" name="13" />
   <point x="169" y="380" type="offcurve" name="14" />
   <point x="208" y="407" type="offcurve" name="14" />
   <point x="246" y="407" type="curve" smooth="yes" name="15" />
   <point x="275" y="407" type="offcurve" name="14" />
   <point x="298" y="396" type="offcurve" name="14" />
   <point x="319" y="377" type="curve" smooth="no" name="13" />
  </contour>
 </outline>
</glyph>
<glyph name="t" format="1">
 <advance width="367" />
 <unicode hex="0074" />
 <outline>
  <contour>
   <point x="178" y="399" type="line" smooth="no" name="13" />
   <point x="317" y="399" type="line" smooth="no" name="13" />
   <point x="317" y="454" type="line" smooth="no" name="13" />
   <point x="178" y="454" type="line" smooth="no" name="13" />
   <point x="178" y="587" type="line" smooth="no" name="13" />
   <point x="112" y="553" type="line" smooth="no" name="13" />
   <point x="112" y="454" type="line" smooth="no" name="13" />
   <point x="42" y="454" type="line" smooth="no" name="13" />
   <point x="42" y="399" type="line" smooth="no" name="13" />
   <point x="111" y="399" type="line" smooth="no" name="13" />
   <point x="111" y="113" type="line" smooth="yes" name="15" />
   <point x="111" y="42" type="offcurve" name="14" />
   <point x="146" y="-12" type="offcurve" name="14" />
   <point x="222" y="-12" type="curve" smooth="yes" name="15" />
   <point x="261" y="-12" type="offcurve" name="14" />
   <point x="300" y="5" type="offcurve" name="14" />
   <point x="325" y="22" type="curve" smooth="no" name="13" />
   <point x="301" y="59" type="line" smooth="no" name="13" />
   <point x="286" y="51" type="offcurve" name="14" />
   <point x="258" y="42" type="offcurve" name="14" />
   <point x="236" y="42" type="curve" smooth="yes" name="15" />
   <point x="201" y="42" type="offcurve" name="14" />
   <point x="177" y="60" type="offcurve" name="14" />
   <point x="177" y="115" type="curve" smooth="yes" name="15" />
  </contour>
 </outline>
</glyph>
<glyph name="v" format="1">
 <advance width="441" />
 <unicode hex="0076" />
 <outline>
  <contour>
   <point x="254" y="0" type="line" smooth="no" name="13" />
   <point x="426" y="454" type="line" smooth="no" name="13" />
   <point x="354" y="454" type="line" smooth="no" name="13" />
   <point x="221" y="79" type="line" smooth="no" name="13" />
   <point x="87" y="454" type="line" smooth="no" name="13" />
   <point x="15" y="454" type="line" smooth="no" name="13" />
   <point x="186" y="0" type="line" smooth="no" name="13" />
  </contour>
 </outline>
</glyph>
<glyph name="w" format="1">
 <advance width="692" />
 <unicode hex="0077" />
 <outline>
  <contour>
   <point x="237" y="0" type="line" smooth="no" name="13" />
   <point x="348" y="373" type="line" smooth="no" name="13" />
   <point x="454" y="0" type="line" smooth="no" name="13" />
   <point x="526" y="0" type="line" smooth="no" name="13" />
   <point x="677" y="454" type="line" smooth="no" name="13" />
   <point x="605" y="454" type="line" smooth="no" name="13" />
   <point x="491" y="78" type="line" smooth="no" name="13" />
   <point x="387" y="454" type="line" smooth="no" name="13" />
   <point x="310" y="454" type="line" smooth="no" name="13" />
   <point x="201" y="78" type="line" smooth="no" name="13" />
   <point x="87" y="454" type="line" smooth="no" name="13" />
   <point x="15" y="454" type="line" smooth="no" name="13" />
   <point x="165" y="0" type="line" smooth="no" name="13" />
  </contour>
 </outline>
</glyph>
<glyph name="x" format="1">
 <advance width="427" />
 <unicode hex="0078" />
 <outline>
  <contour>
   <point x="407" y="454" type="line" smooth="no" name="13" />
   <point x="333" y="454" type="line" smooth="no" name="13" />
   <point x="217" y="285" type="line" smooth="no" name="13" />
   <point x="111" y="454" type="line" smooth="no" name="13" />
   <point x="37" y="454" type="line" smooth="no" name="13" />
   <point x="178" y="234" type="line" smooth="no" name="13" />
   <point x="13" y="0" type="line" smooth="no" name="13" />
   <point x="88" y="0" type="line" smooth="no" name="13" />
   <point x="216" y="188" type="line" smooth="no" name="13" />
   <point x="340" y="0" type="line" smooth="no" name="13" />
   <point x="414" y="0" type="line" smooth="no" name="13" />
   <point x="256" y="237" type="line" smooth="no" name="13" />
  </contour>
 </outline>
</glyph>
<glyph name="y" format="1">
 <advance width="457" />
 <unicode hex="0079" />
 <outline>
  <contour>
   <point x="442" y="454" type="line" smooth="no" name="13" />
   <point x="370" y="454" type="line" smooth="no" name="13" />
   <point x="230" y="69" type="line" smooth="no" name="13" />
   <point x="86" y="454" type="line" smooth="no" name="13" />
   <point x="15" y="454" type="line" smooth="no" name="13" />
   <point x="190" y="0" type="line" smooth="no" name="13" />
   <point x="207" y="0" type="line" smooth="no" name="13" />
   <point x="189" y="-44" type="line" smooth="yes" name="15" />
   <point x="166" y="-103" type="offcurve" name="14" />
   <point x="141" y="-137" type="offcurve" name="14" />
   <point x="102" y="-137" type="curve" smooth="yes" name="15" />
   <point x="82" y="-137" type="offcurve" name="14" />
   <point x="62" y="-130" type="offcurve" name="14" />
   <point x="42" y="-119" type="curve" smooth="no" name="13" />
   <point x="20" y="-155" type="line" smooth="no" name="13" />
   <point x="47" y="-174" type="offcurve" name="14" />
   <point x="82" y="-191" type="offcurve" name="14" />
   <point x="120" y="-191" type="curve" smooth="yes" name="15" />
   <point x="176" y="-191" type="offcurve" name="14" />
   <point x="212" y="-155" type="offcurve" name="14" />
   <point x="244" y="-69" type="curve" smooth="yes" name="15" />
  </contour>
 </outline>
</glyph>
<glyph name="z" format="1">
 <advance width="410" />
 <unicode hex="007a" />
 <outline>
  <contour>
   <point x="385" y="0" type="line" smooth="no" name="13" />
   <point x="385" y="55" type="line" smooth="no" name="13" />
   <point x="105" y="55" type="line" smooth="no" name="13" />
   <point x="379" y="396" type="line" smooth="no" name="13" />
   <point x="379" y="454" type="line" smooth="no" name="13" />
   <point x="42" y="454" type="line" smooth="no" name="13" />
   <point x="42" y="399" type="line" smooth="no" name="13" />
   <point x="300" y="399" type="line" smooth="no" name="13" />
   <point x="25" y="58" type="line" smooth="no" name="13" />
   <point x="25" y="0" type="line" smooth="no" name="13" />
  </contour>
 </outline>
</glyph>
<glyph name="braceleft" format="1">
 <advance width="377" />
 <unicode hex="007b" />
 <outline>
  <contour>
   <point x="48" y="226" type="line" smooth="no" name="13" />
   <point x="102" y="220" type="offcurve" name="14" />
   <point x="154" y="174" type="offcurve" name="14" />
   <point x="154" y="79" type="curve" smooth="yes" name="15" />
   <point x="154" y="29" type="line" smooth="yes" name="15" />
   <point x="154" y="-88" type="offcurve" name="14" />
   <point x="180" y="-139" type="offcurve" name="14" />
   <point x="300" y="-139" type="curve" smooth="yes" name="15" />
   <point x="320" y="-139" type="line" smooth="no" name="13" />
   <point x="320" y="-82" type="line" smooth="no" name="13" />
   <point x="300" y="-82" type="line" smooth="yes" name="15" />
   <point x="239" y="-82" type="offcurve" name="14" />
   <point x="220" y="-69" type="offcurve" name="14" />
   <point x="220" y="29" type="curve" smooth="yes" name="15" />
   <point x="220" y="79" type="line" smooth="yes" name="15" />
   <point x="220" y="199" type="offcurve" name="14" />
   <point x="163" y="233" type="offcurve" name="14" />
   <point x="117" y="254" type="curve" smooth="no" name="13" />
   <point x="163" y="276" type="offcurve" name="14" />
   <point x="220" y="312" type="offcurve" name="14" />
   <point x="220" y="429" type="curve" smooth="yes" name="15" />
   <point x="220" y="477" type="line" smooth="yes" name="15" />
   <point x="220" y="575" type="offcurve" name="14" />
   <point x="239" y="587" type="offcurve" name="14" />
   <point x="300" y="587" type="curve" smooth="yes" name="15" />
   <point x="320" y="587" type="line" smooth="no" name="13" />
   <point x="320" y="645" type="line" smooth="no" name="13" />
   <point x="300" y="645" type="line" smooth="yes" name="15" />
   <point x="180" y="645" type="offcurve" name="14" />
   <point x="154" y="593" type="offcurve" name="14" />
   <point x="154" y="477" type="curve" smooth="yes" name="15" />
   <point x="154" y="429" type="line" smooth="yes" name="15" />
   <point x="154" y="332" type="offcurve" name="14" />
   <point x="104" y="288" type="offcurve" name="14" />
   <point x="48" y="284" type="curve" smooth="no" name="13" />
  </contour>
 </outline>
</glyph>
<glyph name="bar" format="1">
 <advance width="242" />
 <unicode hex="007c" />
 <outline>
  <contour>
   <point x="152" y="662" type="line" smooth="no" name="13" />
   <point x="90" y="662" type="line" smooth="no" name="13" />
   <point x="90" y="-179" type="line" smooth="no" name="13" />
   <point x="152" y="-179" type="line" smooth="no" name="13" />
  </contour>
 </outline>
</glyph>
<glyph name="braceright" format="1">
 <advance width="377" />
 <unicode hex="007d" />
 <outline>
  <contour>
   <point x="329" y="284" type="line" smooth="no" name="13" />
   <point x="273" y="288" type="offcurve" name="14" />
   <point x="223" y="332" type="offcurve" name="14" />
   <point x="223" y="429" type="curve" smooth="yes" name="15" />
   <point x="223" y="477" type="line" smooth="yes" name="15" />
   <point x="223" y="593" type="offcurve" name="14" />
   <point x="197" y="645" type="offcurve" name="14" />
   <point x="77" y="645" type="curve" smooth="yes" name="15" />
   <point x="57" y="645" type="line" smooth="no" name="13" />
   <point x="57" y="587" type="line" smooth="no" name="13" />
   <point x="77" y="587" type="line" smooth="yes" name="15" />
   <point x="138" y="587" type="offcurve" name="14" />
   <point x="157" y="575" type="offcurve" name="14" />
   <point x="157" y="477" type="curve" smooth="yes" name="15" />
   <point x="157" y="429" type="line" smooth="yes" name="15" />
   <point x="157" y="312" type="offcurve" name="14" />
   <point x="214" y="276" type="offcurve" name="14" />
   <point x="260" y="254" type="curve" smooth="no" name="13" />
   <point x="214" y="233" type="offcurve" name="14" />
   <point x="157" y="199" type="offcurve" name="14" />
   <point x="157" y="79" type="curve" smooth="yes" name="15" />
   <point x="157" y="29" type="line" smooth="yes" name="15" />
   <point x="157" y="-69" type="offcurve" name="14" />
   <point x="138" y="-82" type="offcurve" name="14" />
   <point x="77" y="-82" type="curve" smooth="yes" name="15" />
   <point x="57" y="-82" type="line" smooth="no" name="13" />
   <point x="57" y="-139" type="line" smooth="no" name="13" />
   <point x="77" y="-139" type="line" smooth="yes" name="15" />
   <point x="197" y="-139" type="offcurve" name="14" />
   <point x="223" y="-88" type="offcurve" name="14" />
   <point x="223" y="29" type="curve" smooth="yes" name="15" />
   <point x="223" y="79" type="line" smooth="yes" name="15" />
   <point x="223" y="174" type="offcurve" name="14" />
   <point x="275" y="220" type="offcurve" name="14" />
   <point x="329" y="226" type="curve" smooth="no" name="13" />
  </contour>
 </outline>
</glyph>
<glyph name="asciitilde" format="1">
 <advance width="483" />
 <unicode hex="007e" />
 <outline>
  <contour>
   <point x="68" y="199" type="line" smooth="no" name="13" />
   <point x="82" y="223" type="offcurve" name="14" />
   <point x="106" y="251" type="offcurve" name="14" />
   <point x="143" y="251" type="curve" smooth="yes" name="15" />
   <point x="174" y="251" type="offcurve" name="14" />
   <point x="193" y="242" type="offcurve" name="14" />
   <point x="221" y="230" type="curve" smooth="yes" name="15" />
   <point x="228" y="227" type="offcurve" name="14" />
   <point x="236" y="223" type="offcurve" name="14" />
   <point x="244" y="220" type="curve" smooth="yes" name="15" />
   <point x="282" y="204" type="offcurve" name="14" />
   <point x="318" y="188" type="offcurve" name="14" />
   <point x="353" y="188" type="curve" smooth="yes" name="15" />
   <point x="388" y="188" type="offcurve" name="14" />
   <point x="424" y="212" type="offcurve" name="14" />
   <point x="441" y="275" type="curve" smooth="no" name="13" />
   <point x="413" y="293" type="line" smooth="no" name="13" />
   <point x="398" y="259" type="offcurve" name="14" />
   <point x="379" y="242" type="offcurve" name="14" />
   <point x="344" y="242" type="curve" smooth="yes" name="15" />
   <point x="318" y="242" type="offcurve" name="14" />
   <point x="298" y="251" type="offcurve" name="14" />
   <point x="255" y="270" type="curve" smooth="yes" name="15" />
   <point x="213" y="289" type="offcurve" name="14" />
   <point x="175" y="305" type="offcurve" name="14" />
   <point x="141" y="305" type="curve" smooth="yes" name="15" />
   <point x="95" y="305" type="offcurve" name="14" />
   <point x="61" y="273" type="offcurve" name="14" />
   <point x="42" y="217" type="curve" smooth="no" name="13" />
  </contour>
 </outline>
</glyph>
<glyph name="exclamdown" format="1">
 <advance width="216" />
 <unicode hex="00a1" />
 <outline>
  <contour>
   <point x="73" y="315" type="line" smooth="no" name="13" />
   <point x="73" y="-169" type="line" smooth="no" name="13" />
   <point x="140" y="-169" type="line" smooth="no" name="13" />
   <point x="140" y="315" type="line" smooth="no" name="13" />
  </contour>
  <contour>
   <point x="150" y="428" type="curve" smooth="yes" name="15" />
   <point x="150" y="428" type="offcurve" name="14" />
   <point x="150" y="429" type="offcurve" name="14" />
   <point x="150" y="430" type="curve" smooth="yes" name="15" />
   <point x="150" y="456" type="offcurve" name="14" />
   <point x="137" y="473" type="offcurve" name="14" />
   <point x="109" y="473" type="curve" smooth="yes" name="15" />
   <point x="80" y="473" type="offcurve" name="14" />
   <point x="66" y="455" type="offcurve" name="14" />
   <point x="66" y="429" type="curve" smooth="yes" name="15" />
   <point x="67" y="404" type="offcurve" name="14" />
   <point x="81" y="388" type="offcurve" name="14" />
   <point x="109" y="388" type="curve" smooth="yes" name="15" />
   <point x="136" y="388" type="offcurve" name="14" />
   <point x="150" y="404" type="offcurve" name="14" />
  </contour>
 </outline>
</glyph>
<glyph name="cent" format="1">
 <advance width="474" />
 <unicode hex="00a2" />
 <outline>
  <contour>
   <point x="294" y="-11" type="line" smooth="no" name="13" />
   <point x="353" y="-8" type="offcurve" name="14" />
   <point x="399" y="11" type="offcurve" name="14" />
   <point x="429" y="40" type="curve" smooth="no" name="13" />
   <point x="407" y="80" type="line" smooth="no" name="13" />
   <point x="380" y="60" type="offcurve" name="14" />
   <point x="342" y="43" type="offcurve" name="14" />
   <point x="295" y="43" type="curve" smooth="yes" name="15" />
   <point x="294" y="43" type="line" smooth="no" name="13" />
   <point x="294" y="412" type="line" smooth="no" name="13" />
   <point x="338" y="410" type="offcurve" name="14" />
   <point x="373" y="396" type="offcurve" name="14" />
   <point x="399" y="380" type="curve" smooth="no" name="13" />
   <point x="421" y="418" type="line" smooth="no" name="13" />
   <point x="386" y="445" type="offcurve" name="14" />
   <point x="345" y="462" type="offcurve" name="14" />
   <point x="294" y="465" type="curve" smooth="no" name="13" />
   <point x="294" y="512" type="line" smooth="no" name="13" />
   <point x="258" y="512" type="line" smooth="no" name="13" />
   <point x="258" y="466" type="line" smooth="no" name="13" />
   <point x="137" y="458" type="offcurve" name="14" />
   <point x="48" y="356" type="offcurve" name="14" />
   <point x="48" y="225" type="curve" smooth="yes" name="15" />
   <point x="48" y="91" type="offcurve" name="14" />
   <point x="133" y="-2" type="offcurve" name="14" />
   <point x="258" y="-11" type="curve" smooth="no" name="13" />
   <point x="258" y="-52" type="line" smooth="no" name="13" />
   <point x="294" y="-52" type="line" smooth="no" name="13" />
  </contour>
  <contour>
   <point x="258" y="47" type="line" smooth="no" name="13" />
   <point x="169" y="62" type="offcurve" name="14" />
   <point x="120" y="134" type="offcurve" name="14" />
   <point x="120" y="222" type="curve" smooth="yes" name="15" />
   <point x="120" y="322" type="offcurve" name="14" />
   <point x="173" y="395" type="offcurve" name="14" />
   <point x="258" y="408" type="curve" smooth="no" name="13" />
  </contour>
 </outline>
</glyph>
<glyph name="sterling" format="1">
 <advance width="474" />
 <unicode hex="00a3" />
 <outline>
  <contour>
   <point x="349" y="313" type="line" smooth="no" name="13" />
   <point x="349" y="370" type="line" smooth="no" name="13" />
   <point x="188" y="370" type="line" smooth="no" name="13" />
   <point x="188" y="437" type="line" smooth="yes" name="15" />
   <point x="188" y="523" type="offcurve" name="14" />
   <point x="217" y="580" type="offcurve" name="14" />
   <point x="299" y="580" type="curve" smooth="yes" name="15" />
   <point x="342" y="580" type="offcurve" name="14" />
   <point x="381" y="562" type="offcurve" name="14" />
   <point x="415" y="539" type="curve" smooth="no" name="13" />
   <point x="446" y="584" type="line" smooth="no" name="13" />
   <point x="395" y="626" type="offcurve" name="14" />
   <point x="339" y="645" type="offcurve" name="14" />
   <point x="290" y="645" type="curve" smooth="yes" name="15" />
   <point x="155" y="645" type="offcurve" name="14" />
   <point x="114" y="544" type="offcurve" name="14" />
   <point x="114" y="429" type="curve" smooth="yes" name="15" />
   <point x="114" y="370" type="line" smooth="no" name="13" />
   <point x="42" y="370" type="line" smooth="no" name="13" />
   <point x="42" y="313" type="line" smooth="no" name="13" />
   <point x="114" y="313" type="line" smooth="no" name="13" />
   <point x="114" y="63" type="line" smooth="no" name="13" />
   <point x="44" y="63" type="line" smooth="no" name="13" />
   <point x="44" y="0" type="line" smooth="no" name="13" />
   <point x="430" y="0" type="line" smooth="no" name="13" />
   <point x="430" y="63" type="line" smooth="no" name="13" />
   <point x="188" y="63" type="line" smooth="no" name="13" />
   <point x="188" y="313" type="line" smooth="no" name="13" />
  </contour>
 </outline>
</glyph>
<glyph name="currency" format="1">
 <advance width="482" />
 <unicode hex="00a4" />
 <outline>
  <contour>
   <point x="431" y="96" type="line" smooth="no" name="13" />
   <point x="432" y="94" type="offcurve" name="14" />
   <point x="434" y="94" type="offcurve" name="14" />
   <point x="435" y="94" type="curve" smooth="yes" name="15" />
   <point x="448" y="94" type="offcurve" name="14" />
   <point x="469" y="118" type="offcurve" name="14" />
   <point x="469" y="131" type="curve" smooth="yes" name="15" />
   <point x="469" y="133" type="offcurve" name="14" />
   <point x="468" y="134" type="offcurve" name="14" />
   <point x="467" y="135" type="curve" smooth="yes" name="15" />
   <point x="388" y="212" type="line" smooth="no" name="13" />
   <point x="410" y="242" type="offcurve" name="14" />
   <point x="421" y="275" type="offcurve" name="14" />
   <point x="421" y="315" type="curve" smooth="yes" name="15" />
   <point x="421" y="356" type="offcurve" name="14" />
   <point x="409" y="392" type="offcurve" name="14" />
   <point x="388" y="420" type="curve" smooth="no" name="13" />
   <point x="466" y="498" type="line" smooth="yes" name="15" />
   <point x="467" y="499" type="offcurve" name="14" />
   <point x="468" y="501" type="offcurve" name="14" />
   <point x="468" y="503" type="curve" smooth="yes" name="15" />
   <point x="468" y="515" type="offcurve" name="14" />
   <point x="446" y="535" type="offcurve" name="14" />
   <point x="435" y="535" type="curve" smooth="yes" name="15" />
   <point x="433" y="535" type="offcurve" name="14" />
   <point x="431" y="535" type="offcurve" name="14" />
   <point x="430" y="533" type="curve" smooth="no" name="13" />
   <point x="349" y="454" type="line" smooth="no" name="13" />
   <point x="320" y="473" type="offcurve" name="14" />
   <point x="286" y="483" type="offcurve" name="14" />
   <point x="248" y="483" type="curve" smooth="yes" name="15" />
   <point x="211" y="483" type="offcurve" name="14" />
   <point x="175" y="473" type="offcurve" name="14" />
   <point x="147" y="454" type="curve" smooth="no" name="13" />
   <point x="67" y="534" type="line" smooth="yes" name="15" />
   <point x="66" y="535" type="offcurve" name="14" />
   <point x="65" y="536" type="offcurve" name="14" />
   <point x="63" y="536" type="curve" smooth="yes" name="15" />
   <point x="52" y="536" type="offcurve" name="14" />
   <point x="28" y="512" type="offcurve" name="14" />
   <point x="28" y="501" type="curve" smooth="yes" name="15" />
   <point x="28" y="499" type="offcurve" name="14" />
   <point x="28" y="498" type="offcurve" name="14" />
   <point x="30" y="497" type="curve" smooth="no" name="13" />
   <point x="109" y="419" type="line" smooth="no" name="13" />
   <point x="87" y="391" type="offcurve" name="14" />
   <point x="73" y="356" type="offcurve" name="14" />
   <point x="73" y="315" type="curve" smooth="yes" name="15" />
   <point x="73" y="274" type="offcurve" name="14" />
   <point x="86" y="240" type="offcurve" name="14" />
   <point x="107" y="211" type="curve" smooth="no" name="13" />
   <point x="30" y="136" type="line" smooth="no" name="13" />
   <point x="29" y="136" type="offcurve" name="14" />
   <point x="29" y="135" type="offcurve" name="14" />
   <point x="29" y="134" type="curve" smooth="yes" name="15" />
   <point x="29" y="123" type="offcurve" name="14" />
   <point x="52" y="97" type="offcurve" name="14" />
   <point x="64" y="97" type="curve" smooth="yes" name="15" />
   <point x="66" y="97" type="offcurve" name="14" />
   <point x="67" y="97" type="offcurve" name="14" />
   <point x="68" y="98" type="curve" smooth="yes" name="15" />
   <point x="147" y="176" type="line" smooth="no" name="13" />
   <point x="174" y="156" type="offcurve" name="14" />
   <point x="209" y="147" type="offcurve" name="14" />
   <point x="248" y="147" type="curve" smooth="yes" name="15" />
   <point x="287" y="147" type="offcurve" name="14" />
   <point x="321" y="156" type="offcurve" name="14" />
   <point x="349" y="176" type="curve" smooth="no" name="13" />
  </contour>
  <contour>
   <point x="249" y="203" type="curve" smooth="yes" name="15" />
   <point x="182" y="203" type="offcurve" name="14" />
   <point x="138" y="248" type="offcurve" name="14" />
   <point x="138" y="316" type="curve" smooth="yes" name="15" />
   <point x="139" y="382" type="offcurve" name="14" />
   <point x="183" y="428" type="offcurve" name="14" />
   <point x="249" y="428" type="curve" smooth="yes" name="15" />
   <point x="317" y="428" type="offcurve" name="14" />
   <point x="356" y="383" type="offcurve" name="14" />
   <point x="356" y="316" type="curve" smooth="yes" name="15" />
   <point x="356" y="248" type="offcurve" name="14" />
   <point x="317" y="203" type="offcurve" name="14" />
  </contour>
 </outline>
</glyph>
<glyph name="yen" format="1">
 <advance width="530" />
 <unicode hex="00a5" />
 <outline>
  <contour>
   <point x="302" y="0" type="line" smooth="no" name="13" />
   <point x="302" y="132" type="line" smooth="no" name="13" />
   <point x="475" y="132" type="line" smooth="no" name="13" />
   <point x="475" y="187" type="line" smooth="no" name="13" />
   <point x="302" y="187" type="line" smooth="no" name="13" />
   <point x="302" y="248" type="line" smooth="no" name="13" />
   <point x="311" y="266" type="line" smooth="no" name="13" />
   <point x="475" y="266" type="line" smooth="no" name="13" />
   <point x="475" y="321" type="line" smooth="no" name="13" />
   <point x="342" y="321" type="line" smooth="no" name="13" />
   <point x="515" y="633" type="line" smooth="no" name="13" />
   <point x="437" y="633" type="line" smooth="no" name="13" />
   <point x="269" y="321" type="line" smooth="no" name="13" />
   <point x="261" y="321" type="line" smooth="no" name="13" />
   <point x="93" y="633" type="line" smooth="no" name="13" />
   <point x="15" y="633" type="line" smooth="no" name="13" />
   <point x="188" y="321" type="line" smooth="no" name="13" />
   <point x="51" y="321" type="line" smooth="no" name="13" />
   <point x="51" y="266" type="line" smooth="no" name="13" />
   <point x="219" y="266" type="line" smooth="no" name="13" />
   <point x="229" y="248" type="line" smooth="no" name="13" />
   <point x="229" y="187" type="line" smooth="no" name="13" />
   <point x="51" y="187" type="line" smooth="no" name="13" />
   <point x="51" y="132" type="line" smooth="no" name="13" />
   <point x="229" y="132" type="line" smooth="no" name="13" />
   <point x="229" y="0" type="line" smooth="no" name="13" />
  </contour>
 </outline>
</glyph>
<glyph name="brokenbar" format="1">
 <advance width="230" />
 <unicode hex="00a6" />
 <outline>
  <contour>
   <point x="84" y="222" type="line" smooth="no" name="13" />
   <point x="84" y="-186" type="line" smooth="no" name="13" />
   <point x="146" y="-186" type="line" smooth="no" name="13" />
   <point x="146" y="222" type="line" smooth="no" name="13" />
  </contour>
  <contour>
   <point x="146" y="669" type="line" smooth="no" name="13" />
   <point x="84" y="669" type="line" smooth="no" name="13" />
   <point x="84" y="296" type="line" smooth="no" name="13" />
   <point x="146" y="296" type="line" smooth="no" name="13" />
  </contour>
 </outline>
</glyph>
<glyph name="section" format="1">
 <advance width="449" />
 <unicode hex="00a7" />
 <outline>
  <contour>
   <point x="67" y="-93" type="line" smooth="no" name="13" />
   <point x="102" y="-117" type="offcurve" name="14" />
   <point x="156" y="-140" type="offcurve" name="14" />
   <point x="220" y="-140" type="curve" smooth="yes" name="15" />
   <point x="324" y="-140" type="offcurve" name="14" />
   <point x="387" y="-72" type="offcurve" name="14" />
   <point x="387" y="11" type="curve" smooth="yes" name="15" />
   <point x="387" y="71" type="offcurve" name="14" />
   <point x="359" y="108" type="offcurve" name="14" />
   <point x="325" y="130" type="curve" smooth="no" name="13" />
   <point x="369" y="153" type="offcurve" name="14" />
   <point x="399" y="191" type="offcurve" name="14" />
   <point x="399" y="244" type="curve" smooth="yes" name="15" />
   <point x="399" y="341" type="offcurve" name="14" />
   <point x="331" y="378" type="offcurve" name="14" />
   <point x="258" y="404" type="curve" smooth="yes" name="15" />
   <point x="188" y="430" type="offcurve" name="14" />
   <point x="139" y="459" type="offcurve" name="14" />
   <point x="139" y="516" type="curve" smooth="yes" name="15" />
   <point x="139" y="564" type="offcurve" name="14" />
   <point x="179" y="592" type="offcurve" name="14" />
   <point x="235" y="592" type="curve" smooth="yes" name="15" />
   <point x="274" y="592" type="offcurve" name="14" />
   <point x="314" y="581" type="offcurve" name="14" />
   <point x="343" y="567" type="curve" smooth="no" name="13" />
   <point x="366" y="602" type="line" smooth="no" name="13" />
   <point x="334" y="625" type="offcurve" name="14" />
   <point x="280" y="645" type="offcurve" name="14" />
   <point x="225" y="645" type="curve" smooth="yes" name="15" />
   <point x="133" y="645" type="offcurve" name="14" />
   <point x="70" y="594" type="offcurve" name="14" />
   <point x="70" y="510" type="curve" smooth="yes" name="15" />
   <point x="70" y="463" type="offcurve" name="14" />
   <point x="95" y="423" type="offcurve" name="14" />
   <point x="136" y="394" type="curve" smooth="no" name="13" />
   <point x="96" y="375" type="offcurve" name="14" />
   <point x="50" y="338" type="offcurve" name="14" />
   <point x="50" y="268" type="curve" smooth="yes" name="15" />
   <point x="50" y="174" type="offcurve" name="14" />
   <point x="137" y="136" type="offcurve" name="14" />
   <point x="212" y="113" type="curve" smooth="yes" name="15" />
   <point x="293" y="87" type="offcurve" name="14" />
   <point x="318" y="55" type="offcurve" name="14" />
   <point x="318" y="10" type="curve" smooth="yes" name="15" />
   <point x="318" y="-54" type="offcurve" name="14" />
   <point x="277" y="-83" type="offcurve" name="14" />
   <point x="202" y="-83" type="curve" smooth="yes" name="15" />
   <point x="185" y="-83" type="offcurve" name="14" />
   <point x="130" y="-78" type="offcurve" name="14" />
   <point x="88" y="-58" type="curve" smooth="no" name="13" />
  </contour>
  <contour>
   <point x="168" y="374" type="curve" smooth="no" name="13" />
   <point x="190" y="362" type="offcurve" name="14" />
   <point x="214" y="353" type="offcurve" name="14" />
   <point x="244" y="342" type="curve" smooth="yes" name="15" />
   <point x="302" y="321" type="offcurve" name="14" />
   <point x="335" y="290" type="offcurve" name="14" />
   <point x="335" y="236" type="curve" smooth="yes" name="15" />
   <point x="335" y="196" type="offcurve" name="14" />
   <point x="309" y="164" type="offcurve" name="14" />
   <point x="289" y="150" type="curve" smooth="no" name="13" />
   <point x="288" y="149" type="offcurve" name="14" />
   <point x="287" y="149" type="offcurve" name="14" />
   <point x="286" y="149" type="curve" smooth="no" name="13" />
   <point x="270" y="155" type="offcurve" name="14" />
   <point x="255" y="161" type="offcurve" name="14" />
   <point x="238" y="166" type="curve" smooth="yes" name="15" />
   <point x="136" y="199" type="offcurve" name="14" />
   <point x="119" y="236" type="offcurve" name="14" />
   <point x="117" y="283" type="curve" smooth="yes" name="15" />
   <point x="117" y="321" type="offcurve" name="14" />
   <point x="136" y="352" type="offcurve" name="14" />
  </contour>
 </outline>
</glyph>
<glyph name="dieresis" format="1">
 <advance width="308" />
 <unicode hex="00a8" />
 <outline>
  <contour>
   <point x="34" y="602" type="curve" smooth="yes" name="15" />
   <point x="34" y="577" type="offcurve" name="14" />
   <point x="53" y="558" type="offcurve" name="14" />
   <point x="78" y="558" type="curve" smooth="yes" name="15" />
   <point x="102" y="558" type="offcurve" name="14" />
   <point x="122" y="577" type="offcurve" name="14" />
   <point x="122" y="602" type="curve" smooth="yes" name="15" />
   <point x="122" y="625" type="offcurve" name="14" />
   <point x="102" y="645" type="offcurve" name="14" />
   <point x="78" y="645" type="curve" smooth="yes" name="15" />
   <point x="53" y="645" type="offcurve" name="14" />
   <point x="34" y="625" type="offcurve" name="14" />
  </contour>
  <contour>
   <point x="185" y="602" type="curve" smooth="yes" name="15" />
   <point x="185" y="577" type="offcurve" name="14" />
   <point x="205" y="558" type="offcurve" name="14" />
   <point x="229" y="558" type="curve" smooth="yes" name="15" />
   <point x="253" y="558" type="offcurve" name="14" />
   <point x="273" y="577" type="offcurve" name="14" />
   <point x="273" y="602" type="curve" smooth="yes" name="15" />
   <point x="273" y="625" type="offcurve" name="14" />
   <point x="253" y="645" type="offcurve" name="14" />
   <point x="229" y="645" type="curve" smooth="yes" name="15" />
   <point x="205" y="645" type="offcurve" name="14" />
   <point x="185" y="625" type="offcurve" name="14" />
  </contour>
 </outline>
</glyph>
<glyph name="copyright" format="1">
 <advance width="699" />
 <unicode hex="00a9" />
 <outline>
  <contour>
   <point x="481" y="459" type="line" smooth="no" name="13" />
   <point x="448" y="486" type="offcurve" name="14" />
   <point x="410" y="502" type="offcurve" name="14" />
   <point x="358" y="502" type="curve" smooth="yes" name="15" />
   <point x="254" y="502" type="offcurve" name="14" />
   <point x="178" y="418" type="offcurve" name="14" />
   <point x="178" y="311" type="curve" smooth="yes" name="15" />
   <point x="178" y="204" type="offcurve" name="14" />
   <point x="252" y="123" type="offcurve" name="14" />
   <point x="359" y="123" type="curve" smooth="yes" name="15" />
   <point x="416" y="123" type="offcurve" name="14" />
   <point x="458" y="142" type="offcurve" name="14" />
   <point x="487" y="167" type="curve" smooth="no" name="13" />
   <point x="469" y="202" type="line" smooth="no" name="13" />
   <point x="445" y="184" type="offcurve" name="14" />
   <point x="411" y="171" type="offcurve" name="14" />
   <point x="373" y="171" type="curve" smooth="yes" name="15" />
   <point x="285" y="171" type="offcurve" name="14" />
   <point x="239" y="238" type="offcurve" name="14" />
   <point x="239" y="308" type="curve" smooth="yes" name="15" />
   <point x="239" y="388" type="offcurve" name="14" />
   <point x="284" y="455" type="offcurve" name="14" />
   <point x="367" y="455" type="curve" smooth="yes" name="15" />
   <point x="410" y="455" type="offcurve" name="14" />
   <point x="442" y="442" type="offcurve" name="14" />
   <point x="466" y="427" type="curve" smooth="no" name="13" />
  </contour>
  <contour>
   <point x="48" y="315" type="curve" smooth="yes" name="15" />
   <point x="48" y="150" type="offcurve" name="14" />
   <point x="184" y="14" type="offcurve" name="14" />
   <point x="349" y="14" type="curve" smooth="yes" name="15" />
   <point x="515" y="14" type="offcurve" name="14" />
   <point x="651" y="150" type="offcurve" name="14" />
   <point x="651" y="315" type="curve" smooth="yes" name="15" />
   <point x="651" y="481" type="offcurve" name="14" />
   <point x="515" y="617" type="offcurve" name="14" />
   <point x="349" y="617" type="curve" smooth="yes" name="15" />
   <point x="184" y="617" type="offcurve" name="14" />
   <point x="48" y="481" type="offcurve" name="14" />
  </contour>
  <contour>
   <point x="102" y="315" type="curve" smooth="yes" name="15" />
   <point x="102" y="455" type="offcurve" name="14" />
   <point x="209" y="565" type="offcurve" name="14" />
   <point x="349" y="565" type="curve" smooth="yes" name="15" />
   <point x="489" y="565" type="offcurve" name="14" />
   <point x="600" y="455" type="offcurve" name="14" />
   <point x="600" y="315" type="curve" smooth="yes" name="15" />
   <point x="600" y="175" type="offcurve" name="14" />
   <point x="491" y="64" type="offcurve" name="14" />
   <point x="351" y="64" type="curve" smooth="yes" name="15" />
   <point x="211" y="64" type="offcurve" name="14" />
   <point x="102" y="175" type="offcurve" name="14" />
  </contour>
 </outline>
</glyph>
<glyph name="ordfeminine" format="1">
 <advance width="268" />
 <unicode hex="00aa" />
 <outline>
  <contour>
   <point x="231" y="406" type="line" smooth="no" name="13" />
   <point x="231" y="544" type="line" smooth="yes" name="15" />
   <point x="231" y="611" type="offcurve" name="14" />
   <point x="196" y="645" type="offcurve" name="14" />
   <point x="138" y="645" type="curve" smooth="yes" name="15" />
   <point x="99" y="645" type="offcurve" name="14" />
   <point x="71" y="631" type="offcurve" name="14" />
   <point x="46" y="611" type="curve" smooth="no" name="13" />
   <point x="62" y="581" type="line" smooth="no" name="13" />
   <point x="84" y="597" type="offcurve" name="14" />
   <point x="109" y="607" type="offcurve" name="14" />
   <point x="129" y="607" type="curve" smooth="yes" name="15" />
   <point x="162" y="607" type="offcurve" name="14" />
   <point x="182" y="590" type="offcurve" name="14" />
   <point x="182" y="554" type="curve" smooth="yes" name="15" />
   <point x="182" y="552" type="line" smooth="no" name="13" />
   <point x="155" y="552" type="line" smooth="yes" name="15" />
   <point x="72" y="552" type="offcurve" name="14" />
   <point x="33" y="521" type="offcurve" name="14" />
   <point x="33" y="473" type="curve" smooth="yes" name="15" />
   <point x="33" y="423" type="offcurve" name="14" />
   <point x="75" y="400" type="offcurve" name="14" />
   <point x="113" y="400" type="curve" smooth="yes" name="15" />
   <point x="143" y="400" type="offcurve" name="14" />
   <point x="170" y="415" type="offcurve" name="14" />
   <point x="186" y="441" type="curve" smooth="no" name="13" />
   <point x="191" y="406" type="line" smooth="no" name="13" />
  </contour>
  <contour>
   <point x="181" y="521" type="line" smooth="no" name="13" />
   <point x="181" y="485" type="line" smooth="no" name="13" />
   <point x="174" y="460" type="offcurve" name="14" />
   <point x="151" y="440" type="offcurve" name="14" />
   <point x="123" y="440" type="curve" smooth="yes" name="15" />
   <point x="101" y="440" type="offcurve" name="14" />
   <point x="83" y="453" type="offcurve" name="14" />
   <point x="83" y="476" type="curve" smooth="yes" name="15" />
   <point x="83" y="505" type="offcurve" name="14" />
   <point x="103" y="521" type="offcurve" name="14" />
   <point x="161" y="521" type="curve" smooth="yes" name="15" />
  </contour>
 </outline>
</glyph>
<glyph name="guillemotleft" format="1">
 <advance width="502" />
 <unicode hex="00ab" />
 <outline>
  <contour>
   <point x="260" y="18" type="curve" smooth="no" name="13" />
   <point x="260" y="77" type="line" smooth="no" name="13" />
   <point x="197" y="108" type="offcurve" name="14" />
   <point x="148" y="164" type="offcurve" name="14" />
   <point x="118" y="230" type="curve" smooth="no" name="13" />
   <point x="148" y="295" type="offcurve" name="14" />
   <point x="197" y="351" type="offcurve" name="14" />
   <point x="260" y="382" type="curve" smooth="no" name="13" />
   <point x="260" y="442" type="line" smooth="no" name="13" />
   <point x="179" y="422" type="offcurve" name="14" />
   <point x="96" y="335" type="offcurve" name="14" />
   <point x="50" y="230" type="curve" smooth="no" name="13" />
   <point x="96" y="124" type="offcurve" name="14" />
   <point x="179" y="37" type="offcurve" name="14" />
  </contour>
  <contour>
   <point x="462" y="18" type="curve" smooth="no" name="13" />
   <point x="462" y="78" type="line" smooth="no" name="13" />
   <point x="400" y="108" type="offcurve" name="14" />
   <point x="351" y="164" type="offcurve" name="14" />
   <point x="320" y="230" type="curve" smooth="no" name="13" />
   <point x="351" y="295" type="offcurve" name="14" />
   <point x="400" y="351" type="offcurve" name="14" />
   <point x="462" y="382" type="curve" smooth="no" name="13" />
   <point x="462" y="442" type="line" smooth="no" name="13" />
   <point x="382" y="422" type="offcurve" name="14" />
   <point x="299" y="335" type="offcurve" name="14" />
   <point x="253" y="230" type="curve" smooth="no" name="13" />
   <point x="299" y="124" type="offcurve" name="14" />
   <point x="382" y="37" type="offcurve" name="14" />
  </contour>
 </outline>
</glyph>
<glyph name="logicalnot" format="1">
 <advance width="467" />
 <unicode hex="00ac" />
 <outline>
  <contour>
   <point x="42" y="158" type="line" smooth="no" name="13" />
   <point x="350" y="158" type="line" smooth="no" name="13" />
   <point x="350" y="0" type="line" smooth="no" name="13" />
   <point x="425" y="0" type="line" smooth="no" name="13" />
   <point x="425" y="224" type="line" smooth="no" name="13" />
   <point x="42" y="224" type="line" smooth="no" name="13" />
  </contour>
 </outline>
</glyph>
<glyph name="registered" format="1">
 <advance width="414" />
 <unicode hex="00ae" />
 <outline>
  <contour>
   <point x="204" y="470" type="line" smooth="no" name="13" />
   <point x="233" y="410" type="line" smooth="no" name="13" />
   <point x="272" y="410" type="line" smooth="no" name="13" />
   <point x="237" y="476" type="line" smooth="no" name="13" />
   <point x="252" y="482" type="offcurve" name="14" />
   <point x="265" y="494" type="offcurve" name="14" />
   <point x="265" y="520" type="curve" smooth="yes" name="15" />
   <point x="265" y="550" type="offcurve" name="14" />
   <point x="245" y="567" type="offcurve" name="14" />
   <point x="208" y="567" type="curve" smooth="yes" name="15" />
   <point x="152" y="567" type="line" smooth="no" name="13" />
   <point x="152" y="410" type="line" smooth="no" name="13" />
   <point x="185" y="410" type="line" smooth="no" name="13" />
   <point x="185" y="470" type="line" smooth="no" name="13" />
  </contour>
  <contour>
   <point x="185" y="541" type="line" smooth="no" name="13" />
   <point x="204" y="541" type="line" smooth="yes" name="15" />
   <point x="222" y="541" type="offcurve" name="14" />
   <point x="232" y="534" type="offcurve" name="14" />
   <point x="232" y="518" type="curve" smooth="yes" name="15" />
   <point x="232" y="503" type="offcurve" name="14" />
   <point x="223" y="497" type="offcurve" name="14" />
   <point x="204" y="497" type="curve" smooth="yes" name="15" />
   <point x="185" y="497" type="line" smooth="no" name="13" />
  </contour>
  <contour>
   <point x="207" y="322" type="curve" smooth="yes" name="15" />
   <point x="296" y="322" type="offcurve" name="14" />
   <point x="369" y="395" type="offcurve" name="14" />
   <point x="369" y="484" type="curve" smooth="yes" name="15" />
   <point x="369" y="573" type="offcurve" name="14" />
   <point x="296" y="645" type="offcurve" name="14" />
   <point x="207" y="645" type="curve" smooth="yes" name="15" />
   <point x="118" y="645" type="offcurve" name="14" />
   <point x="45" y="573" type="offcurve" name="14" />
   <point x="45" y="484" type="curve" smooth="yes" name="15" />
   <point x="45" y="395" type="offcurve" name="14" />
   <point x="118" y="322" type="offcurve" name="14" />
  </contour>
  <contour>
   <point x="207" y="611" type="curve" smooth="yes" name="15" />
   <point x="278" y="611" type="offcurve" name="14" />
   <point x="334" y="554" type="offcurve" name="14" />
   <point x="334" y="484" type="curve" smooth="yes" name="15" />
   <point x="334" y="413" type="offcurve" name="14" />
   <point x="278" y="356" type="offcurve" name="14" />
   <point x="207" y="356" type="curve" smooth="yes" name="15" />
   <point x="137" y="356" type="offcurve" name="14" />
   <point x="81" y="413" type="offcurve" name="14" />
   <point x="81" y="484" type="curve" smooth="yes" name="15" />
   <point x="81" y="554" type="offcurve" name="14" />
   <point x="137" y="611" type="offcurve" name="14" />
  </contour>
 </outline>
</glyph>
<glyph name="macron" format="1">
 <advance width="231" />
 <unicode hex="00af" />
 <outline>
  <contour>
   <point x="215" y="581" type="line" smooth="no" name="13" />
   <point x="215" y="633" type="line" smooth="no" name="13" />
   <point x="16" y="633" type="line" smooth="no" name="13" />
   <point x="16" y="581" type="line" smooth="no" name="13" />
  </contour>
 </outline>
</glyph>
<glyph name="degree" format="1">
 <advance width="278" />
 <unicode hex="00b0" />
 <outline>
  <contour>
   <point x="25" y="538" type="curve" smooth="yes" name="15" />
   <point x="25" y="471" type="offcurve" name="14" />
   <point x="77" y="424" type="offcurve" name="14" />
   <point x="139" y="424" type="curve" smooth="yes" name="15" />
   <point x="202" y="424" type="offcurve" name="14" />
   <point x="253" y="471" type="offcurve" name="14" />
   <point x="253" y="538" type="curve" smooth="yes" name="15" />
   <point x="253" y="606" type="offcurve" name="14" />
   <point x="202" y="652" type="offcurve" name="14" />
   <point x="139" y="652" type="curve" smooth="yes" name="15" />
   <point x="77" y="652" type="offcurve" name="14" />
   <point x="25" y="606" type="offcurve" name="14" />
  </contour>
  <contour>
   <point x="61" y="538" type="curve" smooth="yes" name="15" />
   <point x="61" y="587" type="offcurve" name="14" />
   <point x="96" y="617" type="offcurve" name="14" />
   <point x="139" y="617" type="curve" smooth="yes" name="15" />
   <point x="183" y="617" type="offcurve" name="14" />
   <point x="218" y="587" type="offcurve" name="14" />
   <point x="218" y="538" type="curve" smooth="yes" name="15" />
   <point x="218" y="489" type="offcurve" name="14" />
   <point x="183" y="460" type="offcurve" name="14" />
   <point x="139" y="460" type="curve" smooth="yes" name="15" />
   <point x="96" y="460" type="offcurve" name="14" />
   <point x="61" y="490" type="offcurve" name="14" />
  </contour>
 </outline>
</glyph>
<glyph name="plusminus" format="1">
 <advance width="509" />
 <unicode hex="00b1" />
 <outline>
  <contour>
   <point x="223" y="251" type="line" smooth="no" name="13" />
   <point x="223" y="103" type="line" smooth="no" name="13" />
   <point x="285" y="103" type="line" smooth="no" name="13" />
   <point x="285" y="251" type="line" smooth="no" name="13" />
   <point x="467" y="251" type="line" smooth="no" name="13" />
   <point x="467" y="306" type="line" smooth="no" name="13" />
   <point x="285" y="306" type="line" smooth="no" name="13" />
   <point x="285" y="454" type="line" smooth="no" name="13" />
   <point x="223" y="454" type="line" smooth="no" name="13" />
   <point x="223" y="306" type="line" smooth="no" name="13" />
   <point x="42" y="306" type="line" smooth="no" name="13" />
   <point x="42" y="251" type="line" smooth="no" name="13" />
  </contour>
  <contour>
   <point x="467" y="0" type="line" smooth="no" name="13" />
   <point x="467" y="55" type="line" smooth="no" name="13" />
   <point x="42" y="55" type="line" smooth="no" name="13" />
   <point x="42" y="0" type="line" smooth="no" name="13" />
  </contour>
 </outline>
</glyph>
<glyph name="twosuperior" format="1">
 <advance width="354" />
 <unicode hex="00b2" />
 <outline>
  <contour>
   <point x="62" y="316" type="line" smooth="no" name="13" />
   <point x="284" y="316" type="line" smooth="no" name="13" />
   <point x="284" y="368" type="line" smooth="no" name="13" />
   <point x="149" y="368" type="line" smooth="no" name="13" />
   <point x="215" y="425" type="line" smooth="yes" name="15" />
   <point x="264" y="468" type="offcurve" name="14" />
   <point x="285" y="499" type="offcurve" name="14" />
   <point x="285" y="545" type="curve" smooth="yes" name="15" />
   <point x="285" y="583" type="offcurve" name="14" />
   <point x="261" y="645" type="offcurve" name="14" />
   <point x="173" y="645" type="curve" smooth="yes" name="15" />
   <point x="138" y="645" type="offcurve" name="14" />
   <point x="98" y="632" type="offcurve" name="14" />
   <point x="58" y="596" type="curve" smooth="no" name="13" />
   <point x="84" y="565" type="line" smooth="no" name="13" />
   <point x="116" y="587" type="offcurve" name="14" />
   <point x="142" y="594" type="offcurve" name="14" />
   <point x="164" y="594" type="curve" smooth="yes" name="15" />
   <point x="200" y="594" type="offcurve" name="14" />
   <point x="227" y="577" type="offcurve" name="14" />
   <point x="227" y="541" type="curve" smooth="yes" name="15" />
   <point x="227" y="511" type="offcurve" name="14" />
   <point x="208" y="491" type="offcurve" name="14" />
   <point x="166" y="456" type="curve" smooth="yes" name="15" />
   <point x="62" y="368" type="line" smooth="no" name="13" />
  </contour>
 </outline>
</glyph>
<glyph name="threesuperior" format="1">
 <advance width="371" />
 <unicode hex="00b3" />
 <outline>
  <contour>
   <point x="141" y="463" type="line" smooth="no" name="13" />
   <point x="180" y="463" type="line" smooth="yes" name="15" />
   <point x="222" y="463" type="offcurve" name="14" />
   <point x="243" y="445" type="offcurve" name="14" />
   <point x="243" y="413" type="curve" smooth="yes" name="15" />
   <point x="243" y="378" type="offcurve" name="14" />
   <point x="207" y="366" type="offcurve" name="14" />
   <point x="178" y="366" type="curve" smooth="yes" name="15" />
   <point x="154" y="366" type="offcurve" name="14" />
   <point x="129" y="373" type="offcurve" name="14" />
   <point x="103" y="389" type="curve" smooth="no" name="13" />
   <point x="76" y="359" type="line" smooth="no" name="13" />
   <point x="113" y="327" type="offcurve" name="14" />
   <point x="147" y="314" type="offcurve" name="14" />
   <point x="183" y="314" type="curve" smooth="yes" name="15" />
   <point x="273" y="314" type="offcurve" name="14" />
   <point x="303" y="371" type="offcurve" name="14" />
   <point x="303" y="409" type="curve" smooth="yes" name="15" />
   <point x="303" y="454" type="offcurve" name="14" />
   <point x="278" y="481" type="offcurve" name="14" />
   <point x="244" y="491" type="curve" smooth="no" name="13" />
   <point x="274" y="499" type="offcurve" name="14" />
   <point x="297" y="528" type="offcurve" name="14" />
   <point x="297" y="559" type="curve" smooth="yes" name="15" />
   <point x="297" y="598" type="offcurve" name="14" />
   <point x="273" y="645" type="offcurve" name="14" />
   <point x="190" y="645" type="curve" smooth="yes" name="15" />
   <point x="156" y="645" type="offcurve" name="14" />
   <point x="117" y="635" type="offcurve" name="14" />
   <point x="76" y="599" type="curve" smooth="no" name="13" />
   <point x="101" y="571" type="line" smooth="no" name="13" />
   <point x="134" y="589" type="offcurve" name="14" />
   <point x="155" y="594" type="offcurve" name="14" />
   <point x="181" y="594" type="curve" smooth="yes" name="15" />
   <point x="211" y="594" type="offcurve" name="14" />
   <point x="238" y="580" type="offcurve" name="14" />
   <point x="238" y="553" type="curve" smooth="yes" name="15" />
   <point x="238" y="527" type="offcurve" name="14" />
   <point x="220" y="514" type="offcurve" name="14" />
   <point x="181" y="514" type="curve" smooth="yes" name="15" />
   <point x="141" y="514" type="line" smooth="no" name="13" />
  </contour>
 </outline>
</glyph>
<glyph name="acute" format="1">
 <advance width="177" />
 <unicode hex="00b4" />
 <outline>
  <contour>
   <point x="152" y="655" type="line" smooth="no" name="13" />
   <point x="79" y="655" type="line" smooth="no" name="13" />
   <point x="25" y="543" type="line" smooth="no" name="13" />
   <point x="67" y="543" type="line" smooth="no" name="13" />
  </contour>
 </outline>
</glyph>
<glyph name="mu" format="1">
 <advance width="557" />
 <unicode hex="00b5" />
 <outline>
  <contour>
   <point x="146" y="-178" type="line" smooth="no" name="13" />
   <point x="146" y="17" type="line" smooth="no" name="13" />
   <point x="167" y="-2" type="offcurve" name="14" />
   <point x="201" y="-12" type="offcurve" name="14" />
   <point x="233" y="-12" type="curve" smooth="yes" name="15" />
   <point x="287" y="-12" type="offcurve" name="14" />
   <point x="342" y="20" type="offcurve" name="14" />
   <point x="370" y="58" type="curve" smooth="no" name="13" />
   <point x="378" y="13" type="offcurve" name="14" />
   <point x="405" y="-13" type="offcurve" name="14" />
   <point x="456" y="-13" type="curve" smooth="yes" name="15" />
   <point x="495" y="-13" type="offcurve" name="14" />
   <point x="521" y="10" type="offcurve" name="14" />
   <point x="533" y="23" type="curve" smooth="no" name="13" />
   <point x="512" y="57" type="line" smooth="no" name="13" />
   <point x="502" y="50" type="offcurve" name="14" />
   <point x="491" y="43" type="offcurve" name="14" />
   <point x="474" y="43" type="curve" smooth="yes" name="15" />
   <point x="448" y="43" type="offcurve" name="14" />
   <point x="435" y="56" type="offcurve" name="14" />
   <point x="435" y="101" type="curve" smooth="yes" name="15" />
   <point x="435" y="454" type="line" smooth="no" name="13" />
   <point x="368" y="454" type="line" smooth="no" name="13" />
   <point x="368" y="114" type="line" smooth="no" name="13" />
   <point x="352" y="88" type="offcurve" name="14" />
   <point x="311" y="50" type="offcurve" name="14" />
   <point x="251" y="50" type="curve" smooth="yes" name="15" />
   <point x="189" y="50" type="offcurve" name="14" />
   <point x="146" y="87" type="offcurve" name="14" />
   <point x="146" y="186" type="curve" smooth="yes" name="15" />
   <point x="146" y="454" type="line" smooth="no" name="13" />
   <point x="78" y="454" type="line" smooth="no" name="13" />
   <point x="78" y="-178" type="line" smooth="no" name="13" />
  </contour>
 </outline>
</glyph>
<glyph name="paragraph" format="1">
 <advance width="445" />
 <unicode hex="00b6" />
 <outline>
  <contour>
   <point x="355" y="0" type="line" smooth="no" name="13" />
   <point x="355" y="633" type="line" smooth="no" name="13" />
   <point x="318" y="633" type="line" smooth="no" name="13" />
   <point x="318" y="0" type="line" smooth="no" name="13" />
  </contour>
  <contour>
   <point x="250" y="0" type="line" smooth="no" name="13" />
   <point x="288" y="0" type="line" smooth="no" name="13" />
   <point x="288" y="633" type="line" smooth="no" name="13" />
   <point x="202" y="633" type="line" smooth="yes" name="15" />
   <point x="113" y="633" type="offcurve" name="14" />
   <point x="46" y="584" type="offcurve" name="14" />
   <point x="46" y="496" type="curve" smooth="yes" name="15" />
   <point x="46" y="421" type="offcurve" name="14" />
   <point x="90" y="365" type="offcurve" name="14" />
   <point x="207" y="365" type="curve" smooth="yes" name="15" />
   <point x="250" y="365" type="line" smooth="no" name="13" />
  </contour>
 </outline>
</glyph>
<glyph name="periodcentered" format="1">
 <advance width="175" />
 <unicode hex="00b7" />
 <outline>
  <contour>
   <point x="86" y="308" type="curve" smooth="yes" name="15" />
   <point x="115" y="308" type="offcurve" name="14" />
   <point x="136" y="329" type="offcurve" name="14" />
   <point x="136" y="358" type="curve" smooth="yes" name="15" />
   <point x="136" y="383" type="offcurve" name="14" />
   <point x="115" y="405" type="offcurve" name="14" />
   <point x="86" y="405" type="curve" smooth="yes" name="15" />
   <point x="60" y="405" type="offcurve" name="14" />
   <point x="39" y="383" type="offcurve" name="14" />
   <point x="39" y="358" type="curve" smooth="yes" name="15" />
   <point x="39" y="329" type="offcurve" name="14" />
   <point x="60" y="308" type="offcurve" name="14" />
  </contour>
 </outline>
</glyph>
<glyph name="cedilla" format="1">
 <advance width="213" />
 <unicode hex="00b8" />
 <outline>
  <contour>
   <point x="72" y="10" type="line" smooth="no" name="13" />
   <point x="56" y="-55" type="line" smooth="no" name="13" />
   <point x="74" y="-53" type="offcurve" name="14" />
   <point x="85" y="-53" type="offcurve" name="14" />
   <point x="91" y="-53" type="curve" smooth="yes" name="15" />
   <point x="116" y="-53" type="offcurve" name="14" />
   <point x="138" y="-63" type="offcurve" name="14" />
   <point x="138" y="-87" type="curve" smooth="yes" name="15" />
   <point x="138" y="-111" type="offcurve" name="14" />
   <point x="118" y="-121" type="offcurve" name="14" />
   <point x="93" y="-121" type="curve" smooth="yes" name="15" />
   <point x="70" y="-121" type="offcurve" name="14" />
   <point x="55" y="-116" type="offcurve" name="14" />
   <point x="37" y="-108" type="curve" smooth="no" name="13" />
   <point x="25" y="-144" type="line" smooth="no" name="13" />
   <point x="55" y="-157" type="offcurve" name="14" />
   <point x="79" y="-160" type="offcurve" name="14" />
   <point x="97" y="-160" type="curve" smooth="yes" name="15" />
   <point x="150" y="-160" type="offcurve" name="14" />
   <point x="188" y="-129" type="offcurve" name="14" />
   <point x="188" y="-86" type="curve" smooth="yes" name="15" />
   <point x="188" y="-54" type="offcurve" name="14" />
   <point x="166" y="-28" type="offcurve" name="14" />
   <point x="126" y="-28" type="curve" smooth="yes" name="15" />
   <point x="120" y="-28" type="offcurve" name="14" />
   <point x="113" y="-29" type="offcurve" name="14" />
   <point x="106" y="-30" type="curve" smooth="no" name="13" />
   <point x="118" y="10" type="line" smooth="no" name="13" />
  </contour>
 </outline>
</glyph>
<glyph name="onesuperior" format="1">
 <advance width="280" />
 <unicode hex="00b9" />
 <outline>
  <contour>
   <point x="191" y="633" type="line" smooth="no" name="13" />
   <point x="132" y="633" type="line" smooth="no" name="13" />
   <point x="32" y="543" type="line" smooth="no" name="13" />
   <point x="69" y="505" type="line" smooth="no" name="13" />
   <point x="136" y="563" type="line" smooth="no" name="13" />
   <point x="136" y="318" type="line" smooth="no" name="13" />
   <point x="191" y="318" type="line" smooth="no" name="13" />
  </contour>
 </outline>
</glyph>
<glyph name="ordmasculine" format="1">
 <advance width="290" />
 <unicode hex="00ba" />
 <outline>
  <contour>
   <point x="145" y="400" type="curve" smooth="yes" name="15" />
   <point x="210" y="400" type="offcurve" name="14" />
   <point x="257" y="453" type="offcurve" name="14" />
   <point x="257" y="522" type="curve" smooth="yes" name="15" />
   <point x="257" y="590" type="offcurve" name="14" />
   <point x="215" y="645" type="offcurve" name="14" />
   <point x="145" y="645" type="curve" smooth="yes" name="15" />
   <point x="74" y="645" type="offcurve" name="14" />
   <point x="33" y="590" type="offcurve" name="14" />
   <point x="33" y="522" type="curve" smooth="yes" name="15" />
   <point x="33" y="453" type="offcurve" name="14" />
   <point x="80" y="400" type="offcurve" name="14" />
  </contour>
  <contour>
   <point x="145" y="609" type="curve" smooth="yes" name="15" />
   <point x="185" y="609" type="offcurve" name="14" />
   <point x="206" y="571" type="offcurve" name="14" />
   <point x="206" y="522" type="curve" smooth="yes" name="15" />
   <point x="206" y="468" type="offcurve" name="14" />
   <point x="182" y="437" type="offcurve" name="14" />
   <point x="145" y="437" type="curve" smooth="yes" name="15" />
   <point x="112" y="437" type="offcurve" name="14" />
   <point x="85" y="468" type="offcurve" name="14" />
   <point x="85" y="522" type="curve" smooth="yes" name="15" />
   <point x="85" y="571" type="offcurve" name="14" />
   <point x="105" y="609" type="offcurve" name="14" />
  </contour>
 </outline>
</glyph>
<glyph name="guillemotright" format="1">
 <advance width="502" />
 <unicode hex="00bb" />
 <outline>
  <contour>
   <point x="40" y="18" type="line" smooth="no" name="13" />
   <point x="120" y="37" type="offcurve" name="14" />
   <point x="204" y="124" type="offcurve" name="14" />
   <point x="250" y="230" type="curve" smooth="no" name="13" />
   <point x="204" y="335" type="offcurve" name="14" />
   <point x="120" y="422" type="offcurve" name="14" />
   <point x="40" y="442" type="curve" smooth="no" name="13" />
   <point x="40" y="382" type="line" smooth="no" name="13" />
   <point x="102" y="351" type="offcurve" name="14" />
   <point x="152" y="295" type="offcurve" name="14" />
   <point x="182" y="230" type="curve" smooth="no" name="13" />
   <point x="152" y="164" type="offcurve" name="14" />
   <point x="102" y="108" type="offcurve" name="14" />
   <point x="40" y="78" type="curve" smooth="no" name="13" />
  </contour>
  <contour>
   <point x="243" y="18" type="line" smooth="no" name="13" />
   <point x="323" y="37" type="offcurve" name="14" />
   <point x="406" y="124" type="offcurve" name="14" />
   <point x="452" y="230" type="curve" smooth="no" name="13" />
   <point x="406" y="335" type="offcurve" name="14" />
   <point x="323" y="422" type="offcurve" name="14" />
   <point x="243" y="442" type="curve" smooth="no" name="13" />
   <point x="243" y="382" type="line" smooth="no" name="13" />
   <point x="305" y="351" type="offcurve" name="14" />
   <point x="354" y="295" type="offcurve" name="14" />
   <point x="385" y="230" type="curve" smooth="no" name="13" />
   <point x="354" y="164" type="offcurve" name="14" />
   <point x="305" y="108" type="offcurve" name="14" />
   <point x="243" y="78" type="curve" smooth="no" name="13" />
  </contour>
 </outline>
</glyph>
<glyph name="onequarter" format="1">
 <advance width="820" />
 <unicode hex="00bc" />
 <outline>
  <contour>
   <point x="474" y="119" type="line" smooth="no" name="13" />
   <point x="474" y="65" type="line" smooth="no" name="13" />
   <point x="641" y="65" type="line" smooth="no" name="13" />
   <point x="641" y="0" type="line" smooth="no" name="13" />
   <point x="696" y="0" type="line" smooth="no" name="13" />
   <point x="696" y="65" type="line" smooth="no" name="13" />
   <point x="756" y="65" type="line" smooth="no" name="13" />
   <point x="756" y="116" type="line" smooth="no" name="13" />
   <point x="696" y="116" type="line" smooth="no" name="13" />
   <point x="696" y="318" type="line" smooth="no" name="13" />
   <point x="640" y="318" type="line" smooth="no" name="13" />
  </contour>
  <contour>
   <point x="540" y="116" type="line" smooth="no" name="13" />
   <point x="641" y="243" type="line" smooth="no" name="13" />
   <point x="641" y="116" type="line" smooth="no" name="13" />
  </contour>
  <contour>
   <point x="235" y="633" type="line" smooth="no" name="13" />
   <point x="176" y="633" type="line" smooth="no" name="13" />
   <point x="76" y="543" type="line" smooth="no" name="13" />
   <point x="113" y="505" type="line" smooth="no" name="13" />
   <point x="180" y="563" type="line" smooth="no" name="13" />
   <point x="180" y="318" type="line" smooth="no" name="13" />
   <point x="235" y="318" type="line" smooth="no" name="13" />
  </contour>
  <contour>
   <point x="617" y="633" type="line" smooth="no" name="13" />
   <point x="564" y="633" type="line" smooth="no" name="13" />
   <point x="180" y="-30" type="line" smooth="no" name="13" />
   <point x="233" y="-30" type="line" smooth="no" name="13" />
  </contour>
 </outline>
</glyph>
<glyph name="onehalf" format="1">
 <advance width="831" />
 <unicode hex="00bd" />
 <outline>
  <contour>
   <point x="235" y="633" type="line" smooth="no" name="13" />
   <point x="176" y="633" type="line" smooth="no" name="13" />
   <point x="76" y="543" type="line" smooth="no" name="13" />
   <point x="113" y="505" type="line" smooth="no" name="13" />
   <point x="180" y="563" type="line" smooth="no" name="13" />
   <point x="180" y="318" type="line" smooth="no" name="13" />
   <point x="235" y="318" type="line" smooth="no" name="13" />
  </contour>
  <contour>
   <point x="529" y="0" type="line" smooth="no" name="13" />
   <point x="751" y="0" type="line" smooth="no" name="13" />
   <point x="751" y="52" type="line" smooth="no" name="13" />
   <point x="616" y="52" type="line" smooth="no" name="13" />
   <point x="682" y="109" type="line" smooth="yes" name="15" />
   <point x="731" y="152" type="offcurve" name="14" />
   <point x="752" y="183" type="offcurve" name="14" />
   <point x="752" y="229" type="curve" smooth="yes" name="15" />
   <point x="752" y="267" type="offcurve" name="14" />
   <point x="728" y="329" type="offcurve" name="14" />
   <point x="640" y="329" type="curve" smooth="yes" name="15" />
   <point x="605" y="329" type="offcurve" name="14" />
   <point x="565" y="316" type="offcurve" name="14" />
   <point x="525" y="280" type="curve" smooth="no" name="13" />
   <point x="551" y="249" type="line" smooth="no" name="13" />
   <point x="583" y="271" type="offcurve" name="14" />
   <point x="609" y="278" type="offcurve" name="14" />
   <point x="631" y="278" type="curve" smooth="yes" name="15" />
   <point x="667" y="278" type="offcurve" name="14" />
   <point x="694" y="261" type="offcurve" name="14" />
   <point x="694" y="225" type="curve" smooth="yes" name="15" />
   <point x="694" y="195" type="offcurve" name="14" />
   <point x="675" y="175" type="offcurve" name="14" />
   <point x="633" y="140" type="curve" smooth="yes" name="15" />
   <point x="529" y="52" type="line" smooth="no" name="13" />
  </contour>
  <contour>
   <point x="610" y="633" type="line" smooth="no" name="13" />
   <point x="557" y="633" type="line" smooth="no" name="13" />
   <point x="173" y="-30" type="line" smooth="no" name="13" />
   <point x="226" y="-30" type="line" smooth="no" name="13" />
  </contour>
 </outline>
</glyph>
<glyph name="questiondown" format="1">
 <advance width="392" />
 <unicode hex="00bf" />
 <outline>
  <contour>
   <point x="203" y="309" type="line" smooth="no" name="13" />
   <point x="203" y="234" type="line" smooth="yes" name="15" />
   <point x="203" y="181" type="offcurve" name="14" />
   <point x="188" y="168" type="offcurve" name="14" />
   <point x="149" y="137" type="curve" smooth="no" name="13" />
   <point x="144" y="132" type="offcurve" name="14" />
   <point x="139" y="128" type="offcurve" name="14" />
   <point x="133" y="123" type="curve" smooth="yes" name="15" />
   <point x="88" y="85" type="offcurve" name="14" />
   <point x="50" y="27" type="offcurve" name="14" />
   <point x="50" y="-40" type="curve" smooth="yes" name="15" />
   <point x="50" y="-124" type="offcurve" name="14" />
   <point x="105" y="-192" type="offcurve" name="14" />
   <point x="202" y="-192" type="curve" smooth="yes" name="15" />
   <point x="255" y="-192" type="offcurve" name="14" />
   <point x="302" y="-175" type="offcurve" name="14" />
   <point x="347" y="-142" type="curve" smooth="no" name="13" />
   <point x="324" y="-102" type="line" smooth="no" name="13" />
   <point x="291" y="-121" type="offcurve" name="14" />
   <point x="252" y="-131" type="offcurve" name="14" />
   <point x="221" y="-131" type="curve" smooth="yes" name="15" />
   <point x="165" y="-131" type="offcurve" name="14" />
   <point x="120" y="-99" type="offcurve" name="14" />
   <point x="120" y="-32" type="curve" smooth="yes" name="15" />
   <point x="120" y="15" type="offcurve" name="14" />
   <point x="143" y="57" type="offcurve" name="14" />
   <point x="208" y="110" type="curve" smooth="yes" name="15" />
   <point x="261" y="153" type="offcurve" name="14" />
   <point x="271" y="168" type="offcurve" name="14" />
   <point x="271" y="222" type="curve" smooth="yes" name="15" />
   <point x="271" y="309" type="line" smooth="no" name="13" />
  </contour>
  <contour>
   <point x="237" y="465" type="curve" smooth="yes" name="15" />
   <point x="209" y="465" type="offcurve" name="14" />
   <point x="188" y="445" type="offcurve" name="14" />
   <point x="188" y="416" type="curve" smooth="yes" name="15" />
   <point x="188" y="390" type="offcurve" name="14" />
   <point x="209" y="369" type="offcurve" name="14" />
   <point x="237" y="369" type="curve" smooth="yes" name="15" />
   <point x="263" y="369" type="offcurve" name="14" />
   <point x="284" y="390" type="offcurve" name="14" />
   <point x="284" y="416" type="curve" smooth="yes" name="15" />
   <point x="284" y="445" type="offcurve" name="14" />
   <point x="263" y="465" type="offcurve" name="14" />
  </contour>
 </outline>
</glyph>
<glyph name="Aacute" format="1">
 <advance width="576" />
 <unicode hex="00c1" />
 <outline>
  <contour>
   <point x="242" y="633" type="line" smooth="no" name="13" />
   <point x="15" y="0" type="line" smooth="no" name="13" />
   <point x="92" y="0" type="line" smooth="no" name="13" />
   <point x="144" y="148" type="line" smooth="no" name="13" />
   <point x="419" y="148" type="line" smooth="no" name="13" />
   <point x="470" y="0" type="line" smooth="no" name="13" />
   <point x="546" y="0" type="line" smooth="no" name="13" />
   <point x="319" y="633" type="line" smooth="no" name="13" />
  </contour>
  <contour>
   <point x="280" y="550" type="line" smooth="no" name="13" />
   <point x="397" y="210" type="line" smooth="no" name="13" />
   <point x="164" y="210" type="line" smooth="no" name="13" />
  </contour>
  <contour>
   <point x="388" y="823" type="line" smooth="no" name="13" />
   <point x="315" y="823" type="line" smooth="no" name="13" />
   <point x="261" y="711" type="line" smooth="no" name="13" />
   <point x="303" y="711" type="line" smooth="no" name="13" />
  </contour>
 </outline>
</glyph>
<glyph name="Acircumflex" format="1">
 <advance width="576" />
 <unicode hex="00c2" />
 <outline>
  <contour>
   <point x="242" y="633" type="line" smooth="no" name="13" />
   <point x="15" y="0" type="line" smooth="no" name="13" />
   <point x="92" y="0" type="line" smooth="no" name="13" />
   <point x="144" y="148" type="line" smooth="no" name="13" />
   <point x="419" y="148" type="line" smooth="no" name="13" />
   <point x="470" y="0" type="line" smooth="no" name="13" />
   <point x="546" y="0" type="line" smooth="no" name="13" />
   <point x="319" y="633" type="line" smooth="no" name="13" />
  </contour>
  <contour>
   <point x="280" y="550" type="line" smooth="no" name="13" />
   <point x="397" y="210" type="line" smooth="no" name="13" />
   <point x="164" y="210" type="line" smooth="no" name="13" />
  </contour>
  <contour>
   <point x="257" y="823" type="line" smooth="no" name="13" />
   <point x="178" y="711" type="line" smooth="no" name="13" />
   <point x="232" y="711" type="line" smooth="no" name="13" />
   <point x="279" y="778" type="line" smooth="no" name="13" />
   <point x="281" y="779" type="line" smooth="no" name="13" />
   <point x="327" y="711" type="line" smooth="no" name="13" />
   <point x="382" y="711" type="line" smooth="no" name="13" />
   <point x="304" y="823" type="line" smooth="no" name="13" />
  </contour>
 </outline>
</glyph>
<glyph name="Atilde" format="1">
 <advance width="576" />
 <unicode hex="00c3" />
 <outline>
  <contour>
   <point x="242" y="633" type="line" smooth="no" name="13" />
   <point x="15" y="0" type="line" smooth="no" name="13" />
   <point x="92" y="0" type="line" smooth="no" name="13" />
   <point x="144" y="148" type="line" smooth="no" name="13" />
   <point x="419" y="148" type="line" smooth="no" name="13" />
   <point x="470" y="0" type="line" smooth="no" name="13" />
   <point x="546" y="0" type="line" smooth="no" name="13" />
   <point x="319" y="633" type="line" smooth="no" name="13" />
  </contour>
  <contour>
   <point x="280" y="550" type="line" smooth="no" name="13" />
   <point x="397" y="210" type="line" smooth="no" name="13" />
   <point x="164" y="210" type="line" smooth="no" name="13" />
  </contour>
  <contour>
   <point x="174" y="714" type="line" smooth="no" name="13" />
   <point x="182" y="736" type="offcurve" name="14" />
   <point x="207" y="757" type="offcurve" name="14" />
   <point x="230" y="757" type="curve" smooth="yes" name="15" />
   <point x="245" y="757" type="offcurve" name="14" />
   <point x="261" y="748" type="offcurve" name="14" />
   <point x="275" y="739" type="curve" smooth="yes" name="15" />
   <point x="278" y="737" type="offcurve" name="14" />
   <point x="281" y="736" type="offcurve" name="14" />
   <point x="284" y="734" type="curve" smooth="no" name="13" />
   <point x="298" y="727" type="offcurve" name="14" />
   <point x="320" y="714" type="offcurve" name="14" />
   <point x="342" y="714" type="curve" smooth="yes" name="15" />
   <point x="377" y="714" type="offcurve" name="14" />
   <point x="404" y="737" type="offcurve" name="14" />
   <point x="421" y="790" type="curve" smooth="no" name="13" />
   <point x="394" y="808" type="line" smooth="no" name="13" />
   <point x="383" y="786" type="offcurve" name="14" />
   <point x="363" y="763" type="offcurve" name="14" />
   <point x="344" y="763" type="curve" smooth="yes" name="15" />
   <point x="329" y="763" type="offcurve" name="14" />
   <point x="309" y="776" type="offcurve" name="14" />
   <point x="298" y="782" type="curve" smooth="yes" name="15" />
   <point x="278" y="795" type="offcurve" name="14" />
   <point x="256" y="807" type="offcurve" name="14" />
   <point x="230" y="807" type="curve" smooth="yes" name="15" />
   <point x="197" y="807" type="offcurve" name="14" />
   <point x="164" y="785" type="offcurve" name="14" />
   <point x="147" y="731" type="curve" smooth="no" name="13" />
  </contour>
 </outline>
</glyph>
<glyph name="Adieresis" format="1">
 <advance width="576" />
 <unicode hex="00c4" />
 <outline>
  <contour>
   <point x="242" y="633" type="line" smooth="no" name="13" />
   <point x="15" y="0" type="line" smooth="no" name="13" />
   <point x="92" y="0" type="line" smooth="no" name="13" />
   <point x="144" y="148" type="line" smooth="no" name="13" />
   <point x="419" y="148" type="line" smooth="no" name="13" />
   <point x="470" y="0" type="line" smooth="no" name="13" />
   <point x="546" y="0" type="line" smooth="no" name="13" />
   <point x="319" y="633" type="line" smooth="no" name="13" />
  </contour>
  <contour>
   <point x="280" y="550" type="line" smooth="no" name="13" />
   <point x="397" y="210" type="line" smooth="no" name="13" />
   <point x="164" y="210" type="line" smooth="no" name="13" />
  </contour>
  <contour>
   <point x="161" y="770" type="curve" smooth="yes" name="15" />
   <point x="161" y="745" type="offcurve" name="14" />
   <point x="180" y="726" type="offcurve" name="14" />
   <point x="205" y="726" type="curve" smooth="yes" name="15" />
   <point x="229" y="726" type="offcurve" name="14" />
   <point x="249" y="745" type="offcurve" name="14" />
   <point x="249" y="770" type="curve" smooth="yes" name="15" />
   <point x="249" y="793" type="offcurve" name="14" />
   <point x="229" y="813" type="offcurve" name="14" />
   <point x="205" y="813" type="curve" smooth="yes" name="15" />
   <point x="180" y="813" type="offcurve" name="14" />
   <point x="161" y="793" type="offcurve" name="14" />
  </contour>
  <contour>
   <point x="312" y="770" type="curve" smooth="yes" name="15" />
   <point x="312" y="745" type="offcurve" name="14" />
   <point x="332" y="726" type="offcurve" name="14" />
   <point x="356" y="726" type="curve" smooth="yes" name="15" />
   <point x="380" y="726" type="offcurve" name="14" />
   <point x="400" y="745" type="offcurve" name="14" />
   <point x="400" y="770" type="curve" smooth="yes" name="15" />
   <point x="400" y="793" type="offcurve" name="14" />
   <point x="380" y="813" type="offcurve" name="14" />
   <point x="356" y="813" type="curve" smooth="yes" name="15" />
   <point x="332" y="813" type="offcurve" name="14" />
   <point x="312" y="793" type="offcurve" name="14" />
  </contour>
 </outline>
</glyph>
<glyph name="Aring" format="1">
 <advance width="576" />
 <unicode hex="00c5" />
 <outline>
  <contour>
   <point x="242" y="633" type="line" smooth="no" name="13" />
   <point x="15" y="0" type="line" smooth="no" name="13" />
   <point x="92" y="0" type="line" smooth="no" name="13" />
   <point x="144" y="148" type="line" smooth="no" name="13" />
   <point x="419" y="148" type="line" smooth="no" name="13" />
   <point x="470" y="0" type="line" smooth="no" name="13" />
   <point x="546" y="0" type="line" smooth="no" name="13" />
   <point x="319" y="633" type="line" smooth="no" name="13" />
  </contour>
  <contour>
   <point x="280" y="550" type="line" smooth="no" name="13" />
   <point x="397" y="210" type="line" smooth="no" name="13" />
   <point x="164" y="210" type="line" smooth="no" name="13" />
  </contour>
  <contour>
   <point x="218" y="763" type="curve" smooth="yes" name="15" />
   <point x="218" y="728" type="offcurve" name="14" />
   <point x="246" y="700" type="offcurve" name="14" />
   <point x="281" y="700" type="curve" smooth="yes" name="15" />
   <point x="316" y="700" type="offcurve" name="14" />
   <point x="344" y="728" type="offcurve" name="14" />
   <point x="344" y="763" type="curve" smooth="yes" name="15" />
   <point x="344" y="798" type="offcurve" name="14" />
   <point x="316" y="826" type="offcurve" name="14" />
   <point x="281" y="826" type="curve" smooth="yes" name="15" />
   <point x="246" y="826" type="offcurve" name="14" />
   <point x="218" y="798" type="offcurve" name="14" />
  </contour>
  <contour>
   <point x="248" y="763" type="curve" smooth="yes" name="15" />
   <point x="248" y="781" type="offcurve" name="14" />
   <point x="262" y="796" type="offcurve" name="14" />
   <point x="280" y="796" type="curve" smooth="yes" name="15" />
   <point x="298" y="796" type="offcurve" name="14" />
   <point x="314" y="781" type="offcurve" name="14" />
   <point x="314" y="763" type="curve" smooth="yes" name="15" />
   <point x="314" y="745" type="offcurve" name="14" />
   <point x="298" y="731" type="offcurve" name="14" />
   <point x="280" y="731" type="curve" smooth="yes" name="15" />
   <point x="262" y="731" type="offcurve" name="14" />
   <point x="248" y="745" type="offcurve" name="14" />
  </contour>
 </outline>
</glyph>
<glyph name="AE" format="1">
 <advance width="785" />
 <unicode hex="00c6" />
 <outline>
  <contour>
   <point x="723" y="633" type="line" smooth="no" name="13" />
   <point x="290" y="633" type="line" smooth="no" name="13" />
   <point x="15" y="0" type="line" smooth="no" name="13" />
   <point x="92" y="0" type="line" smooth="no" name="13" />
   <point x="153" y="152" type="line" smooth="no" name="13" />
   <point x="351" y="152" type="line" smooth="no" name="13" />
   <point x="351" y="0" type="line" smooth="no" name="13" />
   <point x="736" y="0" type="line" smooth="no" name="13" />
   <point x="736" y="63" type="line" smooth="no" name="13" />
   <point x="425" y="63" type="line" smooth="no" name="13" />
   <point x="425" y="298" type="line" smooth="no" name="13" />
   <point x="676" y="298" type="line" smooth="no" name="13" />
   <point x="676" y="361" type="line" smooth="no" name="13" />
   <point x="425" y="361" type="line" smooth="no" name="13" />
   <point x="425" y="570" type="line" smooth="no" name="13" />
   <point x="723" y="570" type="line" smooth="no" name="13" />
  </contour>
  <contour>
   <point x="330" y="569" type="line" smooth="no" name="13" />
   <point x="351" y="569" type="line" smooth="no" name="13" />
   <point x="351" y="214" type="line" smooth="no" name="13" />
   <point x="179" y="214" type="line" smooth="no" name="13" />
  </contour>
 </outline>
</glyph>
<glyph name="Ccedilla" format="1">
 <advance width="566" />
 <unicode hex="00c7" />
 <outline>
  <contour>
   <point x="496" y="582" type="line" smooth="no" name="13" />
   <point x="441" y="626" type="offcurve" name="14" />
   <point x="385" y="645" type="offcurve" name="14" />
   <point x="315" y="645" type="curve" smooth="yes" name="15" />
   <point x="142" y="645" type="offcurve" name="14" />
   <point x="48" y="475" type="offcurve" name="14" />
   <point x="48" y="310" type="curve" smooth="yes" name="15" />
   <point x="48" y="141" type="offcurve" name="14" />
   <point x="139" y="5" type="offcurve" name="14" />
   <point x="297" y="-10" type="curve" smooth="no" name="13" />
   <point x="286" y="-55" type="line" smooth="no" name="13" />
   <point x="304" y="-53" type="offcurve" name="14" />
   <point x="315" y="-53" type="offcurve" name="14" />
   <point x="321" y="-53" type="curve" smooth="yes" name="15" />
   <point x="346" y="-53" type="offcurve" name="14" />
   <point x="368" y="-63" type="offcurve" name="14" />
   <point x="368" y="-87" type="curve" smooth="yes" name="15" />
   <point x="368" y="-111" type="offcurve" name="14" />
   <point x="348" y="-121" type="offcurve" name="14" />
   <point x="323" y="-121" type="curve" smooth="yes" name="15" />
   <point x="300" y="-121" type="offcurve" name="14" />
   <point x="285" y="-116" type="offcurve" name="14" />
   <point x="267" y="-108" type="curve" smooth="no" name="13" />
   <point x="255" y="-144" type="line" smooth="no" name="13" />
   <point x="285" y="-157" type="offcurve" name="14" />
   <point x="309" y="-160" type="offcurve" name="14" />
   <point x="327" y="-160" type="curve" smooth="yes" name="15" />
   <point x="380" y="-160" type="offcurve" name="14" />
   <point x="418" y="-129" type="offcurve" name="14" />
   <point x="418" y="-86" type="curve" smooth="yes" name="15" />
   <point x="418" y="-54" type="offcurve" name="14" />
   <point x="396" y="-28" type="offcurve" name="14" />
   <point x="356" y="-28" type="curve" smooth="yes" name="15" />
   <point x="350" y="-28" type="offcurve" name="14" />
   <point x="343" y="-29" type="offcurve" name="14" />
   <point x="336" y="-30" type="curve" smooth="no" name="13" />
   <point x="341" y="-11" type="line" smooth="no" name="13" />
   <point x="405" y="-8" type="offcurve" name="14" />
   <point x="463" y="20" type="offcurve" name="14" />
   <point x="504" y="56" type="curve" smooth="no" name="13" />
   <point x="474" y="101" type="line" smooth="no" name="13" />
   <point x="441" y="77" type="offcurve" name="14" />
   <point x="392" y="54" type="offcurve" name="14" />
   <point x="337" y="54" type="curve" smooth="yes" name="15" />
   <point x="212" y="54" type="offcurve" name="14" />
   <point x="127" y="154" type="offcurve" name="14" />
   <point x="127" y="310" type="curve" smooth="yes" name="15" />
   <point x="127" y="487" type="offcurve" name="14" />
   <point x="214" y="581" type="offcurve" name="14" />
   <point x="329" y="581" type="curve" smooth="yes" name="15" />
   <point x="387" y="581" type="offcurve" name="14" />
   <point x="429" y="562" type="offcurve" name="14" />
   <point x="466" y="539" type="curve" smooth="no" name="13" />
  </contour>
 </outline>
</glyph>
<glyph name="Egrave" format="1">
 <advance width="526" />
 <unicode hex="00c8" />
 <outline>
  <contour>
   <point x="82" y="633" type="line" smooth="no" name="13" />
   <point x="82" y="0" type="line" smooth="no" name="13" />
   <point x="467" y="0" type="line" smooth="no" name="13" />
   <point x="467" y="63" type="line" smooth="no" name="13" />
   <point x="156" y="63" type="line" smooth="no" name="13" />
   <point x="156" y="298" type="line" smooth="no" name="13" />
   <point x="407" y="298" type="line" smooth="no" name="13" />
   <point x="407" y="361" type="line" smooth="no" name="13" />
   <point x="156" y="361" type="line" smooth="no" name="13" />
   <point x="156" y="570" type="line" smooth="no" name="13" />
   <point x="454" y="570" type="line" smooth="no" name="13" />
   <point x="454" y="633" type="line" smooth="no" name="13" />
  </contour>
  <contour>
   <point x="262" y="712" type="line" smooth="no" name="13" />
   <point x="304" y="712" type="line" smooth="no" name="13" />
   <point x="250" y="824" type="line" smooth="no" name="13" />
   <point x="177" y="824" type="line" smooth="no" name="13" />
  </contour>
 </outline>
</glyph>
<glyph name="Eacute" format="1">
 <advance width="526" />
 <unicode hex="00c9" />
 <outline>
  <contour>
   <point x="82" y="633" type="line" smooth="no" name="13" />
   <point x="82" y="0" type="line" smooth="no" name="13" />
   <point x="467" y="0" type="line" smooth="no" name="13" />
   <point x="467" y="63" type="line" smooth="no" name="13" />
   <point x="156" y="63" type="line" smooth="no" name="13" />
   <point x="156" y="298" type="line" smooth="no" name="13" />
   <point x="407" y="298" type="line" smooth="no" name="13" />
   <point x="407" y="361" type="line" smooth="no" name="13" />
   <point x="156" y="361" type="line" smooth="no" name="13" />
   <point x="156" y="570" type="line" smooth="no" name="13" />
   <point x="454" y="570" type="line" smooth="no" name="13" />
   <point x="454" y="633" type="line" smooth="no" name="13" />
  </contour>
  <contour>
   <point x="348" y="819" type="line" smooth="no" name="13" />
   <point x="275" y="819" type="line" smooth="no" name="13" />
   <point x="221" y="707" type="line" smooth="no" name="13" />
   <point x="263" y="707" type="line" smooth="no" name="13" />
  </contour>
 </outline>
</glyph>
<glyph name="Ecircumflex" format="1">
 <advance width="526" />
 <unicode hex="00ca" />
 <outline>
  <contour>
   <point x="82" y="633" type="line" smooth="no" name="13" />
   <point x="82" y="0" type="line" smooth="no" name="13" />
   <point x="467" y="0" type="line" smooth="no" name="13" />
   <point x="467" y="63" type="line" smooth="no" name="13" />
   <point x="156" y="63" type="line" smooth="no" name="13" />
   <point x="156" y="298" type="line" smooth="no" name="13" />
   <point x="407" y="298" type="line" smooth="no" name="13" />
   <point x="407" y="361" type="line" smooth="no" name="13" />
   <point x="156" y="361" type="line" smooth="no" name="13" />
   <point x="156" y="570" type="line" smooth="no" name="13" />
   <point x="454" y="570" type="line" smooth="no" name="13" />
   <point x="454" y="633" type="line" smooth="no" name="13" />
  </contour>
  <contour>
   <point x="244" y="823" type="line" smooth="no" name="13" />
   <point x="166" y="711" type="line" smooth="no" name="13" />
   <point x="220" y="711" type="line" smooth="no" name="13" />
   <point x="267" y="778" type="line" smooth="no" name="13" />
   <point x="269" y="779" type="line" smooth="no" name="13" />
   <point x="314" y="711" type="line" smooth="no" name="13" />
   <point x="369" y="711" type="line" smooth="no" name="13" />
   <point x="292" y="823" type="line" smooth="no" name="13" />
  </contour>
 </outline>
</glyph>
<glyph name="Edieresis" format="1">
 <advance width="526" />
 <unicode hex="00cb" />
 <outline>
  <contour>
   <point x="82" y="633" type="line" smooth="no" name="13" />
   <point x="82" y="0" type="line" smooth="no" name="13" />
   <point x="467" y="0" type="line" smooth="no" name="13" />
   <point x="467" y="63" type="line" smooth="no" name="13" />
   <point x="156" y="63" type="line" smooth="no" name="13" />
   <point x="156" y="298" type="line" smooth="no" name="13" />
   <point x="407" y="298" type="line" smooth="no" name="13" />
   <point x="407" y="361" type="line" smooth="no" name="13" />
   <point x="156" y="361" type="line" smooth="no" name="13" />
   <point x="156" y="570" type="line" smooth="no" name="13" />
   <point x="454" y="570" type="line" smooth="no" name="13" />
   <point x="454" y="633" type="line" smooth="no" name="13" />
  </contour>
  <contour>
   <point x="150" y="770" type="curve" smooth="yes" name="15" />
   <point x="150" y="745" type="offcurve" name="14" />
   <point x="169" y="726" type="offcurve" name="14" />
   <point x="194" y="726" type="curve" smooth="yes" name="15" />
   <point x="218" y="726" type="offcurve" name="14" />
   <point x="238" y="745" type="offcurve" name="14" />
   <point x="238" y="770" type="curve" smooth="yes" name="15" />
   <point x="238" y="793" type="offcurve" name="14" />
   <point x="218" y="813" type="offcurve" name="14" />
   <point x="194" y="813" type="curve" smooth="yes" name="15" />
   <point x="169" y="813" type="offcurve" name="14" />
   <point x="150" y="793" type="offcurve" name="14" />
  </contour>
  <contour>
   <point x="301" y="770" type="curve" smooth="yes" name="15" />
   <point x="301" y="745" type="offcurve" name="14" />
   <point x="321" y="726" type="offcurve" name="14" />
   <point x="345" y="726" type="curve" smooth="yes" name="15" />
   <point x="369" y="726" type="offcurve" name="14" />
   <point x="389" y="745" type="offcurve" name="14" />
   <point x="389" y="770" type="curve" smooth="yes" name="15" />
   <point x="389" y="793" type="offcurve" name="14" />
   <point x="369" y="813" type="offcurve" name="14" />
   <point x="345" y="813" type="curve" smooth="yes" name="15" />
   <point x="321" y="813" type="offcurve" name="14" />
   <point x="301" y="793" type="offcurve" name="14" />
  </contour>
 </outline>
</glyph>
<glyph name="Igrave" format="1">
 <advance width="272" />
 <unicode hex="00cc" />
 <outline>
  <contour>
   <point x="164" y="633" type="line" smooth="no" name="13" />
   <point x="91" y="633" type="line" smooth="no" name="13" />
   <point x="91" y="0" type="line" smooth="no" name="13" />
   <point x="164" y="0" type="line" smooth="no" name="13" />
  </contour>
  <contour>
   <point x="106" y="711" type="line" smooth="no" name="13" />
   <point x="148" y="711" type="line" smooth="no" name="13" />
   <point x="94" y="823" type="line" smooth="no" name="13" />
   <point x="21" y="823" type="line" smooth="no" name="13" />
  </contour>
 </outline>
</glyph>
<glyph name="Iacute" format="1">
 <advance width="272" />
 <unicode hex="00cd" />
 <outline>
  <contour>
   <point x="164" y="633" type="line" smooth="no" name="13" />
   <point x="90" y="633" type="line" smooth="no" name="13" />
   <point x="90" y="0" type="line" smooth="no" name="13" />
   <point x="164" y="0" type="line" smooth="no" name="13" />
  </contour>
  <contour>
   <point x="235" y="823" type="line" smooth="no" name="13" />
   <point x="163" y="823" type="line" smooth="no" name="13" />
   <point x="109" y="711" type="line" smooth="no" name="13" />
   <point x="151" y="711" type="line" smooth="no" name="13" />
  </contour>
 </outline>
</glyph>
<glyph name="Icircumflex" format="1">
 <advance width="272" />
 <unicode hex="00ce" />
 <outline>
  <contour>
   <point x="164" y="633" type="line" smooth="no" name="13" />
   <point x="91" y="633" type="line" smooth="no" name="13" />
   <point x="91" y="0" type="line" smooth="no" name="13" />
   <point x="164" y="0" type="line" smooth="no" name="13" />
  </contour>
  <contour>
   <point x="106" y="834" type="line" smooth="no" name="13" />
   <point x="27" y="722" type="line" smooth="no" name="13" />
   <point x="81" y="722" type="line" smooth="no" name="13" />
   <point x="128" y="789" type="line" smooth="no" name="13" />
   <point x="130" y="790" type="line" smooth="no" name="13" />
   <point x="176" y="722" type="line" smooth="no" name="13" />
   <point x="231" y="722" type="line" smooth="no" name="13" />
   <point x="153" y="834" type="line" smooth="no" name="13" />
  </contour>
 </outline>
</glyph>
<glyph name="Idieresis" format="1">
 <advance width="272" />
 <unicode hex="00cf" />
 <outline>
  <contour>
   <point x="164" y="633" type="line" smooth="no" name="13" />
   <point x="91" y="633" type="line" smooth="no" name="13" />
   <point x="91" y="0" type="line" smooth="no" name="13" />
   <point x="164" y="0" type="line" smooth="no" name="13" />
  </contour>
  <contour>
   <point x="8" y="770" type="curve" smooth="yes" name="15" />
   <point x="8" y="745" type="offcurve" name="14" />
   <point x="27" y="726" type="offcurve" name="14" />
   <point x="52" y="726" type="curve" smooth="yes" name="15" />
   <point x="76" y="726" type="offcurve" name="14" />
   <point x="96" y="745" type="offcurve" name="14" />
   <point x="96" y="770" type="curve" smooth="yes" name="15" />
   <point x="96" y="793" type="offcurve" name="14" />
   <point x="76" y="813" type="offcurve" name="14" />
   <point x="52" y="813" type="curve" smooth="yes" name="15" />
   <point x="27" y="813" type="offcurve" name="14" />
   <point x="8" y="793" type="offcurve" name="14" />
  </contour>
  <contour>
   <point x="159" y="770" type="curve" smooth="yes" name="15" />
   <point x="159" y="745" type="offcurve" name="14" />
   <point x="179" y="726" type="offcurve" name="14" />
   <point x="203" y="726" type="curve" smooth="yes" name="15" />
   <point x="227" y="726" type="offcurve" name="14" />
   <point x="247" y="745" type="offcurve" name="14" />
   <point x="247" y="770" type="curve" smooth="yes" name="15" />
   <point x="247" y="793" type="offcurve" name="14" />
   <point x="227" y="813" type="offcurve" name="14" />
   <point x="203" y="813" type="curve" smooth="yes" name="15" />
   <point x="179" y="813" type="offcurve" name="14" />
   <point x="159" y="793" type="offcurve" name="14" />
  </contour>
 </outline>
</glyph>
